{
DisplayStrings = (
"a+\U00B1ab1\U00B12B\U00B1D"
);
classes = (
{
code = "dvmI.a01 dvmI.a02 dvmI.a03 dvmI.a04 dvmI.a05 dvmI.a06 dvmI.a07 dvmI.a08 dvmI.a09 dvmI.a10 dvmI.a11 dvmI.a12 dvmI.a13 dvmI.a14 dvmI.a15 dvmI.a16 dvmI.a17 dvmI.a18 dvmI.a19 dvmI.a20 dvmI.a21 dvmI.a22 dvmI.a23 dvmI.a24 dvmI.a25 dvmI.a26 dvmI.a27 dvmI.a28 dvmI.a29 dvmI.a30 dvmI.a31 dvmI.a32";
name = mI_ALTS;
},
{
code = "dvKA dvPHA dvKxA dvPHxA dvK_RA dvPH_RA dvKx_RA dvPHx_RA dvK_KA dvKx_KxA dvK_TA dvK_PHA dvKx_PHA dvKx_PHxA dvJ_KA dvT_KA dvT_K_RA dvT_PHA dvN_KA dvN_PHA dvN_PH_RA dvP_PHA dvPH_PHA dvPHx_PHxA dvL_KA dvL_PHA dvSH_KA dvSH_KxA dvSS_KA dvSS_K_RA dvSS_PHA dvS_KA dvS_K_RA dvS_PHA";
name = mII_BASES;
},
{

glyphs = (
{
glyphname = .notdef;
layers = (
{
layerId = "7E8129F4-1E15-4123-8D26-95A3779BF9A9";
name = Light;
paths = (
{
closed = 1;
nodes = (
"180 0 LINE",
"570 0 LINE",
"570 701 LINE",
"180 701 LINE"
);
},
{
closed = 1;
nodes = (
"234 651 LINE",
"516 651 LINE",
"516 50 LINE",
"234 50 LINE"
);
}
);
width = 750;
}
);
},
{
glyphname = dottedcircle;
layers = (
{
layerId = "7E8129F4-1E15-4123-8D26-95A3779BF9A9";
name = Light;
paths = (
{
closed = 1;
nodes = (
"139 517 CURVE SMOOTH",
"139 491 OFFCURVE",
"157 472 OFFCURVE",
"183 472 CURVE SMOOTH",
"209 472 OFFCURVE",
"227 491 OFFCURVE",
"227 517 CURVE SMOOTH",
"227 542 OFFCURVE",
"209 561 OFFCURVE",
"183 561 CURVE SMOOTH",
"157 561 OFFCURVE",
"139 542 OFFCURVE"
);
},
{
closed = 1;
nodes = (
"57 407 CURVE SMOOTH",
"57 382 OFFCURVE",
"77 363 OFFCURVE",
"103 363 CURVE SMOOTH",
"127 363 OFFCURVE",
"147 382 OFFCURVE",
"147 407 CURVE SMOOTH",
"147 432 OFFCURVE",
"127 451 OFFCURVE",
"103 451 CURVE SMOOTH",
"77 451 OFFCURVE",
"57 432 OFFCURVE"
);
},
{
closed = 1;
nodes = (
"44 281 CURVE SMOOTH",
"44 256 OFFCURVE",
"63 238 OFFCURVE",
"88 238 CURVE SMOOTH",
"114 238 OFFCURVE",
"132 256 OFFCURVE",
"132 281 CURVE SMOOTH",
"132 307 OFFCURVE",
"114 326 OFFCURVE",
"88 326 CURVE SMOOTH",
"63 326 OFFCURVE",
"44 307 OFFCURVE"
);
},
{
closed = 1;
nodes = (
"96 165 CURVE SMOOTH",
"96 139 OFFCURVE",
"114 121 OFFCURVE",
"140 121 CURVE SMOOTH",
"165 121 OFFCURVE",
"184 139 OFFCURVE",
"184 165 CURVE SMOOTH",
"184 190 OFFCURVE",
"165 209 OFFCURVE",
"140 209 CURVE SMOOTH",
"114 209 OFFCURVE",
"96 190 OFFCURVE"
);
},
{
closed = 1;
nodes = (
"197 90 CURVE SMOOTH",
"197 64 OFFCURVE",
"216 44 OFFCURVE",
"242 44 CURVE SMOOTH",
"267 44 OFFCURVE",
"286 64 OFFCURVE",
"286 90 CURVE SMOOTH",
"286 114 OFFCURVE",
"267 134 OFFCURVE",
"242 134 CURVE SMOOTH",
"216 134 OFFCURVE",
"197 114 OFFCURVE"
);
},
{
closed = 1;
nodes = (
"324 74 CURVE SMOOTH",
"324 48 OFFCURVE",
"342 30 OFFCURVE",
"368 30 CURVE SMOOTH",
"394 30 OFFCURVE",
"413 48 OFFCURVE",
"413 74 CURVE SMOOTH",
"413 100 OFFCURVE",
"394 118 OFFCURVE",
"368 118 CURVE SMOOTH",
"342 118 OFFCURVE",
"324 100 OFFCURVE"
);
},
{
closed = 1;
nodes = (
"445 127 CURVE SMOOTH",
"445 101 OFFCURVE",
"464 83 OFFCURVE",
"489 83 CURVE SMOOTH",
"514 83 OFFCURVE",
"534 101 OFFCURVE",
"534 127 CURVE SMOOTH",
"534 152 OFFCURVE",
"514 171 OFFCURVE",
"489 171 CURVE SMOOTH",
"464 171 OFFCURVE",
"445 152 OFFCURVE"
);
},
{
closed = 1;
nodes = (
"518 225 CURVE SMOOTH",
"518 200 OFFCURVE",
"537 181 OFFCURVE",
"563 181 CURVE SMOOTH",
"587 181 OFFCURVE",
"606 200 OFFCURVE",
"606 225 CURVE SMOOTH",
"606 251 OFFCURVE",
"587 270 OFFCURVE",
"563 270 CURVE SMOOTH",
"537 270 OFFCURVE",
"518 251 OFFCURVE"
);
},
{
closed = 1;
nodes = (
"528 359 CURVE SMOOTH",
"528 333 OFFCURVE",
"546 315 OFFCURVE",
"572 315 CURVE SMOOTH",
"597 315 OFFCURVE",
"616 333 OFFCURVE",
"616 359 CURVE SMOOTH",
"616 385 OFFCURVE",
"597 403 OFFCURVE",
"572 403 CURVE SMOOTH",
"546 403 OFFCURVE",
"528 385 OFFCURVE"
);
},
{
closed = 1;
nodes = (
"478 477 CURVE SMOOTH",
"478 452 OFFCURVE",
"497 433 OFFCURVE",
"522 433 CURVE SMOOTH",
"548 433 OFFCURVE",
"566 452 OFFCURVE",
"566 477 CURVE SMOOTH",
"566 503 OFFCURVE",
"548 522 OFFCURVE",
"522 522 CURVE SMOOTH",
"497 522 OFFCURVE",
"478 503 OFFCURVE"
);
},
{
closed = 1;
nodes = (
"383 545 CURVE SMOOTH",
"383 521 OFFCURVE",
"402 501 OFFCURVE",
"428 501 CURVE SMOOTH",
"453 501 OFFCURVE",
"471 521 OFFCURVE",
"471 545 CURVE SMOOTH",
"471 571 OFFCURVE",
"453 590 OFFCURVE",
"428 590 CURVE SMOOTH",
"402 590 OFFCURVE",
"383 571 OFFCURVE"
);
},
{
closed = 1;
nodes = (
"257 560 CURVE SMOOTH",
"257 534 OFFCURVE",
"275 516 OFFCURVE",
"301 516 CURVE SMOOTH",
"327 516 OFFCURVE",
"345 534 OFFCURVE",
"345 560 CURVE SMOOTH",
"345 586 OFFCURVE",
"327 604 OFFCURVE",
"301 604 CURVE SMOOTH",
"275 604 OFFCURVE",
"257 586 OFFCURVE"
);
}
);
width = 660;
}
);
unicode = 25CC;
},
{
glyphname = dvAnusvara;
layers = (
{
anchors = (
{
name = _abvm.bindu;
position = "{-170, 646}";
}
);
layerId = "7E8129F4-1E15-4123-8D26-95A3779BF9A9";
name = Light;
paths = (
{
closed = 1;
nodes = (
"-131 761 CURVE SMOOTH",
"-106 761 OFFCURVE",
"-89 779 OFFCURVE",
"-89 803 CURVE SMOOTH",
"-89 833 OFFCURVE",
"-118 861 OFFCURVE",
"-147 861 CURVE SMOOTH",
"-172 861 OFFCURVE",
"-189 843 OFFCURVE",
"-189 819 CURVE SMOOTH",
"-189 789 OFFCURVE",
"-161 761 OFFCURVE"
);
}
);
width = 0;
}
);
unicode = 0902;
},
{
glyphname = dvCandrabindu;
layers = (
{
anchors = (
{
name = _abvm.bindu;
position = "{-170, 646}";
}
);
layerId = "7E8129F4-1E15-4123-8D26-95A3779BF9A9";
name = Light;
paths = (
{
closed = 1;
nodes = (
"-156 899 CURVE SMOOTH",
"-131 899 OFFCURVE",
"-114 917 OFFCURVE",
"-114 941 CURVE SMOOTH",
"-114 971 OFFCURVE",
"-143 999 OFFCURVE",
"-172 999 CURVE SMOOTH",
"-197 999 OFFCURVE",
"-214 981 OFFCURVE",
"-214 957 CURVE SMOOTH",
"-214 927 OFFCURVE",
"-186 899 OFFCURVE"
);
},
{
closed = 1;
nodes = (
"-324 894 CURVE",
"-335 890 OFFCURVE",
"-337 882 OFFCURVE",
"-337 876 CURVE SMOOTH",
"-337 843 OFFCURVE",
"-251 768 OFFCURVE",
"-136 768 CURVE SMOOTH",
"-51 768 OFFCURVE",
"27 804 OFFCURVE",
"27 858 CURVE SMOOTH",
"27 877 OFFCURVE",
"14 892 OFFCURVE",
"-5 896 CURVE",
"-34 838 OFFCURVE",
"-100 813 OFFCURVE",
"-161 813 CURVE SMOOTH",
"-225 813 OFFCURVE",
"-283 839 OFFCURVE"
);
}
);
width = 0;
}
);
unicode = 0901;
},
{
glyphname = dvVisarga;
layers = (
{
layerId = "7E8129F4-1E15-4123-8D26-95A3779BF9A9";
name = Light;
paths = (
{
closed = 1;
nodes = (
"136 419 CURVE SMOOTH",
"161 419 OFFCURVE",
"178 437 OFFCURVE",
"178 461 CURVE SMOOTH",
"178 491 OFFCURVE",
"149 519 OFFCURVE",
"120 519 CURVE SMOOTH",
"95 519 OFFCURVE",
"78 501 OFFCURVE",
"78 477 CURVE SMOOTH",
"78 447 OFFCURVE",
"106 419 OFFCURVE"
);
},
{
closed = 1;
nodes = (
"136 105 CURVE SMOOTH",
"161 105 OFFCURVE",
"178 123 OFFCURVE",
"178 147 CURVE SMOOTH",
"178 177 OFFCURVE",
"149 205 OFFCURVE",
"120 205 CURVE SMOOTH",
"95 205 OFFCURVE",
"78 187 OFFCURVE",
"78 163 CURVE SMOOTH",
"78 133 OFFCURVE",
"106 105 OFFCURVE"
);
}
);
width = 254;
}
);
unicode = 0903;
},
{
glyphname = dvA;
layers = (
{
layerId = "7E8129F4-1E15-4123-8D26-95A3779BF9A9";
name = Light;
paths = (
{
closed = 1;
nodes = (
"539 353 LINE",
"529 273 OFFCURVE",
"526 180 OFFCURVE",
"526 78 CURVE SMOOTH",
"526 38 OFFCURVE",
"531 -5 OFFCURVE",
"572 -5 CURVE SMOOTH",
"576 -5 OFFCURVE",
"583 -4 OFFCURVE",
"589 -1 CURVE",
"581 11 OFFCURVE",
"579 46 OFFCURVE",
"579 80 CURVE SMOOTH",
"579 238 OFFCURVE",
"583 378 OFFCURVE",
"583 515 CURVE SMOOTH",
"583 554 OFFCURVE",
"579 600 OFFCURVE",
"542 600 CURVE SMOOTH",
"531 600 OFFCURVE",
"525 598 OFFCURVE",
"520 595 CURVE",
"528 583 OFFCURVE",
"530 547 OFFCURVE",
"530 513 CURVE SMOOTH",
"530 456 OFFCURVE",
"530 402 OFFCURVE",
"529 349 CURVE",
"541 367 LINE",
"522 352 OFFCURVE",
"492 337 OFFCURVE",
"441 337 CURVE SMOOTH",
"314 337 OFFCURVE",
"292 441 OFFCURVE",
"190 441 CURVE SMOOTH",
"158 441 OFFCURVE",
"133 424 OFFCURVE",
"133 395 CURVE SMOOTH",
"133 356 OFFCURVE",
"174 340 OFFCURVE",
"205 340 CURVE SMOOTH",
"235 340 OFFCURVE",
"262 348 OFFCURVE",
"288 362 CURVE",
"299 354 OFFCURVE",
"333 322 OFFCURVE",
"333 268 CURVE SMOOTH",
"333 201 OFFCURVE",
"283 163 OFFCURVE",
"219 163 CURVE SMOOTH",
"129 163 OFFCURVE",
"58 241 OFFCURVE",
"21 317 CURVE",
"10 314 OFFCURVE",
"5 308 OFFCURVE",
"5 297 CURVE SMOOTH",
"5 256 OFFCURVE",
"102 110 OFFCURVE",
"243 110 CURVE SMOOTH",
"326 110 OFFCURVE",
"386 160 OFFCURVE",
"386 243 CURVE SMOOTH",
"386 279 OFFCURVE",
"371 315 OFFCURVE",
"348 347 CURVE",
"298 369 LINE",
"342 315 OFFCURVE",
"403 291 OFFCURVE",
"465 291 CURVE SMOOTH",
"501 291 OFFCURVE",
"534 298 OFFCURVE",
"559 313 CURVE"
);
},
{
closed = 1;
nodes = (
"306 375 LINE",
"341 402 OFFCURVE",
"364 443 OFFCURVE",
"364 488 CURVE SMOOTH",
"364 577 OFFCURVE",
"283 648 OFFCURVE",
"187 648 CURVE SMOOTH",
"132 648 OFFCURVE",
"99 622 OFFCURVE",
"99 596 CURVE SMOOTH",
"99 580 OFFCURVE",
"107 569 OFFCURVE",
"120 562 CURVE",
"146 584 OFFCURVE",
"183 596 OFFCURVE",
"219 596 CURVE SMOOTH",
"271 596 OFFCURVE",
"318 570 OFFCURVE",
"318 512 CURVE SMOOTH",
"318 470 OFFCURVE",
"288 422 OFFCURVE",
"222 394 CURVE"
);
},
{
closed = 1;
nodes = (
"715 595 LINE",
"716 597 OFFCURVE",
"717 603 OFFCURVE",
"717 608 CURVE SMOOTH",
"717 624 OFFCURVE",
"709 646 OFFCURVE",
"663 646 CURVE SMOOTH",
"428 646 LINE",
"427 644 OFFCURVE",
"426 638 OFFCURVE",
"426 633 CURVE SMOOTH",
"426 617 OFFCURVE",
"434 595 OFFCURVE",
"480 595 CURVE SMOOTH"
);
}
);
width = 690;
}
);
unicode = 0905;
},
{
glyphname = dvAA;
layers = (
{
anchors = (
{
name = abvm.bindu;
position = "{656, 646}";
}
);
layerId = "7E8129F4-1E15-4123-8D26-95A3779BF9A9";
name = Light;
paths = (
{
closed = 1;
nodes = (
"539 353 LINE",
"529 273 OFFCURVE",
"526 180 OFFCURVE",
"526 78 CURVE SMOOTH",
"526 38 OFFCURVE",
"531 -5 OFFCURVE",
"572 -5 CURVE SMOOTH",
"576 -5 OFFCURVE",
"583 -4 OFFCURVE",
"589 -1 CURVE",
"581 11 OFFCURVE",
"579 46 OFFCURVE",
"579 80 CURVE SMOOTH",
"579 238 OFFCURVE",
"583 378 OFFCURVE",
"583 515 CURVE SMOOTH",
"583 554 OFFCURVE",
"579 600 OFFCURVE",
"542 600 CURVE SMOOTH",
"531 600 OFFCURVE",
"525 598 OFFCURVE",
"520 595 CURVE",
"528 583 OFFCURVE",
"530 547 OFFCURVE",
"530 513 CURVE SMOOTH",
"530 456 OFFCURVE",
"530 402 OFFCURVE",
"529 349 CURVE",
"541 367 LINE",
"522 352 OFFCURVE",
"492 337 OFFCURVE",
"441 337 CURVE SMOOTH",
"314 337 OFFCURVE",
"292 441 OFFCURVE",
"190 441 CURVE SMOOTH",
"158 441 OFFCURVE",
"133 424 OFFCURVE",
"133 395 CURVE SMOOTH",
"133 356 OFFCURVE",
"174 340 OFFCURVE",
"205 340 CURVE SMOOTH",
"235 340 OFFCURVE",
"262 348 OFFCURVE",
"288 362 CURVE",
"299 354 OFFCURVE",
"333 322 OFFCURVE",
"333 268 CURVE SMOOTH",
"333 201 OFFCURVE",
"283 163 OFFCURVE",
"219 163 CURVE SMOOTH",
"129 163 OFFCURVE",
"58 241 OFFCURVE",
"21 317 CURVE",
"10 314 OFFCURVE",
"5 308 OFFCURVE",
"5 297 CURVE SMOOTH",
"5 256 OFFCURVE",
"102 110 OFFCURVE",
"243 110 CURVE SMOOTH",
"326 110 OFFCURVE",
"386 160 OFFCURVE",
"386 243 CURVE SMOOTH",
"386 279 OFFCURVE",
"371 315 OFFCURVE",
"348 347 CURVE",
"298 369 LINE",
"342 315 OFFCURVE",
"403 291 OFFCURVE",
"465 291 CURVE SMOOTH",
"501 291 OFFCURVE",
"534 298 OFFCURVE",
"559 313 CURVE"
);
},
{
closed = 1;
nodes = (
"306 375 LINE",
"341 402 OFFCURVE",
"364 443 OFFCURVE",
"364 488 CURVE SMOOTH",
"364 577 OFFCURVE",
"283 648 OFFCURVE",
"187 648 CURVE SMOOTH",
"132 648 OFFCURVE",
"99 622 OFFCURVE",
"99 596 CURVE SMOOTH",
"99 580 OFFCURVE",
"107 569 OFFCURVE",
"120 562 CURVE",
"146 584 OFFCURVE",
"183 596 OFFCURVE",
"219 596 CURVE SMOOTH",
"271 596 OFFCURVE",
"318 570 OFFCURVE",
"318 512 CURVE SMOOTH",
"318 470 OFFCURVE",
"288 422 OFFCURVE",
"222 394 CURVE"
);
},
{
closed = 1;
nodes = (
"715 595 LINE",
"716 597 OFFCURVE",
"717 603 OFFCURVE",
"717 608 CURVE SMOOTH",
"717 624 OFFCURVE",
"709 646 OFFCURVE",
"663 646 CURVE SMOOTH",
"428 646 LINE",
"427 644 OFFCURVE",
"426 638 OFFCURVE",
"426 633 CURVE SMOOTH",
"426 617 OFFCURVE",
"434 595 OFFCURVE",
"480 595 CURVE SMOOTH"
);
},
{
closed = 1;
nodes = (
"789 595 CURVE",
"797 583 OFFCURVE",
"799 547 OFFCURVE",
"799 513 CURVE SMOOTH",
"799 355 OFFCURVE",
"795 215 OFFCURVE",
"795 78 CURVE SMOOTH",
"795 38 OFFCURVE",
"800 -5 OFFCURVE",
"841 -5 CURVE SMOOTH",
"845 -5 OFFCURVE",
"852 -4 OFFCURVE",
"858 -1 CURVE",
"850 11 OFFCURVE",
"848 46 OFFCURVE",
"848 80 CURVE SMOOTH",
"848 238 OFFCURVE",
"852 378 OFFCURVE",
"852 515 CURVE SMOOTH",
"852 554 OFFCURVE",
"848 600 OFFCURVE",
"811 600 CURVE SMOOTH",
"800 600 OFFCURVE",
"794 598 OFFCURVE"
);
},
{
closed = 1;
nodes = (
"984 595 LINE",
"985 597 OFFCURVE",
"986 603 OFFCURVE",
"986 608 CURVE SMOOTH",
"986 624 OFFCURVE",
"978 646 OFFCURVE",
"932 646 CURVE SMOOTH",
"653 646 LINE",
"652 644 OFFCURVE",
"651 638 OFFCURVE",
"651 633 CURVE SMOOTH",
"651 617 OFFCURVE",
"659 595 OFFCURVE",
"705 595 CURVE SMOOTH"
);
}
);
width = 959;
}
);
unicode = 0906;
},
{
glyphname = dvI;
layers = (
{
anchors = (
{
name = abvm.bindu;
position = "{236, 646}";
}
);
layerId = "7E8129F4-1E15-4123-8D26-95A3779BF9A9";
name = Light;
paths = (
{
closed = 1;
nodes = (
"123 125 LINE",
"166 -64 OFFCURVE",
"256 -120 OFFCURVE",
"317 -120 CURVE SMOOTH",
"359 -120 OFFCURVE",
"379 -98 OFFCURVE",
"379 -76 CURVE SMOOTH",
"379 -62 OFFCURVE",
"371 -48 OFFCURVE",
"355 -41 CURVE",
"340 -57 OFFCURVE",
"320 -62 OFFCURVE",
"303 -62 CURVE SMOOTH",
"241 -62 OFFCURVE",
"187 11 OFFCURVE",
"161 94 CURVE"
);
},
{
closed = 1;
nodes = (
"269 309 CURVE SMOOTH",
"246 309 OFFCURVE",
"226 307 OFFCURVE",
"207 307 CURVE SMOOTH",
"151 307 OFFCURVE",
"126 342 OFFCURVE",
"126 373 CURVE SMOOTH",
"126 422 OFFCURVE",
"173 439 OFFCURVE",
"207 439 CURVE SMOOTH",
"225 439 OFFCURVE",
"253 438 OFFCURVE",
"273 438 CURVE SMOOTH",
"346 438 OFFCURVE",
"376 473 OFFCURVE",
"376 511 CURVE SMOOTH",
"376 543 OFFCURVE",
"355 580 OFFCURVE",
"316 605 CURVE",
"270 605 LINE",
"301 589 OFFCURVE",
"324 554 OFFCURVE",
"324 529 CURVE SMOOTH",
"324 508 OFFCURVE",
"308 491 OFFCURVE",
"270 491 CURVE SMOOTH",
"245 491 OFFCURVE",
"225 492 OFFCURVE",
"206 492 CURVE SMOOTH",
"126 492 OFFCURVE",
"74 460 OFFCURVE",
"74 395 CURVE SMOOTH",
"74 325 OFFCURVE",
"164 256 OFFCURVE",
"233 256 CURVE SMOOTH",
"254 256 OFFCURVE",
"278 258 OFFCURVE",
"299 258 CURVE SMOOTH",
"354 258 OFFCURVE",
"384 228 OFFCURVE",
"384 185 CURVE SMOOTH",
"384 115 OFFCURVE",
"307 84 OFFCURVE",
"246 84 CURVE SMOOTH",
"217 84 OFFCURVE",
"178 91 OFFCURVE",
"161 103 CURVE",
"151 154 OFFCURVE",
"127 197 OFFCURVE",
"90 197 CURVE SMOOTH",
"67 197 OFFCURVE",
"51 179 OFFCURVE",
"51 156 CURVE SMOOTH",
"51 74 OFFCURVE",
"176 33 OFFCURVE",
"262 33 CURVE SMOOTH",
"353 33 OFFCURVE",
"434 86 OFFCURVE",
"434 168 CURVE SMOOTH",
"434 253 OFFCURVE",
"346 309 OFFCURVE"
);
},
{
closed = 1;
nodes = (
"513 595 LINE",
"514 597 OFFCURVE",
"515 603 OFFCURVE",
"515 608 CURVE SMOOTH",
"515 624 OFFCURVE",
"507 646 OFFCURVE",
"461 646 CURVE SMOOTH",
"-37 646 LINE",
"-38 644 OFFCURVE",
"-39 638 OFFCURVE",
"-39 633 CURVE SMOOTH",
"-39 617 OFFCURVE",
"-31 595 OFFCURVE",
"15 595 CURVE SMOOTH"
);
}
);
width = 488;
}
);
unicode = 0907;
},
{
glyphname = dvReph;
layers = (
{
anchors = (
{
name = _abvm.e;
position = "{-107, 646}";
}
);
layerId = "7E8129F4-1E15-4123-8D26-95A3779BF9A9";
name = Light;
paths = (
{
closed = 1;
nodes = (
"-60 766 CURVE",
"-41 766 OFFCURVE",
"-38 781 OFFCURVE",
"-38 794 CURVE SMOOTH",
"-38 837 OFFCURVE",
"-75 898 OFFCURVE",
"-143 898 CURVE SMOOTH",
"-192 898 OFFCURVE",
"-241 858 OFFCURVE",
"-241 784 CURVE SMOOTH",
"-241 705 OFFCURVE",
"-176 632 OFFCURVE",
"-143 632 CURVE SMOOTH",
"-136 632 OFFCURVE",
"-130 636 OFFCURVE",
"-128 644 CURVE",
"-160 665 OFFCURVE",
"-194 710 OFFCURVE",
"-194 766 CURVE SMOOTH",
"-194 821 OFFCURVE",
"-162 847 OFFCURVE",
"-131 847 CURVE SMOOTH",
"-84 847 OFFCURVE",
"-66 804 OFFCURVE"
);
}
);
width = 0;
}
);
},
{
glyphname = dvU;
layers = (
{
anchors = (
{
name = abvm.bindu;
position = "{252, 646}";
}
);
layerId = "7E8129F4-1E15-4123-8D26-95A3779BF9A9";
name = Light;
paths = (
{
closed = 1;
nodes = (
"-37 646 LINE",
"-38 644 OFFCURVE",
"-39 638 OFFCURVE",
"-39 633 CURVE SMOOTH",
"-39 617 OFFCURVE",
"-31 595 OFFCURVE",
"15 595 CURVE SMOOTH",
"512 595 LINE",
"513 597 OFFCURVE",
"514 603 OFFCURVE",
"514 608 CURVE SMOOTH",
"514 624 OFFCURVE",
"506 646 OFFCURVE",
"460 646 CURVE SMOOTH"
);
},
{
closed = 1;
nodes = (
"305 330 LINE",
"322 316 OFFCURVE",
"359 276 OFFCURVE",
"359 214 CURVE SMOOTH",
"359 148 OFFCURVE",
"310 109 OFFCURVE",
"247 109 CURVE SMOOTH",
"146 109 OFFCURVE",
"70 209 OFFCURVE",
"33 291 CURVE",
"23 289 OFFCURVE",
"17 283 OFFCURVE",
"17 273 CURVE SMOOTH",
"17 226 OFFCURVE",
"119 56 OFFCURVE",
"269 56 CURVE SMOOTH",
"352 56 OFFCURVE",
"412 106 OFFCURVE",
"412 189 CURVE SMOOTH",
"412 292 OFFCURVE",
"307 404 OFFCURVE",
"216 404 CURVE SMOOTH",
"184 404 OFFCURVE",
"159 387 OFFCURVE",
"159 358 CURVE SMOOTH",
"159 319 OFFCURVE",
"200 303 OFFCURVE",
"231 303 CURVE SMOOTH",
"321 303 OFFCURVE",
"386 368 OFFCURVE",
"386 452 CURVE SMOOTH",
"386 528 OFFCURVE",
"337 595 OFFCURVE",
"280 627 CURVE",
"263 607 LINE",
"313 572 OFFCURVE",
"339 519 OFFCURVE",
"339 474 CURVE SMOOTH",
"339 428 OFFCURVE",
"310 383 OFFCURVE",
"248 357 CURVE"
);
}
);
width = 487;
}
);
unicode = 0909;
},
{
glyphname = dvUU;
layers = (
{
anchors = (
{
name = abvm.bindu;
position = "{358, 646}";
}
);
layerId = "7E8129F4-1E15-4123-8D26-95A3779BF9A9";
name = Light;
paths = (
{
closed = 1;
nodes = (
"-37 646 LINE",
"-38 644 OFFCURVE",
"-39 638 OFFCURVE",
"-39 633 CURVE SMOOTH",
"-39 617 OFFCURVE",
"-31 595 OFFCURVE",
"15 595 CURVE SMOOTH",
"763 595 LINE",
"764 597 OFFCURVE",
"765 603 OFFCURVE",
"765 608 CURVE SMOOTH",
"765 624 OFFCURVE",
"757 646 OFFCURVE",
"711 646 CURVE SMOOTH"
);
},
{
closed = 1;
nodes = (
"311 326 LINE",
"329 309 OFFCURVE",
"360 271 OFFCURVE",
"360 214 CURVE SMOOTH",
"360 148 OFFCURVE",
"311 109 OFFCURVE",
"247 109 CURVE SMOOTH",
"146 109 OFFCURVE",
"70 209 OFFCURVE",
"33 291 CURVE",
"23 289 OFFCURVE",
"17 283 OFFCURVE",
"17 273 CURVE SMOOTH",
"17 226 OFFCURVE",
"119 56 OFFCURVE",
"269 56 CURVE SMOOTH",
"331 56 OFFCURVE",
"374 86 OFFCURVE",
"400 135 CURVE SMOOTH",
"441 209 OFFCURVE",
"470 333 OFFCURVE",
"572 333 CURVE SMOOTH",
"635 333 OFFCURVE",
"666 280 OFFCURVE",
"666 239 CURVE SMOOTH",
"666 166 OFFCURVE",
"612 126 OFFCURVE",
"552 126 CURVE SMOOTH",
"543 126 OFFCURVE",
"534 127 OFFCURVE",
"524 129 CURVE",
"523 125 OFFCURVE",
"523 122 OFFCURVE",
"523 119 CURVE SMOOTH",
"523 90 OFFCURVE",
"555 76 OFFCURVE",
"582 76 CURVE SMOOTH",
"656 76 OFFCURVE",
"713 137 OFFCURVE",
"713 214 CURVE SMOOTH",
"713 301 OFFCURVE",
"634 382 OFFCURVE",
"551 382 CURVE SMOOTH",
"453 382 OFFCURVE",
"408 273 OFFCURVE",
"389 197 CURVE",
"407 192 LINE",
"407 302 OFFCURVE",
"305 404 OFFCURVE",
"217 404 CURVE SMOOTH",
"185 404 OFFCURVE",
"160 387 OFFCURVE",
"160 358 CURVE SMOOTH",
"160 319 OFFCURVE",
"201 303 OFFCURVE",
"232 303 CURVE SMOOTH",
"322 303 OFFCURVE",
"387 368 OFFCURVE",
"387 452 CURVE SMOOTH",
"387 528 OFFCURVE",
"338 595 OFFCURVE",
"281 627 CURVE",
"264 607 LINE",
"314 572 OFFCURVE",
"340 519 OFFCURVE",
"340 474 CURVE SMOOTH",
"340 428 OFFCURVE",
"311 383 OFFCURVE",
"249 357 CURVE"
);
}
);
width = 738;
}
);
unicode = 090A;
},
{
glyphname = dvvL;
layers = (
{
anchors = (
{
name = abvm.bindu;
position = "{428, 646}";
}
);
layerId = "7E8129F4-1E15-4123-8D26-95A3779BF9A9";
name = Light;
paths = (
{
closed = 1;
nodes = (
"448 434 CURVE SMOOTH",
"398 434 OFFCURVE",
"354 404 OFFCURVE",
"322 363 CURVE",
"346 279 LINE",
"369 341 OFFCURVE",
"412 384 OFFCURVE",
"468 384 CURVE SMOOTH",
"530 384 OFFCURVE",
"569 335 OFFCURVE",
"569 275 CURVE SMOOTH",
"569 180 OFFCURVE",
"459 119 OFFCURVE",
"459 35 CURVE SMOOTH",
"459 -51 OFFCURVE",
"544 -111 OFFCURVE",
"604 -111 CURVE SMOOTH",
"671 -111 OFFCURVE",
"710 -66 OFFCURVE",
"710 -22 CURVE SMOOTH",
"710 -4 OFFCURVE",
"702 17 OFFCURVE",
"674 22 CURVE",
"666 -25 OFFCURVE",
"634 -64 OFFCURVE",
"580 -64 CURVE SMOOTH",
"546 -64 OFFCURVE",
"508 -40 OFFCURVE",
"508 7 CURVE SMOOTH",
"508 93 OFFCURVE",
"621 156 OFFCURVE",
"621 251 CURVE SMOOTH",
"621 342 OFFCURVE",
"540 434 OFFCURVE"
);
},
{
closed = 1;
nodes = (
"490 404 LINE",
"490 441 OFFCURVE",
"491 478 OFFCURVE",
"491 515 CURVE SMOOTH",
"491 554 OFFCURVE",
"487 600 OFFCURVE",
"450 600 CURVE SMOOTH",
"439 600 OFFCURVE",
"433 598 OFFCURVE",
"428 595 CURVE",
"436 583 OFFCURVE",
"438 547 OFFCURVE",
"438 513 CURVE SMOOTH",
"438 474 OFFCURVE",
"437 436 OFFCURVE",
"437 399 CURVE"
);
},
{
closed = 1;
nodes = (
"-37 646 LINE",
"-38 644 OFFCURVE",
"-39 638 OFFCURVE",
"-39 633 CURVE SMOOTH",
"-39 617 OFFCURVE",
"-31 595 OFFCURVE",
"15 595 CURVE SMOOTH",
"727 595 LINE",
"728 597 OFFCURVE",
"729 603 OFFCURVE",
"729 608 CURVE SMOOTH",
"729 624 OFFCURVE",
"721 646 OFFCURVE",
"675 646 CURVE SMOOTH"
);
},
{
closed = 1;
nodes = (
"208 385 CURVE SMOOTH",
"251 385 OFFCURVE",
"284 361 OFFCURVE",
"306 334 CURVE",
"289 307 OFFCURVE",
"279 277 OFFCURVE",
"279 248 CURVE SMOOTH",
"279 211 OFFCURVE",
"300 183 OFFCURVE",
"331 183 CURVE SMOOTH",
"369 183 OFFCURVE",
"380 222 OFFCURVE",
"380 248 CURVE SMOOTH",
"380 352 OFFCURVE",
"273 436 OFFCURVE",
"190 436 CURVE SMOOTH",
"114 436 OFFCURVE",
"45 388 OFFCURVE",
"45 281 CURVE SMOOTH",
"45 152 OFFCURVE",
"157 13 OFFCURVE",
"196 13 CURVE SMOOTH",
"206 13 OFFCURVE",
"211 19 OFFCURVE",
"213 25 CURVE",
"147 88 OFFCURVE",
"100 172 OFFCURVE",
"100 259 CURVE SMOOTH",
"100 323 OFFCURVE",
"133 385 OFFCURVE"
);
}
);
width = 702;
}
);
unicode = 090C;
},
{
glyphname = dvE;
layers = (
{
anchors = (
{
name = abvm.bindu;
position = "{256, 646}";
}
);
layerId = "7E8129F4-1E15-4123-8D26-95A3779BF9A9";
name = Light;
paths = (
{
closed = 1;
nodes = (
"413 -27 CURVE",
"413 -35 OFFCURVE",
"423 -63 OFFCURVE",
"456 -63 CURVE SMOOTH",
"494 -63 OFFCURVE",
"510 -31 OFFCURVE",
"510 -4 CURVE SMOOTH",
"510 142 OFFCURVE",
"150 173 OFFCURVE",
"150 326 CURVE SMOOTH",
"150 391 OFFCURVE",
"152 453 OFFCURVE",
"152 515 CURVE SMOOTH",
"152 554 OFFCURVE",
"148 600 OFFCURVE",
"111 600 CURVE SMOOTH",
"100 600 OFFCURVE",
"94 598 OFFCURVE",
"89 595 CURVE",
"97 583 OFFCURVE",
"99 547 OFFCURVE",
"99 513 CURVE SMOOTH",
"99 451 OFFCURVE",
"97 392 OFFCURVE",
"97 335 CURVE SMOOTH",
"97 160 OFFCURVE",
"456 119 OFFCURVE",
"456 12 CURVE SMOOTH",
"456 -16 OFFCURVE",
"431 -27 OFFCURVE"
);
},
{
closed = 1;
nodes = (
"-37 646 LINE",
"-38 644 OFFCURVE",
"-39 638 OFFCURVE",
"-39 633 CURVE SMOOTH",
"-39 617 OFFCURVE",
"-31 595 OFFCURVE",
"15 595 CURVE SMOOTH",
"582 595 LINE",
"583 597 OFFCURVE",
"584 603 OFFCURVE",
"584 608 CURVE SMOOTH",
"584 624 OFFCURVE",
"576 646 OFFCURVE",
"530 646 CURVE SMOOTH"
);
},
{
closed = 1;
nodes = (
"310 349 CURVE",
"310 313 OFFCURVE",
"346 291 OFFCURVE",
"385 291 CURVE SMOOTH",
"431 291 OFFCURVE",
"482 323 OFFCURVE",
"482 401 CURVE SMOOTH",
"482 467 OFFCURVE",
"461 531 OFFCURVE",
"429 596 CURVE",
"394 598 LINE",
"410 565 OFFCURVE",
"432 492 OFFCURVE",
"432 432 CURVE SMOOTH",
"432 368 OFFCURVE",
"398 339 OFFCURVE",
"356 339 CURVE SMOOTH",
"341 339 OFFCURVE",
"326 342 OFFCURVE"
);
}
);
width = 557;
}
);
unicode = 090F;
},
{
glyphname = dvmEcandra;
layers = (
{
anchors = (
{
name = _abvm.bindu;
position = "{-170, 646}";
}
);
layerId = "7E8129F4-1E15-4123-8D26-95A3779BF9A9";
name = Light;
paths = (
{
closed = 1;
nodes = (
"-324 894 CURVE",
"-335 890 OFFCURVE",
"-337 882 OFFCURVE",
"-337 876 CURVE SMOOTH",
"-337 843 OFFCURVE",
"-251 768 OFFCURVE",
"-136 768 CURVE SMOOTH",
"-51 768 OFFCURVE",
"27 804 OFFCURVE",
"27 858 CURVE SMOOTH",
"27 877 OFFCURVE",
"14 892 OFFCURVE",
"-5 896 CURVE",
"-34 838 OFFCURVE",
"-100 813 OFFCURVE",
"-161 813 CURVE SMOOTH",
"-225 813 OFFCURVE",
"-283 839 OFFCURVE"
);
}
);
width = 0;
}
);
unicode = 0945;
},
{
glyphname = dvmE;
layers = (
{
anchors = (
{
name = _abvm.e;
position = "{-107, 646}";
}
);
layerId = "7E8129F4-1E15-4123-8D26-95A3779BF9A9";
name = Light;
paths = (
{
closed = 1;
nodes = (
"-149 624 CURVE",
"-138 624 OFFCURVE",
"-130 629 OFFCURVE",
"-130 644 CURVE SMOOTH",
"-130 670 OFFCURVE",
"-228 896 OFFCURVE",
"-349 896 CURVE SMOOTH",
"-384 896 OFFCURVE",
"-410 874 OFFCURVE",
"-410 844 CURVE SMOOTH",
"-410 824 OFFCURVE",
"-397 804 OFFCURVE",
"-375 799 CURVE",
"-365 825 OFFCURVE",
"-343 835 OFFCURVE",
"-325 835 CURVE SMOOTH",
"-248 835 OFFCURVE",
"-170 682 OFFCURVE"
);
}
);
width = 0;
}
);
unicode = 0947;
},
{
glyphname = dvmAI;
layers = (
{
anchors = (
{
name = _abvm.e;
position = "{-107, 646}";
}
);
layerId = "7E8129F4-1E15-4123-8D26-95A3779BF9A9";
name = Light;
paths = (
{
closed = 1;
nodes = (
"-147 651 CURVE",
"-142 658 LINE",
"-190 725 OFFCURVE",
"-281 816 OFFCURVE",
"-369 816 CURVE SMOOTH",
"-407 816 OFFCURVE",
"-439 794 OFFCURVE",
"-439 759 CURVE SMOOTH",
"-439 730 OFFCURVE",
"-417 710 OFFCURVE",
"-395 710 CURVE",
"-389 745 OFFCURVE",
"-369 763 OFFCURVE",
"-338 763 CURVE SMOOTH",
"-269 763 OFFCURVE",
"-188 675 OFFCURVE",
"-148 624 CURVE",
"-125 627 OFFCURVE",
"-123 645 OFFCURVE",
"-123 663 CURVE SMOOTH",
"-123 752 OFFCURVE",
"-168 946 OFFCURVE",
"-277 946 CURVE SMOOTH",
"-306 946 OFFCURVE",
"-332 925 OFFCURVE",
"-332 897 CURVE SMOOTH",
"-332 882 OFFCURVE",
"-324 868 OFFCURVE",
"-308 860 CURVE",
"-301 876 OFFCURVE",
"-284 884 OFFCURVE",
"-271 884 CURVE SMOOTH",
"-191 884 OFFCURVE",
"-155 729 OFFCURVE"
);
}
);
width = 0;
}
);
unicode = 0948;
},
{
glyphname = dvKA;
layers = (
{
anchors = (
{
name = abvm.bindu;
position = "{328, 646}";
},
{
name = abvm.e;
position = "{391, 646}";
},
{
name = blwm.r;
position = "{397, -1}";
},
{
name = blwm.u;
position = "{397, -1}";
},
{
name = blwm.uu;
position = "{397, -4}";
},
{
name = blwm.virama;
position = "{397, -15}";
}
);
layerId = "7E8129F4-1E15-4123-8D26-95A3779BF9A9";
name = Light;
paths = (
{
closed = 1;
nodes = (
"344 326 LINE",
"318 241 OFFCURVE",
"258 202 OFFCURVE",
"203 202 CURVE SMOOTH",
"144 202 OFFCURVE",
"91 243 OFFCURVE",
"91 309 CURVE SMOOTH",
"91 362 OFFCURVE",
"130 419 OFFCURVE",
"210 419 CURVE SMOOTH",
"222 419 OFFCURVE",
"234 417 OFFCURVE",
"248 414 CURVE",
"250 419 OFFCURVE",
"251 423 OFFCURVE",
"251 428 CURVE SMOOTH",
"251 453 OFFCURVE",
"222 471 OFFCURVE",
"188 471 CURVE SMOOTH",
"100 471 OFFCURVE",
"44 408 OFFCURVE",
"44 338 CURVE SMOOTH",
"44 242 OFFCURVE",
"130 153 OFFCURVE",
"219 153 CURVE SMOOTH",
"289 153 OFFCURVE",
"332 194 OFFCURVE",
"351 241 CURVE",
"343 237 LINE",
"337 183 OFFCURVE",
"334 130 OFFCURVE",
"334 78 CURVE SMOOTH",
"334 38 OFFCURVE",
"339 -5 OFFCURVE",
"380 -5 CURVE SMOOTH",
"384 -5 OFFCURVE",
"391 -4 OFFCURVE",
"397 -1 CURVE",
"389 11 OFFCURVE",
"387 46 OFFCURVE",
"387 80 CURVE SMOOTH",
"387 170 OFFCURVE",
"388 261 OFFCURVE",
"389 342 CURVE",
"379 282 LINE",
"404 373 OFFCURVE",
"465 414 OFFCURVE",
"522 414 CURVE SMOOTH",
"581 414 OFFCURVE",
"634 373 OFFCURVE",
"634 307 CURVE SMOOTH",
"634 254 OFFCURVE",
"595 197 OFFCURVE",
"515 197 CURVE SMOOTH",
"503 197 OFFCURVE",
"491 199 OFFCURVE",
"477 202 CURVE",
"475 197 OFFCURVE",
"474 193 OFFCURVE",
"474 188 CURVE SMOOTH",
"474 163 OFFCURVE",
"503 145 OFFCURVE",
"537 145 CURVE SMOOTH",
"625 145 OFFCURVE",
"681 208 OFFCURVE",
"681 278 CURVE SMOOTH",
"681 374 OFFCURVE",
"595 463 OFFCURVE",
"506 463 CURVE SMOOTH",
"441 463 OFFCURVE",
"394 422 OFFCURVE",
"372 372 CURVE",
"382 360 LINE",
"391 416 OFFCURVE",
"391 465 OFFCURVE",
"391 515 CURVE SMOOTH",
"391 554 OFFCURVE",
"387 600 OFFCURVE",
"350 600 CURVE SMOOTH",
"339 600 OFFCURVE",
"333 598 OFFCURVE",
"328 595 CURVE",
"336 583 OFFCURVE",
"338 547 OFFCURVE",
"338 513 CURVE SMOOTH",
"338 432 OFFCURVE",
"337 356 OFFCURVE",
"336 283 CURVE"
);
},
{
closed = 1;
nodes = (
"-33 646 LINE",
"-34 644 OFFCURVE",
"-35 638 OFFCURVE",
"-35 633 CURVE SMOOTH",
"-35 617 OFFCURVE",
"-27 595 OFFCURVE",
"19 595 CURVE SMOOTH",
"759 595 LINE",
"760 597 OFFCURVE",
"761 603 OFFCURVE",
"761 608 CURVE SMOOTH",
"761 624 OFFCURVE",
"753 646 OFFCURVE",
"707 646 CURVE SMOOTH"
);
}
);
width = 731;
}
);
unicode = 0915;
},
{
glyphname = dvKHA;
layers = (
{
layerId = "7E8129F4-1E15-4123-8D26-95A3779BF9A9";
name = Light;
paths = (
{
closed = 1;
nodes = (
"-37 646 LINE",
"-38 644 OFFCURVE",
"-39 638 OFFCURVE",
"-39 633 CURVE SMOOTH",
"-39 617 OFFCURVE",
"-31 595 OFFCURVE",
"15 595 CURVE SMOOTH",
"796 595 LINE",
"797 597 OFFCURVE",
"798 603 OFFCURVE",
"798 608 CURVE SMOOTH",
"798 624 OFFCURVE",
"790 646 OFFCURVE",
"744 646 CURVE SMOOTH"
);
},
{
closed = 1;
nodes = (
"625 403 LINE",
"599 456 OFFCURVE",
"547 490 OFFCURVE",
"492 490 CURVE SMOOTH",
"413 490 OFFCURVE",
"362 430 OFFCURVE",
"362 363 CURVE SMOOTH",
"362 277 OFFCURVE",
"433 213 OFFCURVE",
"476 213 CURVE SMOOTH",
"487 213 OFFCURVE",
"493 220 OFFCURVE",
"494 226 CURVE",
"448 250 OFFCURVE",
"416 294 OFFCURVE",
"416 345 CURVE SMOOTH",
"416 392 OFFCURVE",
"444 445 OFFCURVE",
"508 445 CURVE SMOOTH",
"576 445 OFFCURVE",
"611 381 OFFCURVE",
"611 322 CURVE SMOOTH",
"611 206 OFFCURVE",
"511 115 OFFCURVE",
"370 115 CURVE SMOOTH",
"254 115 OFFCURVE",
"159 182 OFFCURVE",
"130 281 CURVE",
"90 283 LINE",
"137 147 OFFCURVE",
"251 65 OFFCURVE",
"388 65 CURVE SMOOTH",
"511 65 OFFCURVE",
"593 126 OFFCURVE",
"632 208 CURVE",
"617 193 LINE",
"608 146 OFFCURVE",
"607 116 OFFCURVE",
"607 78 CURVE SMOOTH",
"607 38 OFFCURVE",
"612 -5 OFFCURVE",
"653 -5 CURVE SMOOTH",
"657 -5 OFFCURVE",
"664 -4 OFFCURVE",
"670 -1 CURVE",
"662 11 OFFCURVE",
"660 46 OFFCURVE",
"660 80 CURVE SMOOTH",
"660 238 OFFCURVE",
"664 378 OFFCURVE",
"664 515 CURVE SMOOTH",
"664 554 OFFCURVE",
"660 600 OFFCURVE",
"623 600 CURVE SMOOTH",
"612 600 OFFCURVE",
"606 598 OFFCURVE",
"601 595 CURVE",
"609 583 OFFCURVE",
"611 547 OFFCURVE",
"611 513 CURVE SMOOTH",
"611 479 OFFCURVE",
"611 428 OFFCURVE",
"610 391 CURVE"
);
},
{
closed = 1;
nodes = (
"128 295 LINE",
"124 332 OFFCURVE",
"116 405 OFFCURVE",
"65 405 CURVE SMOOTH",
"42 405 OFFCURVE",
"25 388 OFFCURVE",
"25 360 CURVE SMOOTH",
"25 308 OFFCURVE",
"82 271 OFFCURVE",
"133 271 CURVE SMOOTH",
"222 271 OFFCURVE",
"282 341 OFFCURVE",
"282 426 CURVE SMOOTH",
"282 489 OFFCURVE",
"257 553 OFFCURVE",
"222 599 CURVE",
"183 599 LINE",
"216 560 OFFCURVE",
"234 508 OFFCURVE",
"234 456 CURVE SMOOTH",
"234 379 OFFCURVE",
"195 328 OFFCURVE",
"120 325 CURVE"
);
}
);
width = 771;
}
);
unicode = 0916;
},
{
glyphname = dvGA;
layers = (
{
layerId = "7E8129F4-1E15-4123-8D26-95A3779BF9A9";
name = Light;
paths = (
{
closed = 1;
nodes = (
"-37 646 LINE",
"-38 644 OFFCURVE",
"-39 638 OFFCURVE",
"-39 633 CURVE SMOOTH",
"-39 617 OFFCURVE",
"-31 595 OFFCURVE",
"15 595 CURVE SMOOTH",
"580 595 LINE",
"581 597 OFFCURVE",
"582 603 OFFCURVE",
"582 608 CURVE SMOOTH",
"582 624 OFFCURVE",
"574 646 OFFCURVE",
"528 646 CURVE SMOOTH"
);
},
{
closed = 1;
nodes = (
"395 513 CURVE SMOOTH",
"395 355 OFFCURVE",
"391 215 OFFCURVE",
"391 78 CURVE SMOOTH",
"391 38 OFFCURVE",
"396 -5 OFFCURVE",
"437 -5 CURVE SMOOTH",
"441 -5 OFFCURVE",
"448 -4 OFFCURVE",
"454 -1 CURVE",
"446 11 OFFCURVE",
"444 46 OFFCURVE",
"444 80 CURVE SMOOTH",
"444 238 OFFCURVE",
"448 378 OFFCURVE",
"448 515 CURVE SMOOTH",
"448 554 OFFCURVE",
"444 600 OFFCURVE",
"407 600 CURVE SMOOTH",
"396 600 OFFCURVE",
"390 598 OFFCURVE",
"385 595 CURVE",
"393 583 OFFCURVE",
"395 547 OFFCURVE"
);
},
{
closed = 1;
nodes = (
"87 598 LINE",
"135 551 OFFCURVE",
"177 455 OFFCURVE",
"177 372 CURVE SMOOTH",
"177 342 OFFCURVE",
"172 314 OFFCURVE",
"159 291 CURVE",
"150 323 OFFCURVE",
"122 341 OFFCURVE",
"99 341 CURVE SMOOTH",
"73 341 OFFCURVE",
"56 323 OFFCURVE",
"56 298 CURVE SMOOTH",
"56 254 OFFCURVE",
"102 219 OFFCURVE",
"142 219 CURVE SMOOTH",
"205 219 OFFCURVE",
"229 270 OFFCURVE",
"229 336 CURVE SMOOTH",
"229 430 OFFCURVE",
"188 542 OFFCURVE",
"124 609 CURVE"
);
}
);
width = 555;
}
);
unicode = 0917;
},
{
glyphname = dvGHA;
layers = (
{
layerId = "7E8129F4-1E15-4123-8D26-95A3779BF9A9";
name = Light;
paths = (
{
closed = 1;
nodes = (
"454 296 LINE",
"421 220 OFFCURVE",
"346 171 OFFCURVE",
"266 171 CURVE SMOOTH",
"195 171 OFFCURVE",
"135 213 OFFCURVE",
"135 283 CURVE SMOOTH",
"135 341 OFFCURVE",
"178 371 OFFCURVE",
"211 377 CURVE",
"142 396 OFFCURVE",
"115 447 OFFCURVE",
"115 497 CURVE SMOOTH",
"115 546 OFFCURVE",
"136 586 OFFCURVE",
"169 608 CURVE",
"134 595 LINE",
"632 595 LINE",
"633 597 OFFCURVE",
"634 603 OFFCURVE",
"634 608 CURVE SMOOTH",
"634 624 OFFCURVE",
"626 646 OFFCURVE",
"580 646 CURVE SMOOTH",
"-37 646 LINE",
"-38 644 OFFCURVE",
"-39 638 OFFCURVE",
"-39 633 CURVE SMOOTH",
"-39 617 OFFCURVE",
"-31 595 OFFCURVE",
"15 595 CURVE SMOOTH",
"62 595 OFFCURVE",
"88 598 OFFCURVE",
"111 601 CURVE",
"100 607 LINE",
"77 576 OFFCURVE",
"68 542 OFFCURVE",
"68 511 CURVE SMOOTH",
"68 421 OFFCURVE",
"149 346 OFFCURVE",
"235 346 CURVE SMOOTH",
"260 346 OFFCURVE",
"293 358 OFFCURVE",
"293 391 CURVE SMOOTH",
"293 423 OFFCURVE",
"257 438 OFFCURVE",
"227 438 CURVE SMOOTH",
"160 438 OFFCURVE",
"86 391 OFFCURVE",
"86 300 CURVE SMOOTH",
"86 220 OFFCURVE",
"180 122 OFFCURVE",
"291 122 CURVE SMOOTH",
"378 122 OFFCURVE",
"453 168 OFFCURVE",
"481 253 CURVE",
"452 214 LINE",
"443 168 OFFCURVE",
"443 91 OFFCURVE",
"443 78 CURVE SMOOTH",
"443 38 OFFCURVE",
"448 -5 OFFCURVE",
"489 -5 CURVE SMOOTH",
"493 -5 OFFCURVE",
"500 -4 OFFCURVE",
"506 -1 CURVE",
"498 11 OFFCURVE",
"496 46 OFFCURVE",
"496 80 CURVE SMOOTH",
"496 238 OFFCURVE",
"500 378 OFFCURVE",
"500 515 CURVE SMOOTH",
"500 554 OFFCURVE",
"496 600 OFFCURVE",
"459 600 CURVE SMOOTH",
"448 600 OFFCURVE",
"442 598 OFFCURVE",
"437 595 CURVE",
"445 583 OFFCURVE",
"447 547 OFFCURVE",
"447 513 CURVE SMOOTH",
"447 418 OFFCURVE",
"445 329 OFFCURVE",
"444 244 CURVE"
);
}
);
width = 607;
}
);
unicode = 0918;
},
{
glyphname = dvNGA;
layers = (
{
anchors = (
{
name = abvm.bindu;
position = "{236, 646}";
},
{
name = abvm.e;
position = "{336, 646}";
},
{
name = blwm.r;
position = "{308, -19}";
},
{
name = blwm.u;
position = "{285, 6}";
},
{
name = blwm.uu;
position = "{259, 6}";
},
{
name = blwm.virama;
position = "{278, 41}";
}
);
layerId = "7E8129F4-1E15-4123-8D26-95A3779BF9A9";
name = Light;
paths = (
{
closed = 1;
nodes = (
"-37 646 LINE",
"-38 644 OFFCURVE",
"-39 638 OFFCURVE",
"-39 633 CURVE SMOOTH",
"-39 617 OFFCURVE",
"-31 595 OFFCURVE",
"15 595 CURVE SMOOTH",
"540 595 LINE",
"541 597 OFFCURVE",
"542 603 OFFCURVE",
"542 608 CURVE SMOOTH",
"542 624 OFFCURVE",
"534 646 OFFCURVE",
"488 646 CURVE SMOOTH"
);
},
{
closed = 1;
nodes = (
"282 597 LINE",
"302 583 OFFCURVE",
"318 558 OFFCURVE",
"318 537 CURVE SMOOTH",
"318 515 OFFCURVE",
"304 496 OFFCURVE",
"267 496 CURVE SMOOTH",
"236 496 OFFCURVE",
"211 497 OFFCURVE",
"188 497 CURVE SMOOTH",
"113 497 OFFCURVE",
"64 461 OFFCURVE",
"64 396 CURVE SMOOTH",
"64 314 OFFCURVE",
"159 258 OFFCURVE",
"226 258 CURVE SMOOTH",
"250 258 OFFCURVE",
"281 263 OFFCURVE",
"309 263 CURVE SMOOTH",
"356 263 OFFCURVE",
"382 234 OFFCURVE",
"382 195 CURVE SMOOTH",
"382 130 OFFCURVE",
"311 103 OFFCURVE",
"249 103 CURVE SMOOTH",
"154 103 OFFCURVE",
"77 144 OFFCURVE",
"27 211 CURVE",
"21 209 OFFCURVE",
"13 205 OFFCURVE",
"13 192 CURVE SMOOTH",
"13 151 OFFCURVE",
"128 51 OFFCURVE",
"274 51 CURVE SMOOTH",
"366 51 OFFCURVE",
"431 104 OFFCURVE",
"431 169 CURVE SMOOTH",
"431 236 OFFCURVE",
"368 315 OFFCURVE",
"276 315 CURVE SMOOTH",
"247 315 OFFCURVE",
"221 311 OFFCURVE",
"196 311 CURVE SMOOTH",
"145 311 OFFCURVE",
"112 335 OFFCURVE",
"112 377 CURVE SMOOTH",
"112 431 OFFCURVE",
"165 447 OFFCURVE",
"206 447 CURVE SMOOTH",
"231 447 OFFCURVE",
"249 446 OFFCURVE",
"266 446 CURVE SMOOTH",
"352 446 OFFCURVE",
"369 490 OFFCURVE",
"369 516 CURVE SMOOTH",
"369 549 OFFCURVE",
"351 577 OFFCURVE",
"324 600 CURVE"
);
},
{
closed = 1;
nodes = (
"462 336 CURVE SMOOTH",
"487 336 OFFCURVE",
"504 354 OFFCURVE",
"504 378 CURVE SMOOTH",
"504 408 OFFCURVE",
"475 436 OFFCURVE",
"446 436 CURVE SMOOTH",
"421 436 OFFCURVE",
"404 418 OFFCURVE",
"404 394 CURVE SMOOTH",
"404 364 OFFCURVE",
"432 336 OFFCURVE"
);
}
);
width = 515;
}
);
unicode = 0919;
},
{
glyphname = dvCA;
layers = (
{
layerId = "7E8129F4-1E15-4123-8D26-95A3779BF9A9";
name = Light;
paths = (
{
closed = 1;
nodes = (
"-58 646 LINE",
"-59 644 OFFCURVE",
"-60 638 OFFCURVE",
"-60 633 CURVE SMOOTH",
"-60 617 OFFCURVE",
"-52 595 OFFCURVE",
"-6 595 CURVE SMOOTH",
"615 595 LINE",
"616 597 OFFCURVE",
"617 603 OFFCURVE",
"617 608 CURVE SMOOTH",
"617 624 OFFCURVE",
"609 646 OFFCURVE",
"563 646 CURVE SMOOTH"
);
},
{
closed = 1;
nodes = (
"443 356 LINE",
"423 241 OFFCURVE",
"345 194 OFFCURVE",
"276 194 CURVE SMOOTH",
"212 194 OFFCURVE",
"154 235 OFFCURVE",
"154 300 CURVE SMOOTH",
"154 355 OFFCURVE",
"198 412 OFFCURVE",
"281 412 CURVE SMOOTH",
"322 412 LINE",
"323 414 OFFCURVE",
"325 420 OFFCURVE",
"325 424 CURVE SMOOTH",
"325 463 OFFCURVE",
"287 463 OFFCURVE",
"271 463 CURVE SMOOTH",
"-1 463 LINE",
"-2 461 OFFCURVE",
"-3 455 OFFCURVE",
"-3 452 CURVE SMOOTH",
"-3 413 OFFCURVE",
"40 412 OFFCURVE",
"67 412 CURVE SMOOTH",
"99 412 OFFCURVE",
"148 416 OFFCURVE",
"185 422 CURVE",
"202 437 LINE",
"140 419 OFFCURVE",
"109 372 OFFCURVE",
"109 325 CURVE SMOOTH",
"109 219 OFFCURVE",
"209 147 OFFCURVE",
"306 147 CURVE SMOOTH",
"361 147 OFFCURVE",
"425 179 OFFCURVE",
"447 238 CURVE",
"435 228 LINE",
"428 177 OFFCURVE",
"426 127 OFFCURVE",
"426 78 CURVE SMOOTH",
"426 38 OFFCURVE",
"431 -5 OFFCURVE",
"472 -5 CURVE SMOOTH",
"472 -5 OFFCURVE",
"489 -4 OFFCURVE",
"489 -1 CURVE",
"481 11 OFFCURVE",
"479 46 OFFCURVE",
"479 80 CURVE SMOOTH",
"479 238 OFFCURVE",
"483 378 OFFCURVE",
"483 515 CURVE SMOOTH",
"483 554 OFFCURVE",
"479 600 OFFCURVE",
"442 600 CURVE SMOOTH",
"431 600 OFFCURVE",
"425 598 OFFCURVE",
"420 595 CURVE",
"427 583 OFFCURVE",
"430 547 OFFCURVE",
"430 513 CURVE SMOOTH",
"430 421 OFFCURVE",
"428 335 OFFCURVE",
"427 252 CURVE"
);
}
);
width = 590;
}
);
unicode = 091A;
},
{
glyphname = dvCHA;
layers = (
{
anchors = (
{
name = abvm.bindu;
position = "{317, 646}";
},
{
name = abvm.e;
position = "{494, 646}";
},
{
name = blwm.r;
position = "{397, 2}";
},
{
name = blwm.u;
position = "{397, 27}";
},
{
name = blwm.uu;
position = "{331, 27}";
},
{
name = blwm.virama;
position = "{358, 62}";
}
);
layerId = "7E8129F4-1E15-4123-8D26-95A3779BF9A9";
name = Light;
paths = (
{
closed = 1;
nodes = (
"494 515 LINE",
"494 554 OFFCURVE",
"490 600 OFFCURVE",
"453 600 CURVE SMOOTH",
"442 600 OFFCURVE",
"436 598 OFFCURVE",
"431 595 CURVE",
"439 583 OFFCURVE",
"441 547 OFFCURVE",
"441 513 CURVE"
);
},
{
closed = 1;
nodes = (
"178 595 LINE",
"672 595 LINE",
"673 597 OFFCURVE",
"674 603 OFFCURVE",
"674 608 CURVE SMOOTH",
"674 624 OFFCURVE",
"666 646 OFFCURVE",
"620 646 CURVE SMOOTH",
"-35 646 LINE",
"-36 644 OFFCURVE",
"-37 638 OFFCURVE",
"-37 633 CURVE SMOOTH",
"-37 617 OFFCURVE",
"-29 595 OFFCURVE",
"17 595 CURVE SMOOTH",
"42 595 OFFCURVE",
"69 595 OFFCURVE",
"135 600 CURVE",
"119 604 LINE",
"83 574 OFFCURVE",
"70 530 OFFCURVE",
"70 493 CURVE SMOOTH",
"70 397 OFFCURVE",
"148 321 OFFCURVE",
"231 321 CURVE SMOOTH",
"255 321 OFFCURVE",
"286 333 OFFCURVE",
"286 365 CURVE SMOOTH",
"286 398 OFFCURVE",
"248 413 OFFCURVE",
"216 413 CURVE SMOOTH",
"150 413 OFFCURVE",
"72 365 OFFCURVE",
"72 271 CURVE SMOOTH",
"72 156 OFFCURVE",
"204 72 OFFCURVE",
"322 72 CURVE SMOOTH",
"480 72 OFFCURVE",
"598 188 OFFCURVE",
"598 349 CURVE SMOOTH",
"598 433 OFFCURVE",
"544 524 OFFCURVE",
"451 524 CURVE SMOOTH",
"389 524 OFFCURVE",
"352 467 OFFCURVE",
"352 413 CURVE SMOOTH",
"352 330 OFFCURVE",
"411 260 OFFCURVE",
"444 260 CURVE SMOOTH",
"452 260 OFFCURVE",
"457 264 OFFCURVE",
"460 269 CURVE",
"435 295 OFFCURVE",
"404 335 OFFCURVE",
"404 389 CURVE SMOOTH",
"404 439 OFFCURVE",
"430 480 OFFCURVE",
"475 480 CURVE SMOOTH",
"523 480 OFFCURVE",
"550 431 OFFCURVE",
"550 369 CURVE SMOOTH",
"550 264 OFFCURVE",
"472 121 OFFCURVE",
"289 121 CURVE SMOOTH",
"202 121 OFFCURVE",
"121 171 OFFCURVE",
"121 255 CURVE SMOOTH",
"121 314 OFFCURVE",
"169 351 OFFCURVE",
"208 351 CURVE",
"143 370 OFFCURVE",
"119 423 OFFCURVE",
"119 475 CURVE SMOOTH",
"119 532 OFFCURVE",
"149 575 OFFCURVE",
"199 600 CURVE"
);
}
);
width = 647;
}
);
unicode = 091B;
},
{
glyphname = dvJA;
layers = (
{
layerId = "7E8129F4-1E15-4123-8D26-95A3779BF9A9";
name = Light;
paths = (
{
closed = 1;
nodes = (
"-37 646 LINE",
"-38 644 OFFCURVE",
"-39 638 OFFCURVE",
"-39 633 CURVE SMOOTH",
"-39 617 OFFCURVE",
"-31 595 OFFCURVE",
"15 595 CURVE SMOOTH",
"690 595 LINE",
"691 597 OFFCURVE",
"692 603 OFFCURVE",
"692 608 CURVE SMOOTH",
"692 624 OFFCURVE",
"684 646 OFFCURVE",
"638 646 CURVE SMOOTH"
);
},
{
closed = 1;
nodes = (
"505 513 CURVE SMOOTH",
"505 355 OFFCURVE",
"501 215 OFFCURVE",
"501 78 CURVE SMOOTH",
"501 38 OFFCURVE",
"506 -5 OFFCURVE",
"547 -5 CURVE SMOOTH",
"551 -5 OFFCURVE",
"558 -4 OFFCURVE",
"564 -1 CURVE",
"556 11 OFFCURVE",
"554 46 OFFCURVE",
"554 80 CURVE SMOOTH",
"554 238 OFFCURVE",
"558 378 OFFCURVE",
"558 515 CURVE SMOOTH",
"558 554 OFFCURVE",
"554 600 OFFCURVE",
"517 600 CURVE SMOOTH",
"506 600 OFFCURVE",
"500 598 OFFCURVE",
"495 595 CURVE",
"503 583 OFFCURVE",
"505 547 OFFCURVE"
);
},
{
closed = 1;
nodes = (
"535 437 LINE",
"174 437 LINE",
"173 435 OFFCURVE",
"172 429 OFFCURVE",
"172 424 CURVE SMOOTH",
"172 408 OFFCURVE",
"180 386 OFFCURVE",
"226 386 CURVE SMOOTH",
"535 386 LINE"
);
},
{
closed = 1;
nodes = (
"239 402 LINE",
"284 366 OFFCURVE",
"321 312 OFFCURVE",
"321 255 CURVE SMOOTH",
"321 209 OFFCURVE",
"288 176 OFFCURVE",
"242 176 CURVE SMOOTH",
"125 176 OFFCURVE",
"61 339 OFFCURVE",
"35 427 CURVE",
"27 427 OFFCURVE",
"15 423 OFFCURVE",
"15 406 CURVE SMOOTH",
"15 356 OFFCURVE",
"96 124 OFFCURVE",
"255 124 CURVE SMOOTH",
"318 124 OFFCURVE",
"372 165 OFFCURVE",
"372 239 CURVE SMOOTH",
"372 323 OFFCURVE",
"301 388 OFFCURVE",
"283 402 CURVE"
);
}
);
width = 665;
}
);
unicode = 091C;
},
{
glyphname = dvJHA;
layers = (
{
layerId = "7E8129F4-1E15-4123-8D26-95A3779BF9A9";
name = Light;
paths = (
{
closed = 1;
nodes = (
"-37 646 LINE",
"-38 644 OFFCURVE",
"-39 638 OFFCURVE",
"-39 633 CURVE SMOOTH",
"-39 617 OFFCURVE",
"-31 595 OFFCURVE",
"15 595 CURVE SMOOTH",
"760 595 LINE",
"761 597 OFFCURVE",
"762 603 OFFCURVE",
"762 608 CURVE SMOOTH",
"762 624 OFFCURVE",
"754 646 OFFCURVE",
"708 646 CURVE SMOOTH"
);
},
{
closed = 1;
nodes = (
"582 342 LINE",
"557 316 OFFCURVE",
"496 289 OFFCURVE",
"429 289 CURVE SMOOTH",
"356 289 OFFCURVE",
"322 314 OFFCURVE",
"272 314 CURVE SMOOTH",
"248 314 OFFCURVE",
"228 312 OFFCURVE",
"207 312 CURVE SMOOTH",
"151 312 OFFCURVE",
"126 344 OFFCURVE",
"126 373 CURVE SMOOTH",
"126 422 OFFCURVE",
"173 439 OFFCURVE",
"207 439 CURVE SMOOTH",
"225 439 OFFCURVE",
"253 438 OFFCURVE",
"273 438 CURVE SMOOTH",
"346 438 OFFCURVE",
"376 473 OFFCURVE",
"376 511 CURVE SMOOTH",
"376 543 OFFCURVE",
"355 580 OFFCURVE",
"316 605 CURVE",
"270 605 LINE",
"299 590 OFFCURVE",
"325 556 OFFCURVE",
"325 531 CURVE SMOOTH",
"325 498 OFFCURVE",
"295 491 OFFCURVE",
"270 491 CURVE SMOOTH",
"245 491 OFFCURVE",
"225 492 OFFCURVE",
"206 492 CURVE SMOOTH",
"126 492 OFFCURVE",
"74 460 OFFCURVE",
"74 395 CURVE SMOOTH",
"74 328 OFFCURVE",
"164 261 OFFCURVE",
"233 261 CURVE SMOOTH",
"254 261 OFFCURVE",
"278 263 OFFCURVE",
"299 263 CURVE SMOOTH",
"354 263 OFFCURVE",
"384 231 OFFCURVE",
"384 185 CURVE SMOOTH",
"384 115 OFFCURVE",
"307 84 OFFCURVE",
"246 84 CURVE SMOOTH",
"217 84 OFFCURVE",
"178 91 OFFCURVE",
"161 103 CURVE",
"151 154 OFFCURVE",
"127 197 OFFCURVE",
"90 197 CURVE SMOOTH",
"67 197 OFFCURVE",
"51 179 OFFCURVE",
"51 156 CURVE SMOOTH",
"51 74 OFFCURVE",
"176 33 OFFCURVE",
"262 33 CURVE SMOOTH",
"353 33 OFFCURVE",
"434 86 OFFCURVE",
"434 168 CURVE SMOOTH",
"434 212 OFFCURVE",
"413 248 OFFCURVE",
"382 274 CURVE",
"329 273 LINE",
"376 252 OFFCURVE",
"426 244 OFFCURVE",
"468 244 CURVE SMOOTH",
"515 244 OFFCURVE",
"560 258 OFFCURVE",
"585 274 CURVE",
"579 286 LINE",
"572 216 OFFCURVE",
"571 146 OFFCURVE",
"571 78 CURVE SMOOTH",
"571 38 OFFCURVE",
"576 -5 OFFCURVE",
"617 -5 CURVE SMOOTH",
"621 -5 OFFCURVE",
"628 -4 OFFCURVE",
"634 -1 CURVE",
"626 11 OFFCURVE",
"624 46 OFFCURVE",
"624 80 CURVE SMOOTH",
"624 238 OFFCURVE",
"628 378 OFFCURVE",
"628 515 CURVE SMOOTH",
"628 554 OFFCURVE",
"624 600 OFFCURVE",
"587 600 CURVE SMOOTH",
"576 600 OFFCURVE",
"570 598 OFFCURVE",
"565 595 CURVE",
"573 583 OFFCURVE",
"575 547 OFFCURVE",
"575 513 CURVE SMOOTH",
"575 437 OFFCURVE",
"574 365 OFFCURVE",
"573 296 CURVE"
);
},
{
closed = 1;
nodes = (
"123 125 LINE",
"166 -64 OFFCURVE",
"256 -120 OFFCURVE",
"317 -120 CURVE SMOOTH",
"359 -120 OFFCURVE",
"379 -98 OFFCURVE",
"379 -76 CURVE SMOOTH",
"379 -62 OFFCURVE",
"371 -48 OFFCURVE",
"355 -41 CURVE",
"340 -57 OFFCURVE",
"320 -62 OFFCURVE",
"303 -62 CURVE SMOOTH",
"241 -62 OFFCURVE",
"187 11 OFFCURVE",
"161 94 CURVE"
);
}
);
width = 735;
}
);
unicode = 091D;
},
{
glyphname = dvNYA;
layers = (
{
layerId = "7E8129F4-1E15-4123-8D26-95A3779BF9A9";
name = Light;
paths = (
{
closed = 1;
nodes = (
"-37 646 LINE",
"-38 644 OFFCURVE",
"-39 638 OFFCURVE",
"-39 633 CURVE SMOOTH",
"-39 617 OFFCURVE",
"-31 595 OFFCURVE",
"15 595 CURVE SMOOTH",
"699 595 LINE",
"700 597 OFFCURVE",
"701 603 OFFCURVE",
"701 608 CURVE SMOOTH",
"701 624 OFFCURVE",
"693 646 OFFCURVE",
"647 646 CURVE SMOOTH"
);
},
{
closed = 1;
nodes = (
"514 513 CURVE SMOOTH",
"514 355 OFFCURVE",
"510 215 OFFCURVE",
"510 78 CURVE SMOOTH",
"510 38 OFFCURVE",
"515 -5 OFFCURVE",
"556 -5 CURVE SMOOTH",
"560 -5 OFFCURVE",
"567 -4 OFFCURVE",
"573 -1 CURVE",
"565 11 OFFCURVE",
"563 46 OFFCURVE",
"563 80 CURVE SMOOTH",
"563 238 OFFCURVE",
"567 378 OFFCURVE",
"567 515 CURVE SMOOTH",
"567 554 OFFCURVE",
"563 600 OFFCURVE",
"526 600 CURVE SMOOTH",
"515 600 OFFCURVE",
"509 598 OFFCURVE",
"504 595 CURVE",
"512 583 OFFCURVE",
"514 547 OFFCURVE"
);
},
{
closed = 1;
nodes = (
"443 318 CURVE SMOOTH",
"430 318 OFFCURVE",
"417 319 OFFCURVE",
"404 321 CURVE",
"400 287 LINE",
"418 276 OFFCURVE",
"447 271 OFFCURVE",
"473 271 CURVE SMOOTH",
"491 271 OFFCURVE",
"508 273 OFFCURVE",
"519 277 CURVE",
"519 336 LINE",
"502 325 OFFCURVE",
"471 318 OFFCURVE"
);
},
{
closed = 1;
nodes = (
"32 435 CURVE",
"24 435 OFFCURVE",
"13 431 OFFCURVE",
"13 415 CURVE SMOOTH",
"13 376 OFFCURVE",
"107 173 OFFCURVE",
"263 173 CURVE SMOOTH",
"343 173 OFFCURVE",
"411 223 OFFCURVE",
"411 306 CURVE SMOOTH",
"411 401 OFFCURVE",
"341 472 OFFCURVE",
"251 472 CURVE SMOOTH",
"212 472 OFFCURVE",
"172 449 OFFCURVE",
"172 415 CURVE SMOOTH",
"172 383 OFFCURVE",
"202 376 OFFCURVE",
"202 376 CURVE",
"221 410 OFFCURVE",
"247 426 OFFCURVE",
"280 426 CURVE SMOOTH",
"335 426 OFFCURVE",
"366 382 OFFCURVE",
"366 333 CURVE SMOOTH",
"366 281 OFFCURVE",
"329 226 OFFCURVE",
"248 226 CURVE SMOOTH",
"132 226 OFFCURVE",
"68 343 OFFCURVE"
);
}
);
width = 674;
}
);
unicode = 091E;
},
{
glyphname = dvTTA;
layers = (
{
anchors = (
{
name = abvm.bindu;
position = "{222, 646}";
},
{
name = abvm.e;
position = "{296, 646}";
},
{
name = blwm.r;
position = "{285, 11}";
},
{
name = blwm.u;
position = "{285, 36}";
},
{
name = blwm.uu;
position = "{258, 36}";
},
{
name = blwm.virama;
position = "{247, 71}";
}
);
layerId = "7E8129F4-1E15-4123-8D26-95A3779BF9A9";
name = Light;
paths = (
{
closed = 1;
nodes = (
"242 596 LINE",
"259 586 OFFCURVE",
"275 565 OFFCURVE",
"275 542 CURVE SMOOTH",
"275 445 OFFCURVE",
"25 442 OFFCURVE",
"25 266 CURVE SMOOTH",
"25 160 OFFCURVE",
"145 81 OFFCURVE",
"244 81 CURVE SMOOTH",
"337 81 OFFCURVE",
"413 140 OFFCURVE",
"413 200 CURVE SMOOTH",
"413 227 OFFCURVE",
"393 242 OFFCURVE",
"372 242 CURVE",
"359 166 OFFCURVE",
"289 125 OFFCURVE",
"218 125 CURVE SMOOTH",
"145 125 OFFCURVE",
"76 176 OFFCURVE",
"76 249 CURVE SMOOTH",
"76 401 OFFCURVE",
"321 393 OFFCURVE",
"321 521 CURVE SMOOTH",
"321 564 OFFCURVE",
"298 596 OFFCURVE",
"264 616 CURVE"
);
},
{
closed = 1;
nodes = (
"-37 646 LINE",
"-38 644 OFFCURVE",
"-39 638 OFFCURVE",
"-39 633 CURVE SMOOTH",
"-39 617 OFFCURVE",
"-31 595 OFFCURVE",
"15 595 CURVE SMOOTH",
"459 595 LINE",
"460 597 OFFCURVE",
"461 603 OFFCURVE",
"461 608 CURVE SMOOTH",
"461 624 OFFCURVE",
"453 646 OFFCURVE",
"407 646 CURVE SMOOTH"
);
}
);
width = 434;
}
);
unicode = 091F;
},
{
glyphname = dvTTHA;
layers = (
{
anchors = (
{
name = abvm.bindu;
position = "{214, 646}";
},
{
name = abvm.e;
position = "{289, 646}";
},
{
name = blwm.r;
position = "{293, -7}";
},
{
name = blwm.u;
position = "{285, 18}";
},
{
name = blwm.uu;
position = "{259, 18}";
},
{
name = blwm.virama;
position = "{274, 53}";
}
);
layerId = "7E8129F4-1E15-4123-8D26-95A3779BF9A9";
name = Light;
paths = (
{
closed = 1;
nodes = (
"-37 646 LINE",
"-38 644 OFFCURVE",
"-39 638 OFFCURVE",
"-39 633 CURVE SMOOTH",
"-39 617 OFFCURVE",
"-31 595 OFFCURVE",
"15 595 CURVE SMOOTH",
"502 595 LINE",
"503 597 OFFCURVE",
"504 603 OFFCURVE",
"504 608 CURVE SMOOTH",
"504 624 OFFCURVE",
"496 646 OFFCURVE",
"450 646 CURVE SMOOTH"
);
},
{
closed = 1;
nodes = (
"195 410 LINE",
"315 401 OFFCURVE",
"384 333 OFFCURVE",
"384 251 CURVE SMOOTH",
"384 165 OFFCURVE",
"306 108 OFFCURVE",
"225 108 CURVE SMOOTH",
"150 108 OFFCURVE",
"76 158 OFFCURVE",
"76 241 CURVE SMOOTH",
"76 404 OFFCURVE",
"310 393 OFFCURVE",
"310 521 CURVE SMOOTH",
"310 564 OFFCURVE",
"285 595 OFFCURVE",
"252 616 CURVE",
"231 596 LINE",
"248 586 OFFCURVE",
"264 565 OFFCURVE",
"264 542 CURVE SMOOTH",
"264 448 OFFCURVE",
"25 437 OFFCURVE",
"25 266 CURVE SMOOTH",
"25 147 OFFCURVE",
"143 63 OFFCURVE",
"246 63 CURVE SMOOTH",
"355 63 OFFCURVE",
"435 134 OFFCURVE",
"435 233 CURVE SMOOTH",
"435 321 OFFCURVE",
"364 415 OFFCURVE",
"235 437 CURVE"
);
}
);
width = 477;
}
);
unicode = 0920;
},
{
glyphname = dvDDA;
layers = (
{
anchors = (
{
name = abvm.bindu;
position = "{236, 646}";
},
{
name = abvm.e;
position = "{336, 646}";
},
{
name = blwm.r;
position = "{307, -19}";
},
{
name = blwm.u;
position = "{285, 6}";
},
{
name = blwm.uu;
position = "{259, 6}";
},
{
name = blwm.virama;
position = "{278, 41}";
}
);
layerId = "7E8129F4-1E15-4123-8D26-95A3779BF9A9";
name = Light;
paths = (
{
closed = 1;
nodes = (
"282 597 LINE",
"302 583 OFFCURVE",
"318 558 OFFCURVE",
"318 537 CURVE SMOOTH",
"318 515 OFFCURVE",
"304 496 OFFCURVE",
"267 496 CURVE SMOOTH",
"236 496 OFFCURVE",
"211 497 OFFCURVE",
"188 497 CURVE SMOOTH",
"113 497 OFFCURVE",
"64 461 OFFCURVE",
"64 396 CURVE SMOOTH",
"64 314 OFFCURVE",
"159 258 OFFCURVE",
"226 258 CURVE SMOOTH",
"250 258 OFFCURVE",
"281 263 OFFCURVE",
"309 263 CURVE SMOOTH",
"356 263 OFFCURVE",
"382 234 OFFCURVE",
"382 195 CURVE SMOOTH",
"382 130 OFFCURVE",
"311 103 OFFCURVE",
"249 103 CURVE SMOOTH",
"154 103 OFFCURVE",
"77 144 OFFCURVE",
"27 211 CURVE",
"21 209 OFFCURVE",
"13 205 OFFCURVE",
"13 192 CURVE SMOOTH",
"13 151 OFFCURVE",
"128 51 OFFCURVE",
"274 51 CURVE SMOOTH",
"366 51 OFFCURVE",
"431 104 OFFCURVE",
"431 169 CURVE SMOOTH",
"431 236 OFFCURVE",
"368 315 OFFCURVE",
"276 315 CURVE SMOOTH",
"247 315 OFFCURVE",
"221 311 OFFCURVE",
"196 311 CURVE SMOOTH",
"145 311 OFFCURVE",
"112 335 OFFCURVE",
"112 377 CURVE SMOOTH",
"112 431 OFFCURVE",
"165 447 OFFCURVE",
"206 447 CURVE SMOOTH",
"231 447 OFFCURVE",
"249 446 OFFCURVE",
"266 446 CURVE SMOOTH",
"352 446 OFFCURVE",
"369 490 OFFCURVE",
"369 516 CURVE SMOOTH",
"369 549 OFFCURVE",
"351 577 OFFCURVE",
"324 600 CURVE"
);
},
{
closed = 1;
nodes = (
"-37 646 LINE",
"-38 644 OFFCURVE",
"-39 638 OFFCURVE",
"-39 633 CURVE SMOOTH",
"-39 617 OFFCURVE",
"-31 595 OFFCURVE",
"15 595 CURVE SMOOTH",
"502 595 LINE",
"503 597 OFFCURVE",
"504 603 OFFCURVE",
"504 608 CURVE SMOOTH",
"504 624 OFFCURVE",
"496 646 OFFCURVE",
"450 646 CURVE SMOOTH"
);
}
);
width = 452;
}
);
unicode = 0921;
},
{
glyphname = dvDDHA;
layers = (
{
anchors = (
{
name = abvm.bindu;
position = "{235, 646}";
},
{
name = abvm.e;
position = "{328, 646}";
},
{
name = blwm.r;
position = "{312, -14}";
},
{
name = blwm.u;
position = "{285, 11}";
},
{
name = blwm.uu;
position = "{271, 11}";
},
{
name = blwm.virama;
position = "{274, 46}";
}
);
layerId = "7E8129F4-1E15-4123-8D26-95A3779BF9A9";
name = Light;
paths = (
{
closed = 1;
nodes = (
"276 596 LINE",
"293 585 OFFCURVE",
"310 566 OFFCURVE",
"310 544 CURVE SMOOTH",
"310 448 OFFCURVE",
"25 468 OFFCURVE",
"25 267 CURVE SMOOTH",
"25 145 OFFCURVE",
"162 56 OFFCURVE",
"271 56 CURVE SMOOTH",
"370 56 OFFCURVE",
"439 114 OFFCURVE",
"439 189 CURVE SMOOTH",
"439 265 OFFCURVE",
"371 318 OFFCURVE",
"304 318 CURVE SMOOTH",
"255 318 OFFCURVE",
"206 287 OFFCURVE",
"206 228 CURVE SMOOTH",
"206 191 OFFCURVE",
"229 170 OFFCURVE",
"253 170 CURVE SMOOTH",
"259 170 OFFCURVE",
"265 171 OFFCURVE",
"270 174 CURVE",
"266 183 OFFCURVE",
"262 196 OFFCURVE",
"262 210 CURVE SMOOTH",
"262 252 OFFCURVE",
"291 278 OFFCURVE",
"326 278 CURVE SMOOTH",
"357 278 OFFCURVE",
"388 256 OFFCURVE",
"388 213 CURVE SMOOTH",
"388 139 OFFCURVE",
"314 100 OFFCURVE",
"250 100 CURVE SMOOTH",
"159 100 OFFCURVE",
"76 161 OFFCURVE",
"76 250 CURVE SMOOTH",
"76 425 OFFCURVE",
"356 393 OFFCURVE",
"356 523 CURVE SMOOTH",
"356 565 OFFCURVE",
"331 595 OFFCURVE",
"301 616 CURVE"
);
},
{
closed = 1;
nodes = (
"-37 646 LINE",
"-38 644 OFFCURVE",
"-39 638 OFFCURVE",
"-39 633 CURVE SMOOTH",
"-39 617 OFFCURVE",
"-31 595 OFFCURVE",
"15 595 CURVE SMOOTH",
"495 595 LINE",
"496 597 OFFCURVE",
"497 603 OFFCURVE",
"497 608 CURVE SMOOTH",
"497 624 OFFCURVE",
"489 646 OFFCURVE",
"443 646 CURVE SMOOTH"
);
}
);
width = 470;
}
);
unicode = 0922;
},
{
glyphname = dvNNA;
layers = (
{
layerId = "7E8129F4-1E15-4123-8D26-95A3779BF9A9";
name = Light;
paths = (
{
closed = 1;
nodes = (
"-37 646 LINE",
"-38 644 OFFCURVE",
"-39 638 OFFCURVE",
"-39 633 CURVE SMOOTH",
"-39 617 OFFCURVE",
"-31 595 OFFCURVE",
"15 595 CURVE SMOOTH",
"747 595 LINE",
"748 597 OFFCURVE",
"749 603 OFFCURVE",
"749 608 CURVE SMOOTH",
"749 624 OFFCURVE",
"741 646 OFFCURVE",
"695 646 CURVE SMOOTH"
);
},
{
closed = 1;
nodes = (
"562 513 CURVE SMOOTH",
"562 355 OFFCURVE",
"558 215 OFFCURVE",
"558 78 CURVE SMOOTH",
"558 38 OFFCURVE",
"563 -5 OFFCURVE",
"604 -5 CURVE SMOOTH",
"608 -5 OFFCURVE",
"615 -4 OFFCURVE",
"621 -1 CURVE",
"613 11 OFFCURVE",
"611 46 OFFCURVE",
"611 80 CURVE SMOOTH",
"611 238 OFFCURVE",
"615 378 OFFCURVE",
"615 515 CURVE SMOOTH",
"615 554 OFFCURVE",
"611 600 OFFCURVE",
"574 600 CURVE SMOOTH",
"563 600 OFFCURVE",
"557 598 OFFCURVE",
"552 595 CURVE",
"560 583 OFFCURVE",
"562 547 OFFCURVE"
);
},
{
closed = 1;
nodes = (
"298 596 LINE",
"321 537 OFFCURVE",
"321 445 OFFCURVE",
"321 414 CURVE SMOOTH",
"321 276 OFFCURVE",
"281 232 OFFCURVE",
"221 232 CURVE SMOOTH",
"150 232 OFFCURVE",
"123 298 OFFCURVE",
"123 375 CURVE SMOOTH",
"123 426 OFFCURVE",
"125 471 OFFCURVE",
"125 515 CURVE SMOOTH",
"125 554 OFFCURVE",
"121 600 OFFCURVE",
"84 600 CURVE SMOOTH",
"73 600 OFFCURVE",
"67 598 OFFCURVE",
"62 595 CURVE",
"70 583 OFFCURVE",
"72 547 OFFCURVE",
"72 513 CURVE SMOOTH",
"72 462 OFFCURVE",
"70 417 OFFCURVE",
"70 373 CURVE SMOOTH",
"70 271 OFFCURVE",
"159 188 OFFCURVE",
"244 188 CURVE SMOOTH",
"310 188 OFFCURVE",
"373 226 OFFCURVE",
"373 379 CURVE SMOOTH",
"373 445 OFFCURVE",
"362 552 OFFCURVE",
"322 608 CURVE"
);
}
);
width = 722;
}
);
unicode = 0923;
},
{
glyphname = dvTA;
layers = (
{
layerId = "7E8129F4-1E15-4123-8D26-95A3779BF9A9";
name = Light;
paths = (
{
closed = 1;
nodes = (
"-37 646 LINE",
"-38 644 OFFCURVE",
"-39 638 OFFCURVE",
"-39 633 CURVE SMOOTH",
"-39 617 OFFCURVE",
"-31 595 OFFCURVE",
"15 595 CURVE SMOOTH",
"552 595 LINE",
"553 597 OFFCURVE",
"554 603 OFFCURVE",
"554 608 CURVE SMOOTH",
"554 624 OFFCURVE",
"546 646 OFFCURVE",
"500 646 CURVE SMOOTH"
);
},
{
closed = 1;
nodes = (
"367 513 CURVE SMOOTH",
"367 355 OFFCURVE",
"363 215 OFFCURVE",
"363 78 CURVE SMOOTH",
"363 38 OFFCURVE",
"368 -5 OFFCURVE",
"409 -5 CURVE SMOOTH",
"413 -5 OFFCURVE",
"420 -4 OFFCURVE",
"426 -1 CURVE",
"418 11 OFFCURVE",
"416 46 OFFCURVE",
"416 80 CURVE SMOOTH",
"416 238 OFFCURVE",
"420 378 OFFCURVE",
"420 515 CURVE SMOOTH",
"420 554 OFFCURVE",
"416 600 OFFCURVE",
"379 600 CURVE SMOOTH",
"368 600 OFFCURVE",
"362 598 OFFCURVE",
"357 595 CURVE",
"365 583 OFFCURVE",
"367 547 OFFCURVE"
);
},
{
closed = 1;
nodes = (
"55 287 CURVE SMOOTH",
"55 155 OFFCURVE",
"167 13 OFFCURVE",
"206 13 CURVE SMOOTH",
"216 13 OFFCURVE",
"221 19 OFFCURVE",
"223 25 CURVE",
"154 87 OFFCURVE",
"110 183 OFFCURVE",
"110 266 CURVE SMOOTH",
"110 346 OFFCURVE",
"158 379 OFFCURVE",
"243 379 CURVE SMOOTH",
"369 379 LINE",
"369 419 LINE",
"313 426 OFFCURVE",
"262 430 OFFCURVE",
"215 430 CURVE SMOOTH",
"119 430 OFFCURVE",
"55 375 OFFCURVE"
);
}
);
width = 527;
}
);
unicode = 0924;
},
{
glyphname = dvTHA;
layers = (
{
layerId = "7E8129F4-1E15-4123-8D26-95A3779BF9A9";
name = Light;
paths = (
{
closed = 1;
nodes = (
"397 646 LINE",
"396 644 OFFCURVE",
"395 638 OFFCURVE",
"395 633 CURVE SMOOTH",
"395 611 OFFCURVE",
"409 603 OFFCURVE",
"423 596 CURVE SMOOTH",
"445 585 OFFCURVE",
"454 571 OFFCURVE",
"454 513 CURVE SMOOTH",
"454 427 OFFCURVE",
"452 346 OFFCURVE",
"451 269 CURVE",
"461 298 LINE",
"407 222 OFFCURVE",
"323 196 OFFCURVE",
"255 196 CURVE SMOOTH",
"174 196 OFFCURVE",
"102 247 OFFCURVE",
"102 288 CURVE SMOOTH",
"102 343 OFFCURVE",
"329 367 OFFCURVE",
"329 497 CURVE SMOOTH",
"329 571 OFFCURVE",
"259 646 OFFCURVE",
"181 646 CURVE SMOOTH",
"128 646 OFFCURVE",
"76 608 OFFCURVE",
"76 542 CURVE SMOOTH",
"76 494 OFFCURVE",
"109 448 OFFCURVE",
"146 448 CURVE SMOOTH",
"151 448 OFFCURVE",
"156 450 OFFCURVE",
"158 452 CURVE",
"140 468 OFFCURVE",
"128 492 OFFCURVE",
"128 522 CURVE SMOOTH",
"128 566 OFFCURVE",
"162 599 OFFCURVE",
"207 599 CURVE SMOOTH",
"250 599 OFFCURVE",
"279 566 OFFCURVE",
"279 526 CURVE SMOOTH",
"279 401 OFFCURVE",
"49 394 OFFCURVE",
"49 316 CURVE SMOOTH",
"49 249 OFFCURVE",
"155 148 OFFCURVE",
"285 148 CURVE SMOOTH",
"359 148 OFFCURVE",
"446 175 OFFCURVE",
"493 252 CURVE",
"459 228 LINE",
"451 172 OFFCURVE",
"450 110 OFFCURVE",
"450 78 CURVE SMOOTH",
"450 38 OFFCURVE",
"455 -5 OFFCURVE",
"496 -5 CURVE SMOOTH",
"500 -5 OFFCURVE",
"507 -4 OFFCURVE",
"513 -1 CURVE",
"505 11 OFFCURVE",
"503 46 OFFCURVE",
"503 80 CURVE SMOOTH",
"503 238 OFFCURVE",
"507 378 OFFCURVE",
"507 515 CURVE SMOOTH",
"507 554 OFFCURVE",
"504 594 OFFCURVE",
"466 600 CURVE",
"472 595 LINE",
"639 595 LINE",
"640 597 OFFCURVE",
"641 603 OFFCURVE",
"641 608 CURVE SMOOTH",
"641 624 OFFCURVE",
"633 646 OFFCURVE",
"587 646 CURVE SMOOTH"
);
}
);
width = 614;
}
);
unicode = 0925;
},
{
glyphname = dvDA;
layers = (
{
anchors = (
{
name = abvm.bindu;
position = "{265, 646}";
},
{
name = abvm.e;
position = "{353, 646}";
},
{
name = blwm.u;
position = "{383, -13}";
},
{
name = blwm.uu;
position = "{383, -8}";
},
{
name = blwm.virama;
position = "{341, -19}";
}
);
layerId = "7E8129F4-1E15-4123-8D26-95A3779BF9A9";
name = Light;
paths = (
{
closed = 1;
nodes = (
"356 184 LINE",
"328 164 OFFCURVE",
"289 154 OFFCURVE",
"251 154 CURVE SMOOTH",
"172 154 OFFCURVE",
"92 196 OFFCURVE",
"92 281 CURVE SMOOTH",
"92 449 OFFCURVE",
"375 409 OFFCURVE",
"375 535 CURVE SMOOTH",
"375 585 OFFCURVE",
"336 616 OFFCURVE",
"318 620 CURVE",
"306 597 LINE",
"323 586 OFFCURVE",
"331 571 OFFCURVE",
"331 555 CURVE SMOOTH",
"331 471 OFFCURVE",
"40 493 OFFCURVE",
"40 299 CURVE SMOOTH",
"40 202 OFFCURVE",
"154 105 OFFCURVE",
"283 105 CURVE SMOOTH",
"358 105 OFFCURVE",
"423 136 OFFCURVE",
"423 207 CURVE SMOOTH",
"423 239 OFFCURVE",
"399 278 OFFCURVE",
"362 278 CURVE SMOOTH",
"334 278 OFFCURVE",
"317 254 OFFCURVE",
"317 231 CURVE SMOOTH",
"317 201 OFFCURVE",
"335 180 OFFCURVE",
"356 158 CURVE"
);
},
{
closed = 1;
nodes = (
"369 132 LINE",
"389 103 OFFCURVE",
"397 73 OFFCURVE",
"397 44 CURVE SMOOTH",
"397 19 OFFCURVE",
"381 -3 OFFCURVE",
"350 -4 CURVE",
"354 -29 OFFCURVE",
"376 -40 OFFCURVE",
"395 -40 CURVE SMOOTH",
"421 -40 OFFCURVE",
"448 -19 OFFCURVE",
"448 23 CURVE SMOOTH",
"448 68 OFFCURVE",
"424 111 OFFCURVE",
"399 148 CURVE"
);
},
{
closed = 1;
nodes = (
"-37 646 LINE",
"-38 644 OFFCURVE",
"-39 638 OFFCURVE",
"-39 633 CURVE SMOOTH",
"-39 617 OFFCURVE",
"-31 595 OFFCURVE",
"15 595 CURVE SMOOTH",
"490 595 LINE",
"491 597 OFFCURVE",
"492 603 OFFCURVE",
"492 608 CURVE SMOOTH",
"492 624 OFFCURVE",
"484 646 OFFCURVE",
"438 646 CURVE SMOOTH"
);
}
);
width = 470;
}
);
unicode = 0926;
},
{
glyphname = dvDHA;
layers = (
{
layerId = "7E8129F4-1E15-4123-8D26-95A3779BF9A9";
name = Light;
paths = (
{
closed = 1;
nodes = (
"375 646 LINE",
"374 644 OFFCURVE",
"373 638 OFFCURVE",
"373 633 CURVE SMOOTH",
"373 611 OFFCURVE",
"387 603 OFFCURVE",
"401 596 CURVE SMOOTH",
"423 585 OFFCURVE",
"432 571 OFFCURVE",
"432 513 CURVE SMOOTH",
"432 418 OFFCURVE",
"430 329 OFFCURVE",
"429 244 CURVE",
"439 296 LINE",
"404 219 OFFCURVE",
"325 171 OFFCURVE",
"247 171 CURVE SMOOTH",
"178 171 OFFCURVE",
"120 211 OFFCURVE",
"120 276 CURVE SMOOTH",
"120 330 OFFCURVE",
"157 360 OFFCURVE",
"187 373 CURVE",
"124 392 OFFCURVE",
"100 441 OFFCURVE",
"100 488 CURVE SMOOTH",
"100 535 OFFCURVE",
"134 595 OFFCURVE",
"202 595 CURVE SMOOTH",
"223 595 LINE",
"224 597 OFFCURVE",
"225 603 OFFCURVE",
"225 608 CURVE SMOOTH",
"225 624 OFFCURVE",
"217 646 OFFCURVE",
"171 646 CURVE SMOOTH",
"-52 646 LINE",
"-53 644 OFFCURVE",
"-54 638 OFFCURVE",
"-54 633 CURVE SMOOTH",
"-54 617 OFFCURVE",
"-46 595 OFFCURVE",
"0 595 CURVE SMOOTH",
"25 595 OFFCURVE",
"64 596 OFFCURVE",
"130 601 CURVE",
"107 606 LINE",
"67 579 OFFCURVE",
"53 535 OFFCURVE",
"53 502 CURVE SMOOTH",
"53 412 OFFCURVE",
"133 340 OFFCURVE",
"218 340 CURVE SMOOTH",
"243 340 OFFCURVE",
"276 352 OFFCURVE",
"276 385 CURVE SMOOTH",
"276 417 OFFCURVE",
"240 432 OFFCURVE",
"210 432 CURVE SMOOTH",
"144 432 OFFCURVE",
"71 385 OFFCURVE",
"71 293 CURVE SMOOTH",
"71 215 OFFCURVE",
"162 122 OFFCURVE",
"276 122 CURVE SMOOTH",
"363 122 OFFCURVE",
"438 168 OFFCURVE",
"466 253 CURVE",
"437 214 LINE",
"428 168 OFFCURVE",
"428 91 OFFCURVE",
"428 78 CURVE SMOOTH",
"428 38 OFFCURVE",
"433 -5 OFFCURVE",
"474 -5 CURVE SMOOTH",
"478 -5 OFFCURVE",
"485 -4 OFFCURVE",
"491 -1 CURVE",
"483 11 OFFCURVE",
"481 46 OFFCURVE",
"481 80 CURVE SMOOTH",
"481 238 OFFCURVE",
"485 378 OFFCURVE",
"485 515 CURVE SMOOTH",
"485 554 OFFCURVE",
"482 594 OFFCURVE",
"444 600 CURVE",
"450 595 LINE",
"617 595 LINE",
"618 597 OFFCURVE",
"619 603 OFFCURVE",
"619 608 CURVE SMOOTH",
"619 624 OFFCURVE",
"611 646 OFFCURVE",
"565 646 CURVE SMOOTH"
);
}
);
width = 592;
}
);
unicode = 0927;
},
{
glyphname = dvNA;
layers = (
{
layerId = "7E8129F4-1E15-4123-8D26-95A3779BF9A9";
name = Light;
paths = (
{
closed = 1;
nodes = (
"382 513 CURVE SMOOTH",
"382 355 OFFCURVE",
"378 215 OFFCURVE",
"378 78 CURVE SMOOTH",
"378 38 OFFCURVE",
"383 -5 OFFCURVE",
"424 -5 CURVE SMOOTH",
"428 -5 OFFCURVE",
"435 -4 OFFCURVE",
"441 -1 CURVE",
"433 11 OFFCURVE",
"431 46 OFFCURVE",
"431 80 CURVE SMOOTH",
"431 238 OFFCURVE",
"435 378 OFFCURVE",
"435 515 CURVE SMOOTH",
"435 554 OFFCURVE",
"431 600 OFFCURVE",
"394 600 CURVE SMOOTH",
"383 600 OFFCURVE",
"377 598 OFFCURVE",
"372 595 CURVE",
"380 583 OFFCURVE",
"382 547 OFFCURVE"
);
},
{
closed = 1;
nodes = (
"-37 646 LINE",
"-38 644 OFFCURVE",
"-39 638 OFFCURVE",
"-39 633 CURVE SMOOTH",
"-39 617 OFFCURVE",
"-31 595 OFFCURVE",
"15 595 CURVE SMOOTH",
"567 595 LINE",
"568 597 OFFCURVE",
"569 603 OFFCURVE",
"569 608 CURVE SMOOTH",
"569 624 OFFCURVE",
"561 646 OFFCURVE",
"515 646 CURVE SMOOTH"
);
},
{
closed = 1;
nodes = (
"84 307 CURVE SMOOTH",
"84 360 OFFCURVE",
"132 379 OFFCURVE",
"174 379 CURVE SMOOTH",
"219 379 OFFCURVE",
"384 379 OFFCURVE",
"384 379 CURVE",
"391 418 LINE",
"324 425 OFFCURVE",
"230 430 OFFCURVE",
"156 430 CURVE SMOOTH",
"82 430 OFFCURVE",
"32 392 OFFCURVE",
"32 332 CURVE SMOOTH",
"32 257 OFFCURVE",
"121 180 OFFCURVE",
"192 180 CURVE SMOOTH",
"252 180 OFFCURVE",
"285 218 OFFCURVE",
"285 258 CURVE SMOOTH",
"285 291 OFFCURVE",
"266 312 OFFCURVE",
"235 312 CURVE",
"237 305 OFFCURVE",
"238 298 OFFCURVE",
"238 291 CURVE SMOOTH",
"238 254 OFFCURVE",
"209 228 OFFCURVE",
"168 228 CURVE SMOOTH",
"127 228 OFFCURVE",
"84 259 OFFCURVE"
);
}
);
width = 542;
}
);
unicode = 0928;
},
{
glyphname = dvPA;
layers = (
{
layerId = "7E8129F4-1E15-4123-8D26-95A3779BF9A9";
name = Light;
paths = (
{
closed = 1;
nodes = (
"70 595 CURVE",
"78 583 OFFCURVE",
"80 547 OFFCURVE",
"80 513 CURVE SMOOTH",
"80 380 OFFCURVE",
"79 462 OFFCURVE",
"79 346 CURVE SMOOTH",
"79 274 OFFCURVE",
"153 176 OFFCURVE",
"251 176 CURVE SMOOTH",
"335 176 OFFCURVE",
"390 229 OFFCURVE",
"409 264 CURVE",
"390 272 LINE",
"381 207 OFFCURVE",
"380 141 OFFCURVE",
"380 78 CURVE SMOOTH",
"380 38 OFFCURVE",
"385 -5 OFFCURVE",
"426 -5 CURVE SMOOTH",
"430 -5 OFFCURVE",
"437 -4 OFFCURVE",
"443 -1 CURVE",
"435 11 OFFCURVE",
"433 46 OFFCURVE",
"433 80 CURVE SMOOTH",
"433 238 OFFCURVE",
"437 378 OFFCURVE",
"437 515 CURVE SMOOTH",
"437 554 OFFCURVE",
"433 600 OFFCURVE",
"396 600 CURVE SMOOTH",
"385 600 OFFCURVE",
"379 598 OFFCURVE",
"374 595 CURVE",
"382 583 OFFCURVE",
"384 547 OFFCURVE",
"384 513 CURVE SMOOTH",
"384 432 OFFCURVE",
"383 356 OFFCURVE",
"382 283 CURVE",
"390 320 LINE",
"348 260 OFFCURVE",
"286 227 OFFCURVE",
"227 227 CURVE SMOOTH",
"167 227 OFFCURVE",
"132 270 OFFCURVE",
"132 322 CURVE SMOOTH",
"132 480 OFFCURVE",
"133 378 OFFCURVE",
"133 515 CURVE SMOOTH",
"133 554 OFFCURVE",
"129 600 OFFCURVE",
"92 600 CURVE SMOOTH",
"81 600 OFFCURVE",
"75 598 OFFCURVE"
);
},
{
closed = 1;
nodes = (
"-37 646 LINE",
"-38 644 OFFCURVE",
"-39 638 OFFCURVE",
"-39 633 CURVE SMOOTH",
"-39 617 OFFCURVE",
"-31 595 OFFCURVE",
"15 595 CURVE SMOOTH",
"569 595 LINE",
"570 597 OFFCURVE",
"571 603 OFFCURVE",
"571 608 CURVE SMOOTH",
"571 624 OFFCURVE",
"563 646 OFFCURVE",
"517 646 CURVE SMOOTH"
);
}
);
width = 544;
}
);
unicode = 092A;
},
{
glyphname = dvPHA;
layers = (
{
anchors = (
{
name = abvm.bindu;
position = "{350, 646}";
},
{
name = abvm.e;
position = "{413, 646}";
},
{
name = blwm.r;
position = "{419, -1}";
},
{
name = blwm.u;
position = "{419, -1}";
},
{
name = blwm.uu;
position = "{419, -4}";
},
{
name = blwm.virama;
position = "{419, -15}";
}
);
layerId = "7E8129F4-1E15-4123-8D26-95A3779BF9A9";
name = Light;
paths = (
{
closed = 1;
nodes = (
"-37 646 LINE",
"-38 644 OFFCURVE",
"-39 638 OFFCURVE",
"-39 633 CURVE SMOOTH",
"-39 617 OFFCURVE",
"-31 595 OFFCURVE",
"15 595 CURVE SMOOTH",
"801 595 LINE",
"802 597 OFFCURVE",
"803 603 OFFCURVE",
"803 608 CURVE SMOOTH",
"803 624 OFFCURVE",
"795 646 OFFCURVE",
"749 646 CURVE SMOOTH"
);
},
{
closed = 1;
nodes = (
"560 408 CURVE SMOOTH",
"621 408 OFFCURVE",
"676 365 OFFCURVE",
"676 295 CURVE SMOOTH",
"676 240 OFFCURVE",
"637 181 OFFCURVE",
"557 181 CURVE SMOOTH",
"542 181 OFFCURVE",
"524 184 OFFCURVE",
"504 190 CURVE",
"502 184 OFFCURVE",
"501 179 OFFCURVE",
"501 174 CURVE SMOOTH",
"501 143 OFFCURVE",
"540 127 OFFCURVE",
"570 127 CURVE SMOOTH",
"664 127 OFFCURVE",
"723 192 OFFCURVE",
"723 266 CURVE SMOOTH",
"723 365 OFFCURVE",
"635 457 OFFCURVE",
"544 457 CURVE SMOOTH",
"472 457 OFFCURVE",
"419 416 OFFCURVE",
"395 367 CURVE",
"401 354 LINE",
"410 404 OFFCURVE",
"413 439 OFFCURVE",
"413 515 CURVE SMOOTH",
"413 554 OFFCURVE",
"408 600 OFFCURVE",
"372 600 CURVE SMOOTH",
"361 600 OFFCURVE",
"354 598 OFFCURVE",
"350 595 CURVE",
"358 583 OFFCURVE",
"360 547 OFFCURVE",
"360 513 CURVE SMOOTH",
"360 432 OFFCURVE",
"359 356 OFFCURVE",
"358 283 CURVE",
"366 334 LINE",
"340 263 OFFCURVE",
"277 227 OFFCURVE",
"227 227 CURVE SMOOTH",
"167 227 OFFCURVE",
"132 270 OFFCURVE",
"132 322 CURVE SMOOTH",
"132 480 OFFCURVE",
"133 378 OFFCURVE",
"133 515 CURVE SMOOTH",
"133 554 OFFCURVE",
"129 600 OFFCURVE",
"92 600 CURVE SMOOTH",
"81 600 OFFCURVE",
"75 598 OFFCURVE",
"70 595 CURVE",
"78 583 OFFCURVE",
"80 547 OFFCURVE",
"80 513 CURVE SMOOTH",
"80 380 OFFCURVE",
"79 462 OFFCURVE",
"79 346 CURVE SMOOTH",
"79 274 OFFCURVE",
"153 176 OFFCURVE",
"251 176 CURVE SMOOTH",
"323 176 OFFCURVE",
"374 230 OFFCURVE",
"385 278 CURVE",
"366 272 LINE",
"357 207 OFFCURVE",
"356 141 OFFCURVE",
"356 78 CURVE SMOOTH",
"356 38 OFFCURVE",
"360 -5 OFFCURVE",
"402 -5 CURVE SMOOTH",
"406 -5 OFFCURVE",
"413 -4 OFFCURVE",
"419 -1 CURVE",
"411 11 OFFCURVE",
"409 46 OFFCURVE",
"409 80 CURVE SMOOTH",
"409 170 OFFCURVE",
"409 253 OFFCURVE",
"412 333 CURVE",
"406 292 LINE",
"436 371 OFFCURVE",
"500 408 OFFCURVE"
);
}
);
width = 762;
}
);
unicode = 092B;
},
{
glyphname = dvBA;
layers = (
{
layerId = "7E8129F4-1E15-4123-8D26-95A3779BF9A9";
name = Light;
paths = (
{
closed = 1;
nodes = (
"-33 646 LINE",
"-34 644 OFFCURVE",
"-35 638 OFFCURVE",
"-35 633 CURVE SMOOTH",
"-35 617 OFFCURVE",
"-27 595 OFFCURVE",
"19 595 CURVE SMOOTH",
"553 595 LINE",
"554 597 OFFCURVE",
"555 603 OFFCURVE",
"555 608 CURVE SMOOTH",
"555 624 OFFCURVE",
"547 646 OFFCURVE",
"501 646 CURVE SMOOTH"
);
},
{
closed = 1;
nodes = (
"427 -1 CURVE",
"419 11 OFFCURVE",
"417 46 OFFCURVE",
"417 80 CURVE SMOOTH",
"417 238 OFFCURVE",
"421 378 OFFCURVE",
"421 515 CURVE SMOOTH",
"421 554 OFFCURVE",
"417 600 OFFCURVE",
"380 600 CURVE SMOOTH",
"369 600 OFFCURVE",
"363 598 OFFCURVE",
"358 595 CURVE",
"365 583 OFFCURVE",
"368 547 OFFCURVE",
"368 513 CURVE SMOOTH",
"368 421 OFFCURVE",
"366 335 OFFCURVE",
"365 252 CURVE",
"383 355 LINE",
"362 251 OFFCURVE",
"287 200 OFFCURVE",
"218 200 CURVE SMOOTH",
"151 200 OFFCURVE",
"91 245 OFFCURVE",
"91 323 CURVE SMOOTH",
"91 384 OFFCURVE",
"135 449 OFFCURVE",
"223 449 CURVE SMOOTH",
"243 449 OFFCURVE",
"270 442 OFFCURVE",
"285 435 CURVE",
"287 439 OFFCURVE",
"288 444 OFFCURVE",
"288 449 CURVE SMOOTH",
"288 477 OFFCURVE",
"257 501 OFFCURVE",
"201 501 CURVE SMOOTH",
"106 501 OFFCURVE",
"44 430 OFFCURVE",
"44 352 CURVE SMOOTH",
"44 234 OFFCURVE",
"146 153 OFFCURVE",
"244 153 CURVE SMOOTH",
"299 153 OFFCURVE",
"359 181 OFFCURVE",
"385 238 CURVE",
"373 228 LINE",
"366 177 OFFCURVE",
"364 127 OFFCURVE",
"364 78 CURVE SMOOTH",
"364 38 OFFCURVE",
"369 -5 OFFCURVE",
"410 -5 CURVE SMOOTH",
"410 -5 OFFCURVE",
"427 -4 OFFCURVE"
);
},
{
closed = 1;
nodes = (
"331 195 LINE",
"355 215 LINE",
"132 458 LINE",
"108 437 LINE"
);
}
);
width = 528;
}
);
unicode = 092C;
},
{
glyphname = dvBHA;
layers = (
{
layerId = "7E8129F4-1E15-4123-8D26-95A3779BF9A9";
name = Light;
paths = (
{
closed = 1;
nodes = (
"293 646 LINE",
"292 644 OFFCURVE",
"291 638 OFFCURVE",
"291 633 CURVE SMOOTH",
"291 617 OFFCURVE",
"299 595 OFFCURVE",
"345 595 CURVE SMOOTH",
"624 595 LINE",
"625 597 OFFCURVE",
"626 603 OFFCURVE",
"626 608 CURVE SMOOTH",
"626 624 OFFCURVE",
"618 646 OFFCURVE",
"572 646 CURVE SMOOTH"
);
},
{
closed = 1;
nodes = (
"439 513 CURVE SMOOTH",
"439 355 OFFCURVE",
"435 215 OFFCURVE",
"435 78 CURVE SMOOTH",
"435 38 OFFCURVE",
"440 -5 OFFCURVE",
"481 -5 CURVE SMOOTH",
"485 -5 OFFCURVE",
"492 -4 OFFCURVE",
"498 -1 CURVE",
"490 11 OFFCURVE",
"488 46 OFFCURVE",
"488 80 CURVE SMOOTH",
"488 238 OFFCURVE",
"492 378 OFFCURVE",
"492 515 CURVE SMOOTH",
"492 554 OFFCURVE",
"488 600 OFFCURVE",
"451 600 CURVE SMOOTH",
"440 600 OFFCURVE",
"434 598 OFFCURVE",
"429 595 CURVE",
"437 583 OFFCURVE",
"439 547 OFFCURVE"
);
},
{
closed = 1;
nodes = (
"167 417 CURVE SMOOTH",
"167 376 OFFCURVE",
"163 336 OFFCURVE",
"160 299 CURVE",
"461 299 LINE",
"470 338 LINE",
"384 348 OFFCURVE",
"252 350 OFFCURVE",
"172 350 CURVE SMOOTH",
"128 350 OFFCURVE",
"80 345 OFFCURVE",
"80 299 CURVE SMOOTH",
"80 261 OFFCURVE",
"125 209 OFFCURVE",
"168 209 CURVE SMOOTH",
"218 209 OFFCURVE",
"220 303 OFFCURVE",
"220 340 CURVE SMOOTH",
"220 521 OFFCURVE",
"166 648 OFFCURVE",
"74 648 CURVE SMOOTH",
"27 648 OFFCURVE",
"0 611 OFFCURVE",
"0 566 CURVE SMOOTH",
"0 516 OFFCURVE",
"27 465 OFFCURVE",
"61 465 CURVE SMOOTH",
"67 465 OFFCURVE",
"72 467 OFFCURVE",
"75 469 CURVE",
"56 491 OFFCURVE",
"49 518 OFFCURVE",
"49 545 CURVE SMOOTH",
"49 574 OFFCURVE",
"65 602 OFFCURVE",
"96 602 CURVE SMOOTH",
"156 602 OFFCURVE",
"167 495 OFFCURVE"
);
}
);
width = 599;
}
);
unicode = 092D;
},
{
glyphname = dvMA;
layers = (
{
layerId = "7E8129F4-1E15-4123-8D26-95A3779BF9A9";
name = Light;
paths = (
{
closed = 1;
nodes = (
"-37 646 LINE",
"-38 644 OFFCURVE",
"-39 638 OFFCURVE",
"-39 633 CURVE SMOOTH",
"-39 617 OFFCURVE",
"-31 595 OFFCURVE",
"15 595 CURVE SMOOTH",
"605 595 LINE",
"606 597 OFFCURVE",
"607 603 OFFCURVE",
"607 608 CURVE SMOOTH",
"607 624 OFFCURVE",
"599 646 OFFCURVE",
"553 646 CURVE SMOOTH"
);
},
{
closed = 1;
nodes = (
"420 513 CURVE SMOOTH",
"420 355 OFFCURVE",
"416 215 OFFCURVE",
"416 78 CURVE SMOOTH",
"416 38 OFFCURVE",
"421 -5 OFFCURVE",
"462 -5 CURVE SMOOTH",
"466 -5 OFFCURVE",
"473 -4 OFFCURVE",
"479 -1 CURVE",
"471 11 OFFCURVE",
"469 46 OFFCURVE",
"469 80 CURVE SMOOTH",
"469 238 OFFCURVE",
"473 378 OFFCURVE",
"473 515 CURVE SMOOTH",
"473 554 OFFCURVE",
"469 600 OFFCURVE",
"432 600 CURVE SMOOTH",
"421 600 OFFCURVE",
"415 598 OFFCURVE",
"410 595 CURVE",
"418 583 OFFCURVE",
"420 547 OFFCURVE"
);
},
{
closed = 1;
nodes = (
"451 338 LINE",
"365 348 OFFCURVE",
"233 350 OFFCURVE",
"153 350 CURVE SMOOTH",
"109 350 OFFCURVE",
"61 345 OFFCURVE",
"61 299 CURVE SMOOTH",
"61 261 OFFCURVE",
"106 209 OFFCURVE",
"149 209 CURVE SMOOTH",
"199 209 OFFCURVE",
"202 311 OFFCURVE",
"202 414 CURVE SMOOTH",
"202 561 OFFCURVE",
"196 600 OFFCURVE",
"159 600 CURVE SMOOTH",
"148 600 OFFCURVE",
"142 598 OFFCURVE",
"137 595 CURVE",
"148 583 OFFCURVE",
"150 537 OFFCURVE",
"150 421 CURVE SMOOTH",
"150 382 OFFCURVE",
"147 333 OFFCURVE",
"144 299 CURVE",
"442 299 LINE"
);
}
);
width = 580;
}
);
unicode = 092E;
},
{
glyphname = dvYA;
layers = (
{
layerId = "7E8129F4-1E15-4123-8D26-95A3779BF9A9";
name = Light;
paths = (
{
closed = 1;
nodes = (
"-28 646 LINE",
"-29 644 OFFCURVE",
"-30 638 OFFCURVE",
"-30 633 CURVE SMOOTH",
"-30 617 OFFCURVE",
"-22 595 OFFCURVE",
"24 595 CURVE SMOOTH",
"602 595 LINE",
"603 597 OFFCURVE",
"604 603 OFFCURVE",
"604 608 CURVE SMOOTH",
"604 624 OFFCURVE",
"596 646 OFFCURVE",
"550 646 CURVE SMOOTH"
);
},
{
closed = 1;
nodes = (
"150 606 LINE",
"177 582 OFFCURVE",
"192 550 OFFCURVE",
"192 516 CURVE SMOOTH",
"192 426 OFFCURVE",
"39 388 OFFCURVE",
"39 335 CURVE SMOOTH",
"39 268 OFFCURVE",
"142 160 OFFCURVE",
"272 160 CURVE SMOOTH",
"342 160 OFFCURVE",
"427 188 OFFCURVE",
"466 267 CURVE",
"422 228 LINE",
"414 172 OFFCURVE",
"413 110 OFFCURVE",
"413 78 CURVE SMOOTH",
"413 38 OFFCURVE",
"418 -5 OFFCURVE",
"459 -5 CURVE SMOOTH",
"463 -5 OFFCURVE",
"470 -4 OFFCURVE",
"476 -1 CURVE",
"468 11 OFFCURVE",
"466 46 OFFCURVE",
"466 80 CURVE SMOOTH",
"466 238 OFFCURVE",
"470 378 OFFCURVE",
"470 515 CURVE SMOOTH",
"470 554 OFFCURVE",
"466 600 OFFCURVE",
"429 600 CURVE SMOOTH",
"418 600 OFFCURVE",
"412 598 OFFCURVE",
"407 595 CURVE",
"415 583 OFFCURVE",
"417 547 OFFCURVE",
"417 513 CURVE SMOOTH",
"417 427 OFFCURVE",
"416 346 OFFCURVE",
"414 269 CURVE",
"432 309 LINE",
"394 233 OFFCURVE",
"310 208 OFFCURVE",
"251 208 CURVE SMOOTH",
"157 208 OFFCURVE",
"90 265 OFFCURVE",
"90 304 CURVE SMOOTH",
"90 348 OFFCURVE",
"242 392 OFFCURVE",
"242 490 CURVE SMOOTH",
"242 534 OFFCURVE",
"222 573 OFFCURVE",
"200 600 CURVE"
);
}
);
width = 577;
}
);
unicode = 092F;
},
{
glyphname = dvRA;
layers = (
{
anchors = (
{
name = abvm.bindu;
position = "{175, 646}";
},
{
name = abvm.e;
position = "{266, 646}";
},
{
name = blwm.r;
position = "{342, -74}";
},
{
name = blwm.virama;
position = "{280, -14}";
}
);
layerId = "7E8129F4-1E15-4123-8D26-95A3779BF9A9";
name = Light;
paths = (
{
closed = 1;
nodes = (
"150 279 LINE",
"141 335 OFFCURVE",
"128 413 OFFCURVE",
"71 413 CURVE SMOOTH",
"45 413 OFFCURVE",
"25 390 OFFCURVE",
"25 363 CURVE SMOOTH",
"25 293 OFFCURVE",
"100 253 OFFCURVE",
"169 253 CURVE SMOOTH",
"248 253 OFFCURVE",
"332 312 OFFCURVE",
"332 413 CURVE SMOOTH",
"332 498 OFFCURVE",
"285 580 OFFCURVE",
"217 631 CURVE",
"192 607 LINE",
"246 575 OFFCURVE",
"281 508 OFFCURVE",
"281 431 CURVE SMOOTH",
"281 366 OFFCURVE",
"235 309 OFFCURVE",
"152 307 CURVE SMOOTH",
"143 307 OFFCURVE",
"135 307 OFFCURVE",
"130 309 CURVE"
);
},
{
closed = 1;
nodes = (
"114 273 LINE",
"134 171 OFFCURVE",
"190 -4 OFFCURVE",
"290 -4 CURVE SMOOTH",
"322 -4 OFFCURVE",
"341 16 OFFCURVE",
"341 40 CURVE SMOOTH",
"341 48 OFFCURVE",
"339 57 OFFCURVE",
"334 66 CURVE",
"324 61 OFFCURVE",
"312 59 OFFCURVE",
"300 59 CURVE SMOOTH",
"203 59 OFFCURVE",
"171 164 OFFCURVE",
"151 261 CURVE"
);
},
{
closed = 1;
nodes = (
"-37 646 LINE",
"-38 644 OFFCURVE",
"-39 638 OFFCURVE",
"-39 633 CURVE SMOOTH",
"-39 617 OFFCURVE",
"-31 595 OFFCURVE",
"15 595 CURVE SMOOTH",
"415 595 LINE",
"416 597 OFFCURVE",
"417 603 OFFCURVE",
"417 608 CURVE SMOOTH",
"417 624 OFFCURVE",
"409 646 OFFCURVE",
"363 646 CURVE SMOOTH"
);
}
);
width = 390;
}
);
unicode = 0930;
},
{
glyphname = dvNukta;
layers = (
{
layerId = "7E8129F4-1E15-4123-8D26-95A3779BF9A9";
name = Light;
paths = (
{
closed = 1;
nodes = (
"-358 -98 CURVE SMOOTH",
"-358 -124 OFFCURVE",
"-335 -147 OFFCURVE",
"-309 -147 CURVE SMOOTH",
"-287 -147 OFFCURVE",
"-273 -131 OFFCURVE",
"-273 -111 CURVE SMOOTH",
"-273 -85 OFFCURVE",
"-298 -62 OFFCURVE",
"-322 -62 CURVE SMOOTH",
"-344 -62 OFFCURVE",
"-358 -77 OFFCURVE"
);
}
);
width = 0;
}
);
unicode = 093C;
},
{
glyphname = dvLA;
layers = (
{
layerId = "7E8129F4-1E15-4123-8D26-95A3779BF9A9";
name = Light;
paths = (
{
closed = 1;
nodes = (
"-37 646 LINE",
"-38 644 OFFCURVE",
"-39 638 OFFCURVE",
"-39 633 CURVE SMOOTH",
"-39 617 OFFCURVE",
"-31 595 OFFCURVE",
"15 595 CURVE SMOOTH",
"742 595 LINE",
"743 597 OFFCURVE",
"744 603 OFFCURVE",
"744 608 CURVE SMOOTH",
"744 624 OFFCURVE",
"736 646 OFFCURVE",
"690 646 CURVE SMOOTH"
);
},
{
closed = 1;
nodes = (
"557 513 CURVE SMOOTH",
"557 355 OFFCURVE",
"553 215 OFFCURVE",
"553 78 CURVE SMOOTH",
"553 38 OFFCURVE",
"558 -5 OFFCURVE",
"599 -5 CURVE SMOOTH",
"603 -5 OFFCURVE",
"610 -4 OFFCURVE",
"616 -1 CURVE",
"608 11 OFFCURVE",
"606 46 OFFCURVE",
"606 80 CURVE SMOOTH",
"606 238 OFFCURVE",
"610 378 OFFCURVE",
"610 515 CURVE SMOOTH",
"610 554 OFFCURVE",
"606 600 OFFCURVE",
"569 600 CURVE SMOOTH",
"558 600 OFFCURVE",
"552 598 OFFCURVE",
"547 595 CURVE",
"555 583 OFFCURVE",
"557 547 OFFCURVE"
);
},
{
closed = 1;
nodes = (
"595 347 LINE",
"562 398 OFFCURVE",
"522 430 OFFCURVE",
"458 430 CURVE SMOOTH",
"397 430 OFFCURVE",
"350 389 OFFCURVE",
"324 344 CURVE",
"363 290 LINE",
"382 347 OFFCURVE",
"427 380 OFFCURVE",
"476 380 CURVE SMOOTH",
"517 380 OFFCURVE",
"550 365 OFFCURVE",
"574 337 CURVE"
);
},
{
closed = 1;
nodes = (
"218 385 CURVE SMOOTH",
"261 385 OFFCURVE",
"294 361 OFFCURVE",
"316 334 CURVE",
"299 307 OFFCURVE",
"289 277 OFFCURVE",
"289 248 CURVE SMOOTH",
"289 211 OFFCURVE",
"310 183 OFFCURVE",
"341 183 CURVE SMOOTH",
"379 183 OFFCURVE",
"390 222 OFFCURVE",
"390 248 CURVE SMOOTH",
"390 352 OFFCURVE",
"283 436 OFFCURVE",
"200 436 CURVE SMOOTH",
"124 436 OFFCURVE",
"55 388 OFFCURVE",
"55 281 CURVE SMOOTH",
"55 148 OFFCURVE",
"185 13 OFFCURVE",
"231 13 CURVE SMOOTH",
"241 13 OFFCURVE",
"246 19 OFFCURVE",
"248 25 CURVE",
"167 88 OFFCURVE",
"110 172 OFFCURVE",
"110 259 CURVE SMOOTH",
"110 323 OFFCURVE",
"143 385 OFFCURVE"
);
}
);
width = 717;
}
);
unicode = 0932;
},
{
glyphname = dvLLA;
layers = (
{
anchors = (
{
name = abvm.bindu;
position = "{462, 646}";
},
{
name = abvm.e;
position = "{526, 646}";
},
{
name = blwm.r;
position = "{552, 6}";
},
{
name = blwm.u;
position = "{527, 36}";
},
{
name = blwm.uu;
position = "{508, 36}";
},
{
name = blwm.virama;
position = "{508, 76}";
}
);
layerId = "7E8129F4-1E15-4123-8D26-95A3779BF9A9";
name = Light;
paths = (
{
closed = 1;
nodes = (
"526 438 LINE",
"526 548 OFFCURVE",
"525 600 OFFCURVE",
"484 600 CURVE SMOOTH",
"473 600 OFFCURVE",
"467 598 OFFCURVE",
"462 595 CURVE",
"472 575 OFFCURVE",
"473 545 OFFCURVE",
"473 441 CURVE"
);
},
{
closed = 1;
nodes = (
"386 368 LINE",
"359 424 OFFCURVE",
"292 463 OFFCURVE",
"217 463 CURVE SMOOTH",
"119 463 OFFCURVE",
"44 390 OFFCURVE",
"44 302 CURVE SMOOTH",
"44 209 OFFCURVE",
"132 122 OFFCURVE",
"220 122 CURVE SMOOTH",
"393 122 OFFCURVE",
"365 416 OFFCURVE",
"510 416 CURVE SMOOTH",
"574 416 OFFCURVE",
"614 368 OFFCURVE",
"614 310 CURVE SMOOTH",
"614 226 OFFCURVE",
"546 170 OFFCURVE",
"471 170 CURVE SMOOTH",
"425 170 OFFCURVE",
"378 188 OFFCURVE",
"343 217 CURVE",
"323 217 LINE",
"350 161 OFFCURVE",
"417 122 OFFCURVE",
"492 122 CURVE SMOOTH",
"590 122 OFFCURVE",
"665 195 OFFCURVE",
"665 283 CURVE SMOOTH",
"665 376 OFFCURVE",
"577 463 OFFCURVE",
"489 463 CURVE SMOOTH",
"316 463 OFFCURVE",
"343 169 OFFCURVE",
"199 169 CURVE SMOOTH",
"135 169 OFFCURVE",
"95 217 OFFCURVE",
"95 275 CURVE SMOOTH",
"95 359 OFFCURVE",
"163 415 OFFCURVE",
"238 415 CURVE SMOOTH",
"284 415 OFFCURVE",
"331 397 OFFCURVE",
"366 368 CURVE"
);
},
{
closed = 1;
nodes = (
"-33 646 LINE",
"-34 644 OFFCURVE",
"-35 638 OFFCURVE",
"-35 633 CURVE SMOOTH",
"-35 617 OFFCURVE",
"-27 595 OFFCURVE",
"19 595 CURVE SMOOTH",
"742 595 LINE",
"743 597 OFFCURVE",
"744 603 OFFCURVE",
"744 608 CURVE SMOOTH",
"744 624 OFFCURVE",
"736 646 OFFCURVE",
"690 646 CURVE SMOOTH"
);
}
);
width = 714;
}
);
unicode = 0933;
},
{
glyphname = dvVA;
layers = (
{
layerId = "7E8129F4-1E15-4123-8D26-95A3779BF9A9";
name = Light;
paths = (
{
closed = 1;
nodes = (
"-33 646 LINE",
"-34 644 OFFCURVE",
"-35 638 OFFCURVE",
"-35 633 CURVE SMOOTH",
"-35 617 OFFCURVE",
"-27 595 OFFCURVE",
"19 595 CURVE SMOOTH",
"555 595 LINE",
"556 597 OFFCURVE",
"557 603 OFFCURVE",
"557 608 CURVE SMOOTH",
"557 624 OFFCURVE",
"549 646 OFFCURVE",
"503 646 CURVE SMOOTH"
);
},
{
closed = 1;
nodes = (
"385 355 LINE",
"364 251 OFFCURVE",
"289 200 OFFCURVE",
"220 200 CURVE SMOOTH",
"157 200 OFFCURVE",
"100 243 OFFCURVE",
"100 318 CURVE SMOOTH",
"100 377 OFFCURVE",
"143 440 OFFCURVE",
"228 440 CURVE SMOOTH",
"247 440 OFFCURVE",
"268 436 OFFCURVE",
"287 429 CURVE",
"289 433 OFFCURVE",
"290 438 OFFCURVE",
"290 443 CURVE SMOOTH",
"290 473 OFFCURVE",
"258 492 OFFCURVE",
"203 492 CURVE SMOOTH",
"138 492 OFFCURVE",
"53 443 OFFCURVE",
"53 347 CURVE SMOOTH",
"53 232 OFFCURVE",
"151 153 OFFCURVE",
"246 153 CURVE SMOOTH",
"301 153 OFFCURVE",
"361 181 OFFCURVE",
"387 238 CURVE",
"375 228 LINE",
"368 177 OFFCURVE",
"366 127 OFFCURVE",
"366 78 CURVE SMOOTH",
"366 38 OFFCURVE",
"371 -5 OFFCURVE",
"412 -5 CURVE SMOOTH",
"412 -5 OFFCURVE",
"429 -4 OFFCURVE",
"429 -1 CURVE",
"421 11 OFFCURVE",
"419 46 OFFCURVE",
"419 80 CURVE SMOOTH",
"419 238 OFFCURVE",
"423 378 OFFCURVE",
"423 515 CURVE SMOOTH",
"423 554 OFFCURVE",
"419 600 OFFCURVE",
"382 600 CURVE SMOOTH",
"371 600 OFFCURVE",
"365 598 OFFCURVE",
"360 595 CURVE",
"367 583 OFFCURVE",
"370 547 OFFCURVE",
"370 513 CURVE SMOOTH",
"370 421 OFFCURVE",
"368 335 OFFCURVE",
"367 252 CURVE"
);
}
);
width = 530;
}
);
unicode = 0935;
},
{
glyphname = dvSHA;
layers = (
{
layerId = "7E8129F4-1E15-4123-8D26-95A3779BF9A9";
name = Light;
paths = (
{
closed = 1;
nodes = (
"126 255 LINE",
"154 161 OFFCURVE",
"217 -4 OFFCURVE",
"335 -4 CURVE SMOOTH",
"367 -4 OFFCURVE",
"386 16 OFFCURVE",
"386 40 CURVE SMOOTH",
"386 48 OFFCURVE",
"384 57 OFFCURVE",
"379 66 CURVE",
"365 61 OFFCURVE",
"350 58 OFFCURVE",
"333 58 CURVE SMOOTH",
"254 58 OFFCURVE",
"196 134 OFFCURVE",
"157 268 CURVE"
);
},
{
closed = 1;
nodes = (
"238 601 CURVE SMOOTH",
"301 601 OFFCURVE",
"338 532 OFFCURVE",
"338 457 CURVE SMOOTH",
"338 345 OFFCURVE",
"262 286 OFFCURVE",
"154 283 CURVE",
"143 329 OFFCURVE",
"116 379 OFFCURVE",
"78 379 CURVE SMOOTH",
"51 379 OFFCURVE",
"34 358 OFFCURVE",
"34 333 CURVE SMOOTH",
"34 276 OFFCURVE",
"105 231 OFFCURVE",
"177 231 CURVE SMOOTH",
"297 231 OFFCURVE",
"390 318 OFFCURVE",
"390 436 CURVE SMOOTH",
"390 536 OFFCURVE",
"308 649 OFFCURVE",
"217 649 CURVE SMOOTH",
"154 649 OFFCURVE",
"115 596 OFFCURVE",
"115 543 CURVE SMOOTH",
"115 463 OFFCURVE",
"187 400 OFFCURVE",
"234 400 CURVE SMOOTH",
"243 400 OFFCURVE",
"252 405 OFFCURVE",
"256 415 CURVE",
"208 435 OFFCURVE",
"169 478 OFFCURVE",
"169 524 CURVE SMOOTH",
"169 567 OFFCURVE",
"195 601 OFFCURVE"
);
},
{
closed = 1;
nodes = (
"541 513 CURVE SMOOTH",
"541 355 OFFCURVE",
"537 215 OFFCURVE",
"537 78 CURVE SMOOTH",
"537 38 OFFCURVE",
"542 -5 OFFCURVE",
"583 -5 CURVE SMOOTH",
"587 -5 OFFCURVE",
"594 -4 OFFCURVE",
"600 -1 CURVE",
"592 11 OFFCURVE",
"590 46 OFFCURVE",
"590 80 CURVE SMOOTH",
"590 238 OFFCURVE",
"594 378 OFFCURVE",
"594 515 CURVE SMOOTH",
"594 554 OFFCURVE",
"591 594 OFFCURVE",
"553 600 CURVE",
"559 595 LINE",
"726 595 LINE",
"727 597 OFFCURVE",
"728 603 OFFCURVE",
"728 608 CURVE SMOOTH",
"728 624 OFFCURVE",
"720 646 OFFCURVE",
"674 646 CURVE SMOOTH",
"484 646 LINE",
"483 644 OFFCURVE",
"482 638 OFFCURVE",
"482 633 CURVE SMOOTH",
"482 611 OFFCURVE",
"496 603 OFFCURVE",
"510 596 CURVE SMOOTH",
"532 585 OFFCURVE",
"541 571 OFFCURVE"
);
}
);
width = 701;
}
);
unicode = 0936;
},
{
glyphname = dvSSA;
layers = (
{
layerId = "7E8129F4-1E15-4123-8D26-95A3779BF9A9";
name = Light;
paths = (
{
closed = 1;
nodes = (
"70 595 CURVE",
"78 583 OFFCURVE",
"80 547 OFFCURVE",
"80 513 CURVE SMOOTH",
"80 380 OFFCURVE",
"79 462 OFFCURVE",
"79 346 CURVE SMOOTH",
"79 274 OFFCURVE",
"153 176 OFFCURVE",
"251 176 CURVE SMOOTH",
"342 176 OFFCURVE",
"403 229 OFFCURVE",
"424 264 CURVE",
"405 272 LINE",
"396 207 OFFCURVE",
"395 141 OFFCURVE",
"395 78 CURVE SMOOTH",
"395 38 OFFCURVE",
"399 -5 OFFCURVE",
"441 -5 CURVE SMOOTH",
"447 -5 OFFCURVE",
"452 -4 OFFCURVE",
"458 -1 CURVE",
"450 11 OFFCURVE",
"448 46 OFFCURVE",
"448 80 CURVE SMOOTH",
"448 238 OFFCURVE",
"452 378 OFFCURVE",
"452 515 CURVE SMOOTH",
"452 554 OFFCURVE",
"448 600 OFFCURVE",
"411 600 CURVE SMOOTH",
"400 600 OFFCURVE",
"394 598 OFFCURVE",
"389 595 CURVE",
"396 583 OFFCURVE",
"399 547 OFFCURVE",
"399 513 CURVE SMOOTH",
"399 432 OFFCURVE",
"398 356 OFFCURVE",
"397 283 CURVE",
"405 320 LINE",
"359 260 OFFCURVE",
"291 227 OFFCURVE",
"227 227 CURVE SMOOTH",
"167 227 OFFCURVE",
"132 270 OFFCURVE",
"132 322 CURVE SMOOTH",
"132 475 OFFCURVE",
"133 376 OFFCURVE",
"133 509 CURVE SMOOTH",
"133 524 OFFCURVE",
"131 544 OFFCURVE",
"116 564 CURVE",
"98 567 LINE",
"175 507 OFFCURVE",
"336 330 OFFCURVE",
"393 266 CURVE",
"421 287 LINE",
"165 559 OFFCURVE",
"126 601 OFFCURVE",
"94 601 CURVE SMOOTH",
"85 601 OFFCURVE",
"77 599 OFFCURVE"
);
},
{
closed = 1;
nodes = (
"-37 646 LINE",
"-38 644 OFFCURVE",
"-39 638 OFFCURVE",
"-39 633 CURVE SMOOTH",
"-39 617 OFFCURVE",
"-31 595 OFFCURVE",
"15 595 CURVE SMOOTH",
"584 595 LINE",
"585 597 OFFCURVE",
"586 603 OFFCURVE",
"586 608 CURVE SMOOTH",
"586 624 OFFCURVE",
"578 646 OFFCURVE",
"532 646 CURVE SMOOTH"
);
}
);
width = 559;
}
);
unicode = 0937;
},
{
glyphname = dvSA;
layers = (
{
layerId = "7E8129F4-1E15-4123-8D26-95A3779BF9A9";
name = Light;
paths = (
{
closed = 1;
nodes = (
"-37 646 LINE",
"-38 644 OFFCURVE",
"-39 638 OFFCURVE",
"-39 633 CURVE SMOOTH",
"-39 617 OFFCURVE",
"-31 595 OFFCURVE",
"15 595 CURVE SMOOTH",
"720 595 LINE",
"721 597 OFFCURVE",
"722 603 OFFCURVE",
"722 608 CURVE SMOOTH",
"722 624 OFFCURVE",
"714 646 OFFCURVE",
"668 646 CURVE SMOOTH"
);
},
{
closed = 1;
nodes = (
"286 307 LINE",
"347 279 OFFCURVE",
"406 270 OFFCURVE",
"454 270 CURVE SMOOTH",
"501 270 OFFCURVE",
"534 279 OFFCURVE",
"544 285 CURVE",
"549 350 LINE",
"536 340 OFFCURVE",
"488 319 OFFCURVE",
"418 319 CURVE SMOOTH",
"384 319 OFFCURVE",
"345 324 OFFCURVE",
"303 338 CURVE"
);
},
{
closed = 1;
nodes = (
"535 513 CURVE SMOOTH",
"535 355 OFFCURVE",
"531 215 OFFCURVE",
"531 78 CURVE SMOOTH",
"531 38 OFFCURVE",
"536 -5 OFFCURVE",
"577 -5 CURVE SMOOTH",
"581 -5 OFFCURVE",
"588 -4 OFFCURVE",
"594 -1 CURVE",
"586 11 OFFCURVE",
"584 46 OFFCURVE",
"584 80 CURVE SMOOTH",
"584 238 OFFCURVE",
"588 378 OFFCURVE",
"588 515 CURVE SMOOTH",
"588 554 OFFCURVE",
"584 600 OFFCURVE",
"547 600 CURVE SMOOTH",
"536 600 OFFCURVE",
"530 598 OFFCURVE",
"525 595 CURVE",
"533 583 OFFCURVE",
"535 547 OFFCURVE"
);
},
{
closed = 1;
nodes = (
"114 273 LINE",
"134 171 OFFCURVE",
"190 -4 OFFCURVE",
"290 -4 CURVE SMOOTH",
"322 -4 OFFCURVE",
"341 16 OFFCURVE",
"341 40 CURVE SMOOTH",
"341 48 OFFCURVE",
"339 57 OFFCURVE",
"334 66 CURVE",
"324 61 OFFCURVE",
"312 59 OFFCURVE",
"300 59 CURVE SMOOTH",
"203 59 OFFCURVE",
"171 164 OFFCURVE",
"151 261 CURVE"
);
},
{
closed = 1;
nodes = (
"150 279 LINE",
"141 335 OFFCURVE",
"128 413 OFFCURVE",
"71 413 CURVE SMOOTH",
"45 413 OFFCURVE",
"25 390 OFFCURVE",
"25 363 CURVE SMOOTH",
"25 293 OFFCURVE",
"100 253 OFFCURVE",
"169 253 CURVE SMOOTH",
"248 253 OFFCURVE",
"332 312 OFFCURVE",
"332 413 CURVE SMOOTH",
"332 498 OFFCURVE",
"285 580 OFFCURVE",
"217 631 CURVE",
"192 607 LINE",
"246 575 OFFCURVE",
"281 508 OFFCURVE",
"281 431 CURVE SMOOTH",
"281 366 OFFCURVE",
"235 309 OFFCURVE",
"152 307 CURVE SMOOTH",
"143 307 OFFCURVE",
"135 307 OFFCURVE",
"130 309 CURVE"
);
}
);
width = 695;
}
);
unicode = 0938;
},
{
glyphname = dvHA;
layers = (
{
anchors = (
{
name = abvm.bindu;
position = "{253, 646}";
},
{
name = abvm.e;
position = "{348, 646}";
},
{
name = blwm.u;
position = "{285, -41}";
},
{
name = blwm.uu;
position = "{281, -41}";
},
{
name = blwm.virama;
position = "{294, -77}";
}
);
layerId = "7E8129F4-1E15-4123-8D26-95A3779BF9A9";
name = Light;
paths = (
{
closed = 1;
nodes = (
"186 262 LINE",
"154 292 OFFCURVE",
"128 320 OFFCURVE",
"128 359 CURVE SMOOTH",
"128 398 OFFCURVE",
"157 441 OFFCURVE",
"219 441 CURVE SMOOTH",
"247 441 OFFCURVE",
"270 440 OFFCURVE",
"299 440 CURVE SMOOTH",
"354 440 OFFCURVE",
"386 469 OFFCURVE",
"386 510 CURVE SMOOTH",
"386 556 OFFCURVE",
"355 594 OFFCURVE",
"322 614 CURVE",
"286 601 LINE",
"315 589 OFFCURVE",
"338 562 OFFCURVE",
"338 532 CURVE SMOOTH",
"338 510 OFFCURVE",
"321 491 OFFCURVE",
"287 491 CURVE SMOOTH",
"257 491 OFFCURVE",
"244 492 OFFCURVE",
"220 492 CURVE SMOOTH",
"117 492 OFFCURVE",
"81 436 OFFCURVE",
"81 378 CURVE SMOOTH",
"81 315 OFFCURVE",
"129 269 OFFCURVE",
"169 236 CURVE"
);
},
{
closed = 1;
nodes = (
"-37 646 LINE",
"-38 644 OFFCURVE",
"-39 638 OFFCURVE",
"-39 633 CURVE SMOOTH",
"-39 617 OFFCURVE",
"-31 595 OFFCURVE",
"15 595 CURVE SMOOTH",
"512 595 LINE",
"513 597 OFFCURVE",
"514 603 OFFCURVE",
"514 608 CURVE SMOOTH",
"514 624 OFFCURVE",
"506 646 OFFCURVE",
"460 646 CURVE SMOOTH"
);
},
{
closed = 1;
nodes = (
"309 114 CURVE",
"309 86 OFFCURVE",
"332 72 OFFCURVE",
"356 72 CURVE SMOOTH",
"406 72 OFFCURVE",
"438 118 OFFCURVE",
"438 166 CURVE SMOOTH",
"438 234 OFFCURVE",
"371 318 OFFCURVE",
"266 318 CURVE SMOOTH",
"155 318 OFFCURVE",
"86 232 OFFCURVE",
"86 143 CURVE SMOOTH",
"86 9 OFFCURVE",
"214 -80 OFFCURVE",
"339 -80 CURVE SMOOTH",
"361 -80 OFFCURVE",
"381 -74 OFFCURVE",
"381 -55 CURVE SMOOTH",
"381 -55 OFFCURVE",
"381 -50 OFFCURVE",
"380 -47 CURVE",
"372 -48 OFFCURVE",
"364 -48 OFFCURVE",
"356 -48 CURVE SMOOTH",
"243 -48 OFFCURVE",
"139 13 OFFCURVE",
"139 124 CURVE SMOOTH",
"139 222 OFFCURVE",
"222 271 OFFCURVE",
"288 271 CURVE SMOOTH",
"350 271 OFFCURVE",
"391 237 OFFCURVE",
"391 189 CURVE SMOOTH",
"391 148 OFFCURVE",
"361 116 OFFCURVE"
);
}
);
width = 487;
}
);
unicode = 0939;
},
{
glyphname = dvmAA;
layers = (
{
layerId = "7E8129F4-1E15-4123-8D26-95A3779BF9A9";
name = Light;
paths = (
{
closed = 1;
nodes = (
"-37 646 LINE",
"-38 644 OFFCURVE",
"-39 638 OFFCURVE",
"-39 633 CURVE SMOOTH",
"-39 617 OFFCURVE",
"-31 595 OFFCURVE",
"15 595 CURVE SMOOTH",
"294 595 LINE",
"295 597 OFFCURVE",
"296 603 OFFCURVE",
"296 608 CURVE SMOOTH",
"296 624 OFFCURVE",
"288 646 OFFCURVE",
"242 646 CURVE SMOOTH"
);
},
{
closed = 1;
nodes = (
"109 513 CURVE SMOOTH",
"109 355 OFFCURVE",
"105 215 OFFCURVE",
"105 78 CURVE SMOOTH",
"105 38 OFFCURVE",
"110 -5 OFFCURVE",
"151 -5 CURVE SMOOTH",
"155 -5 OFFCURVE",
"162 -4 OFFCURVE",
"168 -1 CURVE",
"160 11 OFFCURVE",
"158 46 OFFCURVE",
"158 80 CURVE SMOOTH",
"158 238 OFFCURVE",
"162 378 OFFCURVE",
"162 515 CURVE SMOOTH",
"162 554 OFFCURVE",
"158 600 OFFCURVE",
"121 600 CURVE SMOOTH",
"110 600 OFFCURVE",
"104 598 OFFCURVE",
"99 595 CURVE",
"107 583 OFFCURVE",
"109 547 OFFCURVE"
);
}
);
width = 269;
}
);
unicode = 093E;
},
{
glyphname = dvmI;
layers = (
{
layerId = "7E8129F4-1E15-4123-8D26-95A3779BF9A9";
name = Light;
paths = (
{
closed = 1;
nodes = (
"-37 646 LINE",
"-38 644 OFFCURVE",
"-39 638 OFFCURVE",
"-39 633 CURVE SMOOTH",
"-39 617 OFFCURVE",
"-31 595 OFFCURVE",
"15 595 CURVE SMOOTH",
"294 595 LINE",
"295 597 OFFCURVE",
"296 603 OFFCURVE",
"296 608 CURVE SMOOTH",
"296 624 OFFCURVE",
"288 646 OFFCURVE",
"242 646 CURVE SMOOTH"
);
},
{
closed = 1;
nodes = (
"109 513 CURVE SMOOTH",
"109 355 OFFCURVE",
"105 215 OFFCURVE",
"105 78 CURVE SMOOTH",
"105 38 OFFCURVE",
"110 -5 OFFCURVE",
"151 -5 CURVE SMOOTH",
"155 -5 OFFCURVE",
"162 -4 OFFCURVE",
"168 -1 CURVE",
"160 11 OFFCURVE",
"158 46 OFFCURVE",
"158 80 CURVE SMOOTH",
"158 238 OFFCURVE",
"162 378 OFFCURVE",
"162 515 CURVE SMOOTH",
"162 613 OFFCURVE",
"120 656 OFFCURVE",
"120 730 CURVE SMOOTH",
"120 821 OFFCURVE",
"198 854 OFFCURVE",
"270 854 CURVE SMOOTH",
"404 854 OFFCURVE",
"539 781 OFFCURVE",
"625 716 CURVE",
"630 719 OFFCURVE",
"634 725 OFFCURVE",
"634 730 CURVE SMOOTH",
"634 768 OFFCURVE",
"429 902 OFFCURVE",
"248 902 CURVE SMOOTH",
"145 902 OFFCURVE",
"69 848 OFFCURVE",
"69 758 CURVE SMOOTH",
"69 666 OFFCURVE",
"109 663 OFFCURVE"
);
}
);
width = 269;
}
);
unicode = 093F;
},
{
glyphname = dvmII;
layers = (
{
layerId = "7E8129F4-1E15-4123-8D26-95A3779BF9A9";
name = Light;
paths = (
{
closed = 1;
nodes = (
"-37 646 LINE",
"-38 644 OFFCURVE",
"-39 638 OFFCURVE",
"-39 633 CURVE SMOOTH",
"-39 617 OFFCURVE",
"-31 595 OFFCURVE",
"15 595 CURVE SMOOTH",
"294 595 LINE",
"295 597 OFFCURVE",
"296 603 OFFCURVE",
"296 608 CURVE SMOOTH",
"296 624 OFFCURVE",
"288 646 OFFCURVE",
"242 646 CURVE SMOOTH"
);
},
{
closed = 1;
nodes = (
"109 513 CURVE SMOOTH",
"109 355 OFFCURVE",
"105 215 OFFCURVE",
"105 78 CURVE SMOOTH",
"105 38 OFFCURVE",
"110 -5 OFFCURVE",
"151 -5 CURVE SMOOTH",
"155 -5 OFFCURVE",
"162 -4 OFFCURVE",
"168 -1 CURVE",
"160 11 OFFCURVE",
"158 46 OFFCURVE",
"158 80 CURVE SMOOTH",
"158 238 OFFCURVE",
"162 378 OFFCURVE",
"162 515 CURVE SMOOTH",
"162 712 OFFCURVE",
"46 904 OFFCURVE",
"-90 904 CURVE SMOOTH",
"-151 904 OFFCURVE",
"-194 862 OFFCURVE",
"-194 807 CURVE SMOOTH",
"-194 750 OFFCURVE",
"-156 710 OFFCURVE",
"-125 710 CURVE SMOOTH",
"-121 710 OFFCURVE",
"-114 712 OFFCURVE",
"-112 717 CURVE",
"-132 738 OFFCURVE",
"-143 761 OFFCURVE",
"-143 785 CURVE SMOOTH",
"-143 828 OFFCURVE",
"-111 855 OFFCURVE",
"-72 855 CURVE SMOOTH",
"31 855 OFFCURVE",
"109 722 OFFCURVE"
);
}
);
width = 269;
}
);
unicode = 0940;
},
{
glyphname = dvmU;
layers = (
{
anchors = (
{
name = _blwm.u;
position = "{-101, -1}";
}
);
layerId = "7E8129F4-1E15-4123-8D26-95A3779BF9A9";
name = Light;
paths = (
{
closed = 1;
nodes = (
"-156 -229 CURVE SMOOTH",
"-77 -229 OFFCURVE",
"-14 -181 OFFCURVE",
"-14 -114 CURVE SMOOTH",
"-14 -43 OFFCURVE",
"-85 8 OFFCURVE",
"-149 8 CURVE SMOOTH",
"-191 8 OFFCURVE",
"-221 -17 OFFCURVE",
"-221 -47 CURVE SMOOTH",
"-221 -63 OFFCURVE",
"-209 -82 OFFCURVE",
"-186 -84 CURVE",
"-175 -58 OFFCURVE",
"-152 -39 OFFCURVE",
"-119 -39 CURVE SMOOTH",
"-85 -39 OFFCURVE",
"-58 -62 OFFCURVE",
"-58 -94 CURVE SMOOTH",
"-58 -138 OFFCURVE",
"-101 -181 OFFCURVE",
"-178 -181 CURVE SMOOTH",
"-264 -181 OFFCURVE",
"-341 -115 OFFCURVE",
"-390 -35 CURVE",
"-398 -37 OFFCURVE",
"-405 -44 OFFCURVE",
"-405 -54 CURVE SMOOTH",
"-405 -96 OFFCURVE",
"-293 -229 OFFCURVE"
);
}
);
width = 0;
}
);
unicode = 0941;
},
{
glyphname = dvmUU;
layers = (
{
anchors = (
{
name = _blwm.uu;
position = "{-101, -1}";
}
);
layerId = "7E8129F4-1E15-4123-8D26-95A3779BF9A9";
name = Light;
paths = (
{
closed = 1;
nodes = (
"-265 -101 CURVE SMOOTH",
"-265 -170 OFFCURVE",
"-192 -232 OFFCURVE",
"-131 -232 CURVE SMOOTH",
"-102 -232 OFFCURVE",
"-71 -213 OFFCURVE",
"-71 -183 CURVE SMOOTH",
"-71 -168 OFFCURVE",
"-80 -152 OFFCURVE",
"-100 -147 CURVE",
"-113 -167 OFFCURVE",
"-135 -180 OFFCURVE",
"-161 -180 CURVE SMOOTH",
"-194 -180 OFFCURVE",
"-215 -159 OFFCURVE",
"-215 -129 CURVE SMOOTH",
"-215 -83 OFFCURVE",
"-171 -47 OFFCURVE",
"-117 -47 CURVE SMOOTH",
"-17 -47 OFFCURVE",
"59 -134 OFFCURVE",
"98 -217 CURVE",
"109 -215 OFFCURVE",
"114 -207 OFFCURVE",
"114 -198 CURVE SMOOTH",
"114 -143 OFFCURVE",
"1 4 OFFCURVE",
"-143 4 CURVE SMOOTH",
"-214 4 OFFCURVE",
"-265 -42 OFFCURVE"
);
}
);
width = 0;
}
);
unicode = 0942;
},
{
glyphname = dvmvR;
layers = (
{
anchors = (
{
name = _blwm.r;
position = "{-101, -1}";
}
);
layerId = "7E8129F4-1E15-4123-8D26-95A3779BF9A9";
name = Light;
paths = (
{
closed = 1;
nodes = (
"-301 -91 CURVE SMOOTH",
"-301 -176 OFFCURVE",
"-217 -223 OFFCURVE",
"-144 -223 CURVE SMOOTH",
"-53 -223 OFFCURVE",
"-7 -172 OFFCURVE",
"-7 -130 CURVE SMOOTH",
"-7 -106 OFFCURVE",
"-25 -90 OFFCURVE",
"-43 -88 CURVE",
"-58 -144 OFFCURVE",
"-110 -183 OFFCURVE",
"-169 -183 CURVE SMOOTH",
"-208 -183 OFFCURVE",
"-250 -158 OFFCURVE",
"-250 -111 CURVE SMOOTH",
"-250 -57 OFFCURVE",
"-203 -14 OFFCURVE",
"-118 -5 CURVE",
"-118 28 OFFCURVE",
"-141 38 OFFCURVE",
"-165 38 CURVE SMOOTH",
"-230 38 OFFCURVE",
"-301 -16 OFFCURVE"
);
}
);
width = 0;
}
);
unicode = 0943;
},
{
glyphname = dvVirama;
layers = (
{
anchors = (
{
name = _blwm.virama;
position = "{-101, -1}";
}
);
layerId = "7E8129F4-1E15-4123-8D26-95A3779BF9A9";
name = Light;
paths = (
{
closed = 1;
nodes = (
"-200 -92 CURVE",
"-186 -84 OFFCURVE",
"-170 -80 OFFCURVE",
"-153 -80 CURVE SMOOTH",
"-98 -80 OFFCURVE",
"-30 -121 OFFCURVE",
"36 -194 CURVE",
"45 -190 OFFCURVE",
"48 -184 OFFCURVE",
"48 -178 CURVE SMOOTH",
"48 -154 OFFCURVE",
"-71 -28 OFFCURVE",
"-157 -28 CURVE SMOOTH",
"-190 -28 OFFCURVE",
"-209 -46 OFFCURVE",
"-209 -69 CURVE SMOOTH",
"-209 -77 OFFCURVE",
"-206 -85 OFFCURVE"
);
}
);
width = 0;
}
);
unicode = 094D;
},
{
glyphname = dvOm;
layers = (
{
layerId = "7E8129F4-1E15-4123-8D26-95A3779BF9A9";
name = Light;
paths = (
{
closed = 1;
nodes = (
"437 302 LINE",
"452 277 OFFCURVE",
"478 265 OFFCURVE",
"504 265 CURVE SMOOTH",
"643 265 OFFCURVE",
"618 507 OFFCURVE",
"735 507 CURVE SMOOTH",
"806 507 OFFCURVE",
"837 420 OFFCURVE",
"837 364 CURVE SMOOTH",
"837 240 OFFCURVE",
"769 156 OFFCURVE",
"661 153 CURVE",
"661 119 OFFCURVE",
"684 108 OFFCURVE",
"708 108 CURVE SMOOTH",
"807 108 OFFCURVE",
"889 214 OFFCURVE",
"889 330 CURVE SMOOTH",
"889 440 OFFCURVE",
"807 557 OFFCURVE",
"713 557 CURVE SMOOTH",
"578 557 OFFCURVE",
"591 311 OFFCURVE",
"487 311 CURVE SMOOTH",
"431 311 OFFCURVE",
"391 401 OFFCURVE",
"296 401 CURVE SMOOTH",
"264 401 OFFCURVE",
"239 384 OFFCURVE",
"239 355 CURVE SMOOTH",
"239 316 OFFCURVE",
"280 300 OFFCURVE",
"311 300 CURVE SMOOTH",
"341 300 OFFCURVE",
"368 308 OFFCURVE",
"394 322 CURVE",
"405 314 OFFCURVE",
"439 282 OFFCURVE",
"439 228 CURVE SMOOTH",
"439 161 OFFCURVE",
"389 123 OFFCURVE",
"325 123 CURVE SMOOTH",
"235 123 OFFCURVE",
"164 201 OFFCURVE",
"127 277 CURVE",
"116 274 OFFCURVE",
"111 268 OFFCURVE",
"111 257 CURVE SMOOTH",
"111 216 OFFCURVE",
"208 70 OFFCURVE",
"349 70 CURVE SMOOTH",
"432 70 OFFCURVE",
"492 120 OFFCURVE",
"492 203 CURVE SMOOTH",
"492 233 OFFCURVE",
"482 263 OFFCURVE",
"466 290 CURVE"
);
},
{
closed = 1;
nodes = (
"534 791 CURVE SMOOTH",
"559 791 OFFCURVE",
"576 809 OFFCURVE",
"576 833 CURVE SMOOTH",
"576 863 OFFCURVE",
"547 891 OFFCURVE",
"518 891 CURVE SMOOTH",
"493 891 OFFCURVE",
"476 873 OFFCURVE",
"476 849 CURVE SMOOTH",
"476 819 OFFCURVE",
"504 791 OFFCURVE"
);
},
{
closed = 1;
nodes = (
"366 786 CURVE",
"355 782 OFFCURVE",
"353 774 OFFCURVE",
"353 768 CURVE SMOOTH",
"353 735 OFFCURVE",
"439 660 OFFCURVE",
"554 660 CURVE SMOOTH",
"639 660 OFFCURVE",
"717 696 OFFCURVE",
"717 750 CURVE SMOOTH",
"717 769 OFFCURVE",
"704 784 OFFCURVE",
"685 788 CURVE",
"656 730 OFFCURVE",
"590 705 OFFCURVE",
"529 705 CURVE SMOOTH",
"465 705 OFFCURVE",
"407 731 OFFCURVE"
);
},
{
closed = 1;
nodes = (
"412 335 LINE",
"447 362 OFFCURVE",
"470 403 OFFCURVE",
"470 448 CURVE SMOOTH",
"470 537 OFFCURVE",
"389 608 OFFCURVE",
"293 608 CURVE SMOOTH",
"238 608 OFFCURVE",
"205 582 OFFCURVE",
"205 556 CURVE SMOOTH",
"205 540 OFFCURVE",
"213 529 OFFCURVE",
"226 522 CURVE",
"252 544 OFFCURVE",
"289 556 OFFCURVE",
"325 556 CURVE SMOOTH",
"377 556 OFFCURVE",
"424 530 OFFCURVE",
"424 472 CURVE SMOOTH",
"424 430 OFFCURVE",
"394 382 OFFCURVE",
"328 354 CURVE"
);
}
);
width = 965;
}
);
unicode = 0950;
},
{
glyphname = danda;
layers = (
{
layerId = "7E8129F4-1E15-4123-8D26-95A3779BF9A9";
name = Light;
paths = (
{
closed = 1;
nodes = (
"280 567 CURVE SMOOTH",
"280 607 OFFCURVE",
"276 650 OFFCURVE",
"235 650 CURVE SMOOTH",
"231 650 OFFCURVE",
"224 649 OFFCURVE",
"218 647 CURVE",
"226 635 OFFCURVE",
"228 599 OFFCURVE",
"228 565 CURVE SMOOTH",
"228 342 OFFCURVE",
"222 214 OFFCURVE",
"222 78 CURVE SMOOTH",
"222 38 OFFCURVE",
"226 -5 OFFCURVE",
"267 -5 CURVE SMOOTH",
"271 -5 OFFCURVE",
"278 -4 OFFCURVE",
"284 -2 CURVE",
"276 10 OFFCURVE",
"274 46 OFFCURVE",
"274 80 CURVE SMOOTH",
"274 257 OFFCURVE",
"280 362 OFFCURVE"
);
}
);
width = 386;
}
);
unicode = 0964;
},
{
glyphname = doubledanda;
layers = (
{
layerId = "7E8129F4-1E15-4123-8D26-95A3779BF9A9";
name = Light;
paths = (
{
closed = 1;
nodes = (
"280 567 CURVE SMOOTH",
"280 607 OFFCURVE",
"276 650 OFFCURVE",
"235 650 CURVE SMOOTH",
"231 650 OFFCURVE",
"224 649 OFFCURVE",
"218 647 CURVE",
"226 635 OFFCURVE",
"228 599 OFFCURVE",
"228 565 CURVE SMOOTH",
"228 342 OFFCURVE",
"222 214 OFFCURVE",
"222 78 CURVE SMOOTH",
"222 38 OFFCURVE",
"226 -5 OFFCURVE",
"267 -5 CURVE SMOOTH",
"271 -5 OFFCURVE",
"278 -4 OFFCURVE",
"284 -2 CURVE",
"276 10 OFFCURVE",
"274 46 OFFCURVE",
"274 80 CURVE SMOOTH",
"274 257 OFFCURVE",
"280 362 OFFCURVE"
);
},
{
closed = 1;
nodes = (
"507 567 CURVE SMOOTH",
"507 607 OFFCURVE",
"503 650 OFFCURVE",
"462 650 CURVE SMOOTH",
"458 650 OFFCURVE",
"451 649 OFFCURVE",
"445 647 CURVE",
"453 635 OFFCURVE",
"455 599 OFFCURVE",
"455 565 CURVE SMOOTH",
"455 342 OFFCURVE",
"449 214 OFFCURVE",
"449 78 CURVE SMOOTH",
"449 38 OFFCURVE",
"453 -5 OFFCURVE",
"494 -5 CURVE SMOOTH",
"498 -5 OFFCURVE",
"505 -4 OFFCURVE",
"511 -2 CURVE",
"503 10 OFFCURVE",
"501 46 OFFCURVE",
"501 80 CURVE SMOOTH",
"501 257 OFFCURVE",
"507 362 OFFCURVE"
);
}
);
width = 613;
}
);
unicode = 0965;
},
{
glyphname = dvK_SSA;
layers = (
{
layerId = "7E8129F4-1E15-4123-8D26-95A3779BF9A9";
name = Light;
paths = (
{
closed = 1;
nodes = (
"559 376 LINE",
"551 254 OFFCURVE",
"551 174 OFFCURVE",
"551 78 CURVE SMOOTH",
"551 38 OFFCURVE",
"556 -5 OFFCURVE",
"597 -5 CURVE SMOOTH",
"601 -5 OFFCURVE",
"608 -4 OFFCURVE",
"614 -1 CURVE",
"606 11 OFFCURVE",
"604 46 OFFCURVE",
"604 80 CURVE SMOOTH",
"604 238 OFFCURVE",
"608 378 OFFCURVE",
"608 515 CURVE SMOOTH",
"608 554 OFFCURVE",
"605 594 OFFCURVE",
"567 600 CURVE",
"573 595 LINE",
"740 595 LINE",
"741 597 OFFCURVE",
"742 603 OFFCURVE",
"742 608 CURVE SMOOTH",
"742 624 OFFCURVE",
"734 646 OFFCURVE",
"688 646 CURVE SMOOTH",
"498 646 LINE",
"497 644 OFFCURVE",
"496 638 OFFCURVE",
"496 633 CURVE SMOOTH",
"496 611 OFFCURVE",
"510 603 OFFCURVE",
"524 596 CURVE SMOOTH",
"546 585 OFFCURVE",
"555 571 OFFCURVE",
"555 513 CURVE SMOOTH",
"555 474 OFFCURVE",
"554 436 OFFCURVE",
"554 399 CURVE",
"569 431 LINE",
"516 389 OFFCURVE",
"444 374 OFFCURVE",
"375 374 CURVE SMOOTH",
"293 374 OFFCURVE",
"152 421 OFFCURVE",
"152 514 CURVE SMOOTH",
"152 568 OFFCURVE",
"194 600 OFFCURVE",
"239 600 CURVE SMOOTH",
"284 600 OFFCURVE",
"314 565 OFFCURVE",
"314 520 CURVE SMOOTH",
"314 397 OFFCURVE",
"49 389 OFFCURVE",
"49 225 CURVE SMOOTH",
"49 120 OFFCURVE",
"162 45 OFFCURVE",
"271 45 CURVE SMOOTH",
"326 45 OFFCURVE",
"401 72 OFFCURVE",
"401 140 CURVE SMOOTH",
"401 178 OFFCURVE",
"375 203 OFFCURVE",
"346 203 CURVE SMOOTH",
"318 203 OFFCURVE",
"297 180 OFFCURVE",
"297 153 CURVE SMOOTH",
"297 133 OFFCURVE",
"305 115 OFFCURVE",
"326 95 CURVE",
"340 131 LINE",
"306 101 OFFCURVE",
"265 94 OFFCURVE",
"225 94 CURVE SMOOTH",
"156 94 OFFCURVE",
"102 140 OFFCURVE",
"102 203 CURVE SMOOTH",
"102 349 OFFCURVE",
"367 355 OFFCURVE",
"367 499 CURVE SMOOTH",
"367 588 OFFCURVE",
"279 647 OFFCURVE",
"216 647 CURVE SMOOTH",
"157 647 OFFCURVE",
"100 609 OFFCURVE",
"100 532 CURVE SMOOTH",
"100 431 OFFCURVE",
"234 326 OFFCURVE",
"409 326 CURVE SMOOTH",
"472 326 OFFCURVE",
"544 343 OFFCURVE",
"582 375 CURVE"
);
},
{
closed = 1;
nodes = (
"337 72 LINE",
"357 43 OFFCURVE",
"365 13 OFFCURVE",
"365 -16 CURVE SMOOTH",
"365 -41 OFFCURVE",
"349 -63 OFFCURVE",
"318 -64 CURVE",
"322 -89 OFFCURVE",
"344 -100 OFFCURVE",
"363 -100 CURVE SMOOTH",
"389 -100 OFFCURVE",
"416 -79 OFFCURVE",
"416 -37 CURVE SMOOTH",
"416 8 OFFCURVE",
"392 51 OFFCURVE",
"367 88 CURVE"
);
}
);
width = 710;
}
);
},
{
glyphname = dvJ_NYA;
layers = (
{
layerId = "7E8129F4-1E15-4123-8D26-95A3779BF9A9";
name = Light;
paths = (
{
closed = 1;
nodes = (
"-37 646 LINE",
"-38 644 OFFCURVE",
"-39 638 OFFCURVE",
"-39 633 CURVE SMOOTH",
"-39 617 OFFCURVE",
"-31 595 OFFCURVE",
"15 595 CURVE SMOOTH",
"682 595 LINE",
"683 597 OFFCURVE",
"684 603 OFFCURVE",
"684 608 CURVE SMOOTH",
"684 624 OFFCURVE",
"676 646 OFFCURVE",
"630 646 CURVE SMOOTH"
);
},
{
closed = 1;
nodes = (
"497 513 CURVE SMOOTH",
"497 355 OFFCURVE",
"493 215 OFFCURVE",
"493 78 CURVE SMOOTH",
"493 38 OFFCURVE",
"498 -5 OFFCURVE",
"539 -5 CURVE SMOOTH",
"543 -5 OFFCURVE",
"550 -4 OFFCURVE",
"556 -1 CURVE",
"548 11 OFFCURVE",
"546 46 OFFCURVE",
"546 80 CURVE SMOOTH",
"546 238 OFFCURVE",
"550 378 OFFCURVE",
"550 515 CURVE SMOOTH",
"550 554 OFFCURVE",
"546 600 OFFCURVE",
"509 600 CURVE SMOOTH",
"498 600 OFFCURVE",
"492 598 OFFCURVE",
"487 595 CURVE",
"495 583 OFFCURVE",
"497 547 OFFCURVE"
);
},
{
closed = 1;
nodes = (
"529 448 LINE",
"104 448 LINE",
"103 446 OFFCURVE",
"102 440 OFFCURVE",
"102 435 CURVE SMOOTH",
"102 419 OFFCURVE",
"110 397 OFFCURVE",
"156 397 CURVE SMOOTH",
"529 397 LINE"
);
},
{
closed = 1;
nodes = (
"143 129 LINE",
"135 174 OFFCURVE",
"123 238 OFFCURVE",
"74 238 CURVE SMOOTH",
"50 238 OFFCURVE",
"33 219 OFFCURVE",
"33 195 CURVE SMOOTH",
"33 139 OFFCURVE",
"99 105 OFFCURVE",
"169 105 CURVE SMOOTH",
"245 105 OFFCURVE",
"325 151 OFFCURVE",
"325 247 CURVE SMOOTH",
"325 313 OFFCURVE",
"285 385 OFFCURVE",
"208 427 CURVE",
"186 407 LINE",
"240 376 OFFCURVE",
"274 323 OFFCURVE",
"274 266 CURVE SMOOTH",
"274 209 OFFCURVE",
"233 157 OFFCURVE",
"153 157 CURVE SMOOTH",
"139 157 OFFCURVE",
"131 159 OFFCURVE",
"124 162 CURVE"
);
},
{
closed = 1;
nodes = (
"110 123 LINE",
"130 48 OFFCURVE",
"189 -82 OFFCURVE",
"293 -82 CURVE SMOOTH",
"325 -82 OFFCURVE",
"344 -62 OFFCURVE",
"344 -38 CURVE SMOOTH",
"344 -30 OFFCURVE",
"342 -20 OFFCURVE",
"337 -12 CURVE",
"323 -18 OFFCURVE",
"305 -21 OFFCURVE",
"290 -21 CURVE SMOOTH",
"217 -21 OFFCURVE",
"166 45 OFFCURVE",
"147 111 CURVE"
);
}
);
width = 657;
}
);
},
{
glyphname = dvRashtrasign;
layers = (
{
layerId = "7E8129F4-1E15-4123-8D26-95A3779BF9A9";
name = Light;
paths = (
{
closed = 1;
nodes = (
"-375 -161 CURVE",
"-305 -86 OFFCURVE",
"-241 -43 OFFCURVE",
"-215 -43 CURVE SMOOTH",
"-168 -43 OFFCURVE",
"-67 -141 OFFCURVE",
"-45 -164 CURVE",
"-38 -161 OFFCURVE",
"-33 -156 OFFCURVE",
"-33 -149 CURVE SMOOTH",
"-33 -120 OFFCURVE",
"-171 6 OFFCURVE",
"-230 6 CURVE SMOOTH",
"-279 6 OFFCURVE",
"-402 -93 OFFCURVE",
"-402 -126 CURVE SMOOTH",
"-402 -142 OFFCURVE",
"-393 -154 OFFCURVE"
);
}
);
width = 0;
}
);
},
{
glyphname = dvK;
layers = (
{
layerId = "7E8129F4-1E15-4123-8D26-95A3779BF9A9";
name = Light;
paths = (
{
closed = 1;
nodes = (
"374 262 LINE",
"395 367 OFFCURVE",
"463 414 OFFCURVE",
"525 414 CURVE SMOOTH",
"564 414 OFFCURVE",
"602 396 OFFCURVE",
"623 356 CURVE",
"636 358 OFFCURVE",
"640 367 OFFCURVE",
"640 373 CURVE SMOOTH",
"640 411 OFFCURVE",
"575 463 OFFCURVE",
"509 463 CURVE SMOOTH",
"443 463 OFFCURVE",
"394 422 OFFCURVE",
"372 372 CURVE",
"382 360 LINE",
"391 416 OFFCURVE",
"391 465 OFFCURVE",
"391 515 CURVE SMOOTH",
"391 554 OFFCURVE",
"387 600 OFFCURVE",
"350 600 CURVE SMOOTH",
"339 600 OFFCURVE",
"333 598 OFFCURVE",
"328 595 CURVE",
"336 583 OFFCURVE",
"338 547 OFFCURVE",
"338 513 CURVE SMOOTH",
"338 432 OFFCURVE",
"337 356 OFFCURVE",
"336 283 CURVE",
"344 326 LINE",
"318 241 OFFCURVE",
"258 202 OFFCURVE",
"203 202 CURVE SMOOTH",
"144 202 OFFCURVE",
"91 243 OFFCURVE",
"91 309 CURVE SMOOTH",
"91 362 OFFCURVE",
"130 419 OFFCURVE",
"210 419 CURVE SMOOTH",
"222 419 OFFCURVE",
"234 417 OFFCURVE",
"248 414 CURVE",
"250 419 OFFCURVE",
"251 423 OFFCURVE",
"251 428 CURVE SMOOTH",
"251 453 OFFCURVE",
"222 471 OFFCURVE",
"188 471 CURVE SMOOTH",
"100 471 OFFCURVE",
"44 408 OFFCURVE",
"44 338 CURVE SMOOTH",
"44 242 OFFCURVE",
"130 153 OFFCURVE",
"219 153 CURVE SMOOTH",
"289 153 OFFCURVE",
"332 194 OFFCURVE",
"351 241 CURVE",
"343 237 LINE",
"337 183 OFFCURVE",
"334 130 OFFCURVE",
"334 78 CURVE SMOOTH",
"334 38 OFFCURVE",
"339 -5 OFFCURVE",
"380 -5 CURVE SMOOTH",
"384 -5 OFFCURVE",
"391 -4 OFFCURVE",
"397 -1 CURVE",
"389 11 OFFCURVE",
"387 46 OFFCURVE",
"387 80 CURVE SMOOTH",
"387 170 OFFCURVE",
"388 261 OFFCURVE",
"389 342 CURVE"
);
},
{
closed = 1;
nodes = (
"-33 646 LINE",
"-34 644 OFFCURVE",
"-35 638 OFFCURVE",
"-35 633 CURVE SMOOTH",
"-35 617 OFFCURVE",
"-27 595 OFFCURVE",
"19 595 CURVE SMOOTH",
"579 595 LINE",
"580 597 OFFCURVE",
"581 603 OFFCURVE",
"581 608 CURVE SMOOTH",
"581 624 OFFCURVE",
"573 646 OFFCURVE",
"527 646 CURVE SMOOTH"
);
}
);
width = 542;
}
);
},
{
glyphname = dvKH;
layers = (
{
layerId = "7E8129F4-1E15-4123-8D26-95A3779BF9A9";
name = Light;
paths = (
{
closed = 1;
nodes = (
"-37 646 LINE",
"-38 644 OFFCURVE",
"-39 638 OFFCURVE",
"-39 633 CURVE SMOOTH",
"-39 617 OFFCURVE",
"-31 595 OFFCURVE",
"15 595 CURVE SMOOTH",
"596 595 LINE",
"597 597 OFFCURVE",
"598 603 OFFCURVE",
"598 608 CURVE SMOOTH",
"598 624 OFFCURVE",
"590 646 OFFCURVE",
"544 646 CURVE SMOOTH"
);
},
{
closed = 1;
nodes = (
"128 295 LINE",
"124 332 OFFCURVE",
"116 405 OFFCURVE",
"65 405 CURVE SMOOTH",
"42 405 OFFCURVE",
"25 388 OFFCURVE",
"25 360 CURVE SMOOTH",
"25 308 OFFCURVE",
"82 271 OFFCURVE",
"133 271 CURVE SMOOTH",
"222 271 OFFCURVE",
"282 341 OFFCURVE",
"282 426 CURVE SMOOTH",
"282 489 OFFCURVE",
"257 553 OFFCURVE",
"222 599 CURVE",
"183 599 LINE",
"216 560 OFFCURVE",
"234 508 OFFCURVE",
"234 456 CURVE SMOOTH",
"234 379 OFFCURVE",
"195 328 OFFCURVE",
"120 325 CURVE"
);
},
{
closed = 1;
nodes = (
"388 65 CURVE SMOOTH",
"537 65 OFFCURVE",
"651 164 OFFCURVE",
"651 298 CURVE SMOOTH",
"651 397 OFFCURVE",
"589 490 OFFCURVE",
"492 490 CURVE SMOOTH",
"413 490 OFFCURVE",
"362 430 OFFCURVE",
"362 363 CURVE SMOOTH",
"362 277 OFFCURVE",
"433 213 OFFCURVE",
"476 213 CURVE SMOOTH",
"487 213 OFFCURVE",
"493 220 OFFCURVE",
"494 226 CURVE",
"448 250 OFFCURVE",
"416 294 OFFCURVE",
"416 345 CURVE SMOOTH",
"416 392 OFFCURVE",
"444 445 OFFCURVE",
"508 445 CURVE SMOOTH",
"576 445 OFFCURVE",
"611 381 OFFCURVE",
"611 322 CURVE SMOOTH",
"611 206 OFFCURVE",
"511 115 OFFCURVE",
"370 115 CURVE SMOOTH",
"254 115 OFFCURVE",
"159 182 OFFCURVE",
"130 281 CURVE",
"90 283 LINE",
"137 147 OFFCURVE",
"251 65 OFFCURVE"
);
}
);
width = 575;
}
);
},
{
glyphname = dvG;
layers = (
{
layerId = "7E8129F4-1E15-4123-8D26-95A3779BF9A9";
name = Light;
paths = (
{
closed = 1;
nodes = (
"-37 646 LINE",
"-38 644 OFFCURVE",
"-39 638 OFFCURVE",
"-39 633 CURVE SMOOTH",
"-39 617 OFFCURVE",
"-31 595 OFFCURVE",
"15 595 CURVE SMOOTH",
"370 595 LINE",
"371 597 OFFCURVE",
"372 603 OFFCURVE",
"372 608 CURVE SMOOTH",
"372 624 OFFCURVE",
"364 646 OFFCURVE",
"318 646 CURVE SMOOTH"
);
},
{
closed = 1;
nodes = (
"87 598 LINE",
"135 551 OFFCURVE",
"177 455 OFFCURVE",
"177 372 CURVE SMOOTH",
"177 342 OFFCURVE",
"172 314 OFFCURVE",
"159 291 CURVE",
"150 323 OFFCURVE",
"122 341 OFFCURVE",
"99 341 CURVE SMOOTH",
"73 341 OFFCURVE",
"56 323 OFFCURVE",
"56 298 CURVE SMOOTH",
"56 254 OFFCURVE",
"102 219 OFFCURVE",
"142 219 CURVE SMOOTH",
"205 219 OFFCURVE",
"229 270 OFFCURVE",
"229 336 CURVE SMOOTH",
"229 430 OFFCURVE",
"188 542 OFFCURVE",
"124 609 CURVE"
);
}
);
width = 345;
}
);
},
{
glyphname = dvGH;
layers = (
{
layerId = "7E8129F4-1E15-4123-8D26-95A3779BF9A9";
name = Light;
paths = (
{
closed = 1;
nodes = (
"-37 646 LINE",
"-38 644 OFFCURVE",
"-39 638 OFFCURVE",
"-39 633 CURVE SMOOTH",
"-39 617 OFFCURVE",
"-31 595 OFFCURVE",
"15 595 CURVE SMOOTH",
"62 595 OFFCURVE",
"88 598 OFFCURVE",
"111 601 CURVE",
"100 607 LINE",
"77 576 OFFCURVE",
"68 542 OFFCURVE",
"68 511 CURVE SMOOTH",
"68 421 OFFCURVE",
"149 346 OFFCURVE",
"235 346 CURVE SMOOTH",
"260 346 OFFCURVE",
"293 358 OFFCURVE",
"293 391 CURVE SMOOTH",
"293 423 OFFCURVE",
"257 438 OFFCURVE",
"227 438 CURVE SMOOTH",
"160 438 OFFCURVE",
"86 391 OFFCURVE",
"86 300 CURVE SMOOTH",
"86 220 OFFCURVE",
"180 122 OFFCURVE",
"291 122 CURVE SMOOTH",
"418 122 OFFCURVE",
"495 227 OFFCURVE",
"495 273 CURVE SMOOTH",
"495 290 OFFCURVE",
"483 307 OFFCURVE",
"462 313 CURVE",
"425 226 OFFCURVE",
"346 171 OFFCURVE",
"266 171 CURVE SMOOTH",
"195 171 OFFCURVE",
"135 213 OFFCURVE",
"135 283 CURVE SMOOTH",
"135 341 OFFCURVE",
"178 371 OFFCURVE",
"211 377 CURVE",
"142 396 OFFCURVE",
"115 447 OFFCURVE",
"115 497 CURVE SMOOTH",
"115 546 OFFCURVE",
"136 586 OFFCURVE",
"169 608 CURVE",
"134 595 LINE",
"442 595 LINE",
"443 597 OFFCURVE",
"444 603 OFFCURVE",
"444 608 CURVE SMOOTH",
"444 624 OFFCURVE",
"436 646 OFFCURVE",
"390 646 CURVE SMOOTH"
);
}
);
width = 409;
}
);
},
{
glyphname = dvC;
layers = (
{
layerId = "7E8129F4-1E15-4123-8D26-95A3779BF9A9";
name = Light;
paths = (
{
closed = 1;
nodes = (
"-58 646 LINE",
"-59 644 OFFCURVE",
"-60 638 OFFCURVE",
"-60 633 CURVE SMOOTH",
"-60 617 OFFCURVE",
"-52 595 OFFCURVE",
"-6 595 CURVE SMOOTH",
"441 595 LINE",
"442 597 OFFCURVE",
"443 603 OFFCURVE",
"443 608 CURVE SMOOTH",
"443 624 OFFCURVE",
"435 646 OFFCURVE",
"389 646 CURVE SMOOTH"
);
},
{
closed = 1;
nodes = (
"445 312 CURVE",
"409 228 OFFCURVE",
"339 194 OFFCURVE",
"276 194 CURVE SMOOTH",
"212 194 OFFCURVE",
"154 235 OFFCURVE",
"154 300 CURVE SMOOTH",
"154 355 OFFCURVE",
"198 412 OFFCURVE",
"281 412 CURVE SMOOTH",
"322 412 LINE",
"323 414 OFFCURVE",
"325 420 OFFCURVE",
"325 424 CURVE SMOOTH",
"325 463 OFFCURVE",
"287 463 OFFCURVE",
"271 463 CURVE SMOOTH",
"-1 463 LINE",
"-2 461 OFFCURVE",
"-3 455 OFFCURVE",
"-3 452 CURVE SMOOTH",
"-3 413 OFFCURVE",
"40 412 OFFCURVE",
"67 412 CURVE SMOOTH",
"99 412 OFFCURVE",
"148 416 OFFCURVE",
"185 422 CURVE",
"202 437 LINE",
"140 419 OFFCURVE",
"109 372 OFFCURVE",
"109 325 CURVE SMOOTH",
"109 219 OFFCURVE",
"209 147 OFFCURVE",
"306 147 CURVE SMOOTH",
"398 147 OFFCURVE",
"475 221 OFFCURVE",
"475 272 CURVE SMOOTH",
"475 290 OFFCURVE",
"466 306 OFFCURVE"
);
}
);
width = 381;
}
);
},
{
glyphname = dvCH;
layers = (
{
layerId = "7E8129F4-1E15-4123-8D26-95A3779BF9A9";
name = Light;
paths = (
{
closed = 1;
nodes = (
"511 461 CURVE",
"493 461 LINE",
"528 448 OFFCURVE",
"550 407 OFFCURVE",
"550 354 CURVE SMOOTH",
"550 255 OFFCURVE",
"472 121 OFFCURVE",
"289 121 CURVE SMOOTH",
"202 121 OFFCURVE",
"121 171 OFFCURVE",
"121 255 CURVE SMOOTH",
"121 314 OFFCURVE",
"169 351 OFFCURVE",
"208 351 CURVE",
"143 370 OFFCURVE",
"119 423 OFFCURVE",
"119 475 CURVE SMOOTH",
"119 532 OFFCURVE",
"149 575 OFFCURVE",
"199 600 CURVE",
"178 595 LINE",
"672 595 LINE",
"673 597 OFFCURVE",
"674 603 OFFCURVE",
"674 608 CURVE SMOOTH",
"674 624 OFFCURVE",
"666 646 OFFCURVE",
"620 646 CURVE SMOOTH",
"-35 646 LINE",
"-36 644 OFFCURVE",
"-37 638 OFFCURVE",
"-37 633 CURVE SMOOTH",
"-37 617 OFFCURVE",
"-29 595 OFFCURVE",
"17 595 CURVE SMOOTH",
"42 595 OFFCURVE",
"69 595 OFFCURVE",
"135 600 CURVE",
"119 604 LINE",
"83 574 OFFCURVE",
"70 530 OFFCURVE",
"70 493 CURVE SMOOTH",
"70 397 OFFCURVE",
"148 321 OFFCURVE",
"231 321 CURVE SMOOTH",
"255 321 OFFCURVE",
"286 333 OFFCURVE",
"286 365 CURVE SMOOTH",
"286 398 OFFCURVE",
"248 413 OFFCURVE",
"216 413 CURVE SMOOTH",
"150 413 OFFCURVE",
"72 365 OFFCURVE",
"72 271 CURVE SMOOTH",
"72 156 OFFCURVE",
"204 72 OFFCURVE",
"322 72 CURVE SMOOTH",
"480 72 OFFCURVE",
"598 182 OFFCURVE",
"598 334 CURVE SMOOTH",
"598 417 OFFCURVE",
"542 509 OFFCURVE",
"455 509 CURVE SMOOTH",
"423 509 OFFCURVE",
"389 489 OFFCURVE",
"389 450 CURVE SMOOTH",
"389 417 OFFCURVE",
"418 386 OFFCURVE",
"460 386 CURVE SMOOTH",
"488 386 OFFCURVE",
"516 406 OFFCURVE",
"516 439 CURVE SMOOTH",
"516 445 OFFCURVE",
"515 452 OFFCURVE"
);
}
);
width = 647;
}
);
},
{
glyphname = dvJ;
layers = (
{
layerId = "7E8129F4-1E15-4123-8D26-95A3779BF9A9";
name = Light;
paths = (
{
closed = 1;
nodes = (
"-37 646 LINE",
"-38 644 OFFCURVE",
"-39 638 OFFCURVE",
"-39 633 CURVE SMOOTH",
"-39 617 OFFCURVE",
"-31 595 OFFCURVE",
"15 595 CURVE SMOOTH",
"513 595 LINE",
"514 597 OFFCURVE",
"515 603 OFFCURVE",
"515 608 CURVE SMOOTH",
"515 624 OFFCURVE",
"507 646 OFFCURVE",
"461 646 CURVE SMOOTH"
);
},
{
closed = 1;
nodes = (
"239 402 LINE",
"284 366 OFFCURVE",
"321 312 OFFCURVE",
"321 255 CURVE SMOOTH",
"321 209 OFFCURVE",
"288 176 OFFCURVE",
"242 176 CURVE SMOOTH",
"125 176 OFFCURVE",
"61 339 OFFCURVE",
"35 427 CURVE",
"27 427 OFFCURVE",
"15 423 OFFCURVE",
"15 406 CURVE SMOOTH",
"15 356 OFFCURVE",
"96 124 OFFCURVE",
"255 124 CURVE SMOOTH",
"318 124 OFFCURVE",
"372 165 OFFCURVE",
"372 239 CURVE SMOOTH",
"372 323 OFFCURVE",
"301 388 OFFCURVE",
"283 402 CURVE"
);
},
{
closed = 1;
nodes = (
"553 386 LINE",
"554 388 OFFCURVE",
"555 394 OFFCURVE",
"555 399 CURVE SMOOTH",
"555 415 OFFCURVE",
"547 437 OFFCURVE",
"501 437 CURVE SMOOTH",
"174 437 LINE",
"173 435 OFFCURVE",
"172 429 OFFCURVE",
"172 424 CURVE SMOOTH",
"172 408 OFFCURVE",
"180 386 OFFCURVE",
"226 386 CURVE SMOOTH"
);
}
);
width = 446;
}
);
},
{
glyphname = dvJH;
layers = (
{
layerId = "7E8129F4-1E15-4123-8D26-95A3779BF9A9";
name = Light;
paths = (
{
closed = 1;
nodes = (
"-37 646 LINE",
"-38 644 OFFCURVE",
"-39 638 OFFCURVE",
"-39 633 CURVE SMOOTH",
"-39 617 OFFCURVE",
"-31 595 OFFCURVE",
"15 595 CURVE SMOOTH",
"540 595 LINE",
"541 597 OFFCURVE",
"542 603 OFFCURVE",
"542 608 CURVE SMOOTH",
"542 624 OFFCURVE",
"534 646 OFFCURVE",
"488 646 CURVE SMOOTH"
);
},
{
closed = 1;
nodes = (
"123 125 LINE",
"166 -64 OFFCURVE",
"256 -120 OFFCURVE",
"317 -120 CURVE SMOOTH",
"359 -120 OFFCURVE",
"379 -98 OFFCURVE",
"379 -76 CURVE SMOOTH",
"379 -62 OFFCURVE",
"371 -48 OFFCURVE",
"355 -41 CURVE",
"340 -57 OFFCURVE",
"320 -62 OFFCURVE",
"303 -62 CURVE SMOOTH",
"241 -62 OFFCURVE",
"187 11 OFFCURVE",
"161 94 CURVE"
);
},
{
closed = 1;
nodes = (
"556 344 CURVE",
"527 315 OFFCURVE",
"481 291 OFFCURVE",
"413 291 CURVE SMOOTH",
"352 291 OFFCURVE",
"321 314 OFFCURVE",
"272 314 CURVE SMOOTH",
"248 314 OFFCURVE",
"228 312 OFFCURVE",
"207 312 CURVE SMOOTH",
"151 312 OFFCURVE",
"126 344 OFFCURVE",
"126 373 CURVE SMOOTH",
"126 422 OFFCURVE",
"173 439 OFFCURVE",
"207 439 CURVE SMOOTH",
"225 439 OFFCURVE",
"253 438 OFFCURVE",
"273 438 CURVE SMOOTH",
"346 438 OFFCURVE",
"376 473 OFFCURVE",
"376 511 CURVE SMOOTH",
"376 543 OFFCURVE",
"355 580 OFFCURVE",
"316 605 CURVE",
"270 605 LINE",
"299 590 OFFCURVE",
"325 556 OFFCURVE",
"325 531 CURVE SMOOTH",
"325 498 OFFCURVE",
"295 491 OFFCURVE",
"270 491 CURVE SMOOTH",
"245 491 OFFCURVE",
"225 492 OFFCURVE",
"206 492 CURVE SMOOTH",
"126 492 OFFCURVE",
"74 460 OFFCURVE",
"74 395 CURVE SMOOTH",
"74 328 OFFCURVE",
"164 261 OFFCURVE",
"233 261 CURVE SMOOTH",
"254 261 OFFCURVE",
"278 263 OFFCURVE",
"299 263 CURVE SMOOTH",
"354 263 OFFCURVE",
"384 231 OFFCURVE",
"384 185 CURVE SMOOTH",
"384 115 OFFCURVE",
"307 84 OFFCURVE",
"246 84 CURVE SMOOTH",
"217 84 OFFCURVE",
"178 91 OFFCURVE",
"161 103 CURVE",
"151 154 OFFCURVE",
"127 197 OFFCURVE",
"90 197 CURVE SMOOTH",
"67 197 OFFCURVE",
"51 179 OFFCURVE",
"51 156 CURVE SMOOTH",
"51 74 OFFCURVE",
"176 33 OFFCURVE",
"262 33 CURVE SMOOTH",
"353 33 OFFCURVE",
"434 86 OFFCURVE",
"434 168 CURVE SMOOTH",
"434 212 OFFCURVE",
"413 248 OFFCURVE",
"382 274 CURVE",
"329 274 LINE",
"374 253 OFFCURVE",
"415 246 OFFCURVE",
"452 246 CURVE SMOOTH",
"506 246 OFFCURVE",
"572 270 OFFCURVE",
"572 309 CURVE SMOOTH",
"572 323 OFFCURVE",
"566 335 OFFCURVE"
);
}
);
width = 495;
}
);
},
{
glyphname = dvNY;
layers = (
{
layerId = "7E8129F4-1E15-4123-8D26-95A3779BF9A9";
name = Light;
paths = (
{
closed = 1;
nodes = (
"-37 646 LINE",
"-38 644 OFFCURVE",
"-39 638 OFFCURVE",
"-39 633 CURVE SMOOTH",
"-39 617 OFFCURVE",
"-31 595 OFFCURVE",
"15 595 CURVE SMOOTH",
"538 595 LINE",
"539 597 OFFCURVE",
"540 603 OFFCURVE",
"540 608 CURVE SMOOTH",
"540 624 OFFCURVE",
"532 646 OFFCURVE",
"486 646 CURVE SMOOTH"
);
},
{
closed = 1;
nodes = (
"400 287 LINE",
"418 277 OFFCURVE",
"446 271 OFFCURVE",
"474 271 CURVE SMOOTH",
"532 271 OFFCURVE",
"566 294 OFFCURVE",
"566 323 CURVE SMOOTH",
"566 333 OFFCURVE",
"562 343 OFFCURVE",
"553 354 CURVE",
"528 332 OFFCURVE",
"483 318 OFFCURVE",
"443 318 CURVE SMOOTH",
"430 318 OFFCURVE",
"417 319 OFFCURVE",
"404 321 CURVE"
);
},
{
closed = 1;
nodes = (
"32 435 CURVE",
"24 435 OFFCURVE",
"13 431 OFFCURVE",
"13 415 CURVE SMOOTH",
"13 376 OFFCURVE",
"107 173 OFFCURVE",
"263 173 CURVE SMOOTH",
"343 173 OFFCURVE",
"411 223 OFFCURVE",
"411 306 CURVE SMOOTH",
"411 401 OFFCURVE",
"341 472 OFFCURVE",
"251 472 CURVE SMOOTH",
"212 472 OFFCURVE",
"172 449 OFFCURVE",
"172 415 CURVE SMOOTH",
"172 383 OFFCURVE",
"202 376 OFFCURVE",
"202 376 CURVE",
"221 410 OFFCURVE",
"247 426 OFFCURVE",
"280 426 CURVE SMOOTH",
"335 426 OFFCURVE",
"366 382 OFFCURVE",
"366 333 CURVE SMOOTH",
"366 281 OFFCURVE",
"329 226 OFFCURVE",
"248 226 CURVE SMOOTH",
"132 226 OFFCURVE",
"68 343 OFFCURVE"
);
}
);
width = 483;
}
);
},
{
glyphname = dvNN;
layers = (
{
layerId = "7E8129F4-1E15-4123-8D26-95A3779BF9A9";
name = Light;
paths = (
{
closed = 1;
nodes = (
"-37 646 LINE",
"-38 644 OFFCURVE",
"-39 638 OFFCURVE",
"-39 633 CURVE SMOOTH",
"-39 617 OFFCURVE",
"-31 595 OFFCURVE",
"15 595 CURVE SMOOTH",
"498 595 LINE",
"499 597 OFFCURVE",
"500 603 OFFCURVE",
"500 608 CURVE SMOOTH",
"500 624 OFFCURVE",
"492 646 OFFCURVE",
"446 646 CURVE SMOOTH"
);
},
{
closed = 1;
nodes = (
"298 596 LINE",
"321 537 OFFCURVE",
"321 445 OFFCURVE",
"321 414 CURVE SMOOTH",
"321 276 OFFCURVE",
"281 232 OFFCURVE",
"221 232 CURVE SMOOTH",
"150 232 OFFCURVE",
"123 298 OFFCURVE",
"123 375 CURVE SMOOTH",
"123 426 OFFCURVE",
"125 471 OFFCURVE",
"125 515 CURVE SMOOTH",
"125 554 OFFCURVE",
"121 600 OFFCURVE",
"84 600 CURVE SMOOTH",
"80 600 OFFCURVE",
"69 599 OFFCURVE",
"62 595 CURVE",
"70 583 OFFCURVE",
"72 547 OFFCURVE",
"72 513 CURVE SMOOTH",
"72 462 OFFCURVE",
"70 417 OFFCURVE",
"70 373 CURVE SMOOTH",
"70 271 OFFCURVE",
"159 188 OFFCURVE",
"244 188 CURVE SMOOTH",
"310 188 OFFCURVE",
"373 226 OFFCURVE",
"373 379 CURVE SMOOTH",
"373 445 OFFCURVE",
"362 552 OFFCURVE",
"322 608 CURVE"
);
}
);
width = 475;
}
);
},
{
glyphname = dvT;
layers = (
{
layerId = "7E8129F4-1E15-4123-8D26-95A3779BF9A9";
name = Light;
paths = (
{
closed = 1;
nodes = (
"-37 646 LINE",
"-38 644 OFFCURVE",
"-39 638 OFFCURVE",
"-39 633 CURVE SMOOTH",
"-39 617 OFFCURVE",
"-31 595 OFFCURVE",
"15 595 CURVE SMOOTH",
"352 595 LINE",
"353 597 OFFCURVE",
"354 603 OFFCURVE",
"354 608 CURVE SMOOTH",
"354 624 OFFCURVE",
"346 646 OFFCURVE",
"300 646 CURVE SMOOTH"
);
},
{
closed = 1;
nodes = (
"373 379 LINE",
"408 379 OFFCURVE",
"414 396 OFFCURVE",
"414 409 CURVE SMOOTH",
"414 413 OFFCURVE",
"413 417 OFFCURVE",
"412 419 CURVE",
"336 426 OFFCURVE",
"280 430 OFFCURVE",
"215 430 CURVE SMOOTH",
"119 430 OFFCURVE",
"55 375 OFFCURVE",
"55 287 CURVE SMOOTH",
"55 155 OFFCURVE",
"167 13 OFFCURVE",
"206 13 CURVE SMOOTH",
"216 13 OFFCURVE",
"221 19 OFFCURVE",
"223 25 CURVE",
"154 87 OFFCURVE",
"110 183 OFFCURVE",
"110 266 CURVE SMOOTH",
"110 346 OFFCURVE",
"158 379 OFFCURVE",
"243 379 CURVE SMOOTH"
);
}
);
width = 303;
}
);
},
{
glyphname = dvTH;
layers = (
{
layerId = "7E8129F4-1E15-4123-8D26-95A3779BF9A9";
name = Light;
paths = (
{
closed = 1;
nodes = (
"285 148 CURVE SMOOTH",
"401 148 OFFCURVE",
"490 211 OFFCURVE",
"490 258 CURVE SMOOTH",
"490 272 OFFCURVE",
"482 286 OFFCURVE",
"463 294 CURVE",
"409 221 OFFCURVE",
"324 196 OFFCURVE",
"255 196 CURVE SMOOTH",
"174 196 OFFCURVE",
"102 247 OFFCURVE",
"102 288 CURVE SMOOTH",
"102 343 OFFCURVE",
"329 367 OFFCURVE",
"329 497 CURVE SMOOTH",
"329 571 OFFCURVE",
"259 646 OFFCURVE",
"181 646 CURVE SMOOTH",
"128 646 OFFCURVE",
"76 608 OFFCURVE",
"76 542 CURVE SMOOTH",
"76 494 OFFCURVE",
"109 448 OFFCURVE",
"146 448 CURVE SMOOTH",
"151 448 OFFCURVE",
"156 450 OFFCURVE",
"158 452 CURVE",
"140 468 OFFCURVE",
"128 492 OFFCURVE",
"128 522 CURVE SMOOTH",
"128 566 OFFCURVE",
"162 599 OFFCURVE",
"207 599 CURVE SMOOTH",
"250 599 OFFCURVE",
"279 566 OFFCURVE",
"279 526 CURVE SMOOTH",
"279 401 OFFCURVE",
"49 394 OFFCURVE",
"49 316 CURVE SMOOTH",
"49 249 OFFCURVE",
"155 148 OFFCURVE"
);
}
);
width = 401;
}
);
},
{
glyphname = dvD;
layers = (
{
components = (
{
name = dvVirama;
transform = "{1, 0, 0, 1, 445, 56}";
}
);
layerId = "7E8129F4-1E15-4123-8D26-95A3779BF9A9";
name = Light;
paths = (
{
closed = 1;
nodes = (
"-37 646 LINE",
"-38 644 OFFCURVE",
"-39 638 OFFCURVE",
"-39 633 CURVE SMOOTH",
"-39 617 OFFCURVE",
"-31 595 OFFCURVE",
"15 595 CURVE SMOOTH",
"517 595 LINE",
"518 597 OFFCURVE",
"519 603 OFFCURVE",
"519 608 CURVE SMOOTH",
"519 624 OFFCURVE",
"511 646 OFFCURVE",
"465 646 CURVE SMOOTH"
);
},
{
closed = 1;
nodes = (
"356 184 LINE",
"328 164 OFFCURVE",
"289 154 OFFCURVE",
"251 154 CURVE SMOOTH",
"172 154 OFFCURVE",
"92 196 OFFCURVE",
"92 281 CURVE SMOOTH",
"92 449 OFFCURVE",
"375 409 OFFCURVE",
"375 535 CURVE SMOOTH",
"375 585 OFFCURVE",
"336 616 OFFCURVE",
"318 620 CURVE",
"306 597 LINE",
"323 586 OFFCURVE",
"331 571 OFFCURVE",
"331 555 CURVE SMOOTH",
"331 471 OFFCURVE",
"40 493 OFFCURVE",
"40 299 CURVE SMOOTH",
"40 202 OFFCURVE",
"154 105 OFFCURVE",
"283 105 CURVE SMOOTH",
"358 105 OFFCURVE",
"423 136 OFFCURVE",
"423 207 CURVE SMOOTH",
"423 238 OFFCURVE",
"401 276 OFFCURVE",
"366 276 CURVE SMOOTH",
"334 276 OFFCURVE",
"315 248 OFFCURVE",
"315 222 CURVE SMOOTH",
"315 191 OFFCURVE",
"332 169 OFFCURVE",
"348 149 CURVE"
);
},
{
closed = 1;
nodes = (
"349 145 LINE",
"375 93 OFFCURVE",
"417 29 OFFCURVE",
"471 29 CURVE SMOOTH",
"503 29 OFFCURVE",
"523 49 OFFCURVE",
"523 74 CURVE SMOOTH",
"523 86 OFFCURVE",
"516 102 OFFCURVE",
"505 111 CURVE",
"494 96 OFFCURVE",
"480 87 OFFCURVE",
"462 87 CURVE SMOOTH",
"425 87 OFFCURVE",
"396 124 OFFCURVE",
"377 163 CURVE"
);
}
);
width = 492;
}
);
},
{
glyphname = dvDH;
layers = (
{
layerId = "7E8129F4-1E15-4123-8D26-95A3779BF9A9";
name = Light;
paths = (
{
closed = 1;
nodes = (
"247 171 CURVE SMOOTH",
"178 171 OFFCURVE",
"120 211 OFFCURVE",
"120 276 CURVE SMOOTH",
"120 330 OFFCURVE",
"157 360 OFFCURVE",
"187 373 CURVE",
"124 392 OFFCURVE",
"100 441 OFFCURVE",
"100 488 CURVE SMOOTH",
"100 535 OFFCURVE",
"134 595 OFFCURVE",
"202 595 CURVE SMOOTH",
"223 595 LINE",
"224 597 OFFCURVE",
"225 603 OFFCURVE",
"225 608 CURVE SMOOTH",
"225 624 OFFCURVE",
"217 646 OFFCURVE",
"171 646 CURVE SMOOTH",
"-52 646 LINE",
"-53 644 OFFCURVE",
"-54 638 OFFCURVE",
"-54 633 CURVE SMOOTH",
"-54 617 OFFCURVE",
"-46 595 OFFCURVE",
"0 595 CURVE SMOOTH",
"25 595 OFFCURVE",
"64 596 OFFCURVE",
"130 601 CURVE",
"107 606 LINE",
"67 579 OFFCURVE",
"53 535 OFFCURVE",
"53 502 CURVE SMOOTH",
"53 412 OFFCURVE",
"133 340 OFFCURVE",
"218 340 CURVE SMOOTH",
"243 340 OFFCURVE",
"276 352 OFFCURVE",
"276 385 CURVE SMOOTH",
"276 417 OFFCURVE",
"240 432 OFFCURVE",
"210 432 CURVE SMOOTH",
"144 432 OFFCURVE",
"71 385 OFFCURVE",
"71 293 CURVE SMOOTH",
"71 215 OFFCURVE",
"162 122 OFFCURVE",
"276 122 CURVE SMOOTH",
"391 122 OFFCURVE",
"482 209 OFFCURVE",
"482 263 CURVE SMOOTH",
"482 280 OFFCURVE",
"474 294 OFFCURVE",
"454 301 CURVE",
"417 221 OFFCURVE",
"337 171 OFFCURVE"
);
}
);
width = 392;
}
);
},
{
glyphname = dvN;
layers = (
{
layerId = "7E8129F4-1E15-4123-8D26-95A3779BF9A9";
name = Light;
paths = (
{
closed = 1;
nodes = (
"-37 646 LINE",
"-38 644 OFFCURVE",
"-39 638 OFFCURVE",
"-39 633 CURVE SMOOTH",
"-39 617 OFFCURVE",
"-31 595 OFFCURVE",
"15 595 CURVE SMOOTH",
"368 595 LINE",
"369 597 OFFCURVE",
"370 603 OFFCURVE",
"370 608 CURVE SMOOTH",
"370 624 OFFCURVE",
"362 646 OFFCURVE",
"316 646 CURVE SMOOTH"
);
},
{
closed = 1;
nodes = (
"32 332 CURVE SMOOTH",
"32 257 OFFCURVE",
"121 180 OFFCURVE",
"192 180 CURVE SMOOTH",
"252 180 OFFCURVE",
"285 218 OFFCURVE",
"285 258 CURVE SMOOTH",
"285 291 OFFCURVE",
"266 312 OFFCURVE",
"235 312 CURVE",
"237 305 OFFCURVE",
"238 298 OFFCURVE",
"238 291 CURVE SMOOTH",
"238 254 OFFCURVE",
"209 228 OFFCURVE",
"168 228 CURVE SMOOTH",
"127 228 OFFCURVE",
"84 259 OFFCURVE",
"84 307 CURVE SMOOTH",
"84 360 OFFCURVE",
"132 379 OFFCURVE",
"174 379 CURVE SMOOTH",
"412 379 LINE SMOOTH",
"446 379 OFFCURVE",
"452 396 OFFCURVE",
"452 408 CURVE SMOOTH",
"452 412 OFFCURVE",
"451 416 OFFCURVE",
"450 418 CURVE",
"372 425 OFFCURVE",
"241 430 OFFCURVE",
"156 430 CURVE SMOOTH",
"82 430 OFFCURVE",
"32 392 OFFCURVE"
);
}
);
width = 328;
}
);
},
{
glyphname = dvP;
layers = (
{
layerId = "7E8129F4-1E15-4123-8D26-95A3779BF9A9";
name = Light;
paths = (
{
closed = 1;
nodes = (
"251 176 CURVE SMOOTH",
"342 176 OFFCURVE",
"423 261 OFFCURVE",
"423 304 CURVE SMOOTH",
"423 319 OFFCURVE",
"416 333 OFFCURVE",
"396 341 CURVE",
"353 266 OFFCURVE",
"288 227 OFFCURVE",
"227 227 CURVE SMOOTH",
"167 227 OFFCURVE",
"132 270 OFFCURVE",
"132 322 CURVE SMOOTH",
"132 480 OFFCURVE",
"133 378 OFFCURVE",
"133 515 CURVE SMOOTH",
"133 554 OFFCURVE",
"129 600 OFFCURVE",
"92 600 CURVE SMOOTH",
"81 600 OFFCURVE",
"75 598 OFFCURVE",
"70 595 CURVE",
"78 583 OFFCURVE",
"80 547 OFFCURVE",
"80 513 CURVE SMOOTH",
"80 380 OFFCURVE",
"79 462 OFFCURVE",
"79 346 CURVE SMOOTH",
"79 274 OFFCURVE",
"153 176 OFFCURVE"
);
},
{
closed = 1;
nodes = (
"361 608 CURVE SMOOTH",
"361 624 OFFCURVE",
"353 646 OFFCURVE",
"307 646 CURVE SMOOTH",
"-37 646 LINE",
"-38 644 OFFCURVE",
"-39 638 OFFCURVE",
"-39 633 CURVE SMOOTH",
"-39 617 OFFCURVE",
"-31 595 OFFCURVE",
"15 595 CURVE SMOOTH",
"359 595 LINE",
"360 597 OFFCURVE",
"361 603 OFFCURVE"
);
}
);
width = 333;
}
);
},
{
glyphname = dvPH;
layers = (
{
layerId = "7E8129F4-1E15-4123-8D26-95A3779BF9A9";
name = Light;
paths = (
{
closed = 1;
nodes = (
"-37 646 LINE",
"-38 644 OFFCURVE",
"-39 638 OFFCURVE",
"-39 633 CURVE SMOOTH",
"-39 617 OFFCURVE",
"-31 595 OFFCURVE",
"15 595 CURVE SMOOTH",
"610 595 LINE",
"611 597 OFFCURVE",
"612 603 OFFCURVE",
"612 608 CURVE SMOOTH",
"612 624 OFFCURVE",
"604 646 OFFCURVE",
"558 646 CURVE SMOOTH"
);
},
{
closed = 1;
nodes = (
"80 513 CURVE SMOOTH",
"80 380 OFFCURVE",
"79 462 OFFCURVE",
"79 346 CURVE SMOOTH",
"79 274 OFFCURVE",
"153 176 OFFCURVE",
"251 176 CURVE SMOOTH",
"323 176 OFFCURVE",
"374 230 OFFCURVE",
"385 278 CURVE",
"366 272 LINE",
"357 207 OFFCURVE",
"356 141 OFFCURVE",
"356 78 CURVE SMOOTH",
"356 38 OFFCURVE",
"360 -5 OFFCURVE",
"402 -5 CURVE SMOOTH",
"406 -5 OFFCURVE",
"413 -4 OFFCURVE",
"419 -1 CURVE",
"411 11 OFFCURVE",
"409 46 OFFCURVE",
"409 80 CURVE SMOOTH",
"409 170 OFFCURVE",
"409 253 OFFCURVE",
"412 333 CURVE",
"406 292 LINE",
"436 371 OFFCURVE",
"500 408 OFFCURVE",
"560 408 CURVE SMOOTH",
"596 408 OFFCURVE",
"629 393 OFFCURVE",
"651 367 CURVE",
"659 372 OFFCURVE",
"661 381 OFFCURVE",
"661 387 CURVE SMOOTH",
"661 418 OFFCURVE",
"605 457 OFFCURVE",
"544 457 CURVE SMOOTH",
"472 457 OFFCURVE",
"419 416 OFFCURVE",
"395 367 CURVE",
"401 354 LINE",
"410 404 OFFCURVE",
"413 439 OFFCURVE",
"413 515 CURVE SMOOTH",
"413 554 OFFCURVE",
"408 600 OFFCURVE",
"372 600 CURVE SMOOTH",
"361 600 OFFCURVE",
"354 598 OFFCURVE",
"350 595 CURVE",
"358 583 OFFCURVE",
"360 547 OFFCURVE",
"360 513 CURVE SMOOTH",
"360 432 OFFCURVE",
"359 356 OFFCURVE",
"358 283 CURVE",
"366 334 LINE",
"340 263 OFFCURVE",
"277 227 OFFCURVE",
"227 227 CURVE SMOOTH",
"167 227 OFFCURVE",
"132 270 OFFCURVE",
"132 322 CURVE SMOOTH",
"132 480 OFFCURVE",
"133 378 OFFCURVE",
"133 515 CURVE SMOOTH",
"133 554 OFFCURVE",
"129 600 OFFCURVE",
"92 600 CURVE SMOOTH",
"81 600 OFFCURVE",
"75 598 OFFCURVE",
"70 595 CURVE",
"78 583 OFFCURVE",
"80 547 OFFCURVE"
);
}
);
width = 555;
}
);
},
{
glyphname = dvB;
layers = (
{
layerId = "7E8129F4-1E15-4123-8D26-95A3779BF9A9";
name = Light;
paths = (
{
closed = 1;
nodes = (
"355 215 LINE",
"132 458 LINE",
"108 437 LINE",
"331 195 LINE"
);
},
{
closed = 1;
nodes = (
"-33 646 LINE",
"-34 644 OFFCURVE",
"-35 638 OFFCURVE",
"-35 633 CURVE SMOOTH",
"-35 617 OFFCURVE",
"-27 595 OFFCURVE",
"19 595 CURVE SMOOTH",
"391 595 LINE",
"392 597 OFFCURVE",
"393 603 OFFCURVE",
"393 608 CURVE SMOOTH",
"393 624 OFFCURVE",
"385 646 OFFCURVE",
"339 646 CURVE SMOOTH"
);
},
{
closed = 1;
nodes = (
"394 339 CURVE",
"363 249 OFFCURVE",
"287 200 OFFCURVE",
"218 200 CURVE SMOOTH",
"151 200 OFFCURVE",
"91 245 OFFCURVE",
"91 323 CURVE SMOOTH",
"91 384 OFFCURVE",
"135 449 OFFCURVE",
"223 449 CURVE SMOOTH",
"243 449 OFFCURVE",
"270 442 OFFCURVE",
"285 435 CURVE",
"287 439 OFFCURVE",
"288 444 OFFCURVE",
"288 449 CURVE SMOOTH",
"288 477 OFFCURVE",
"257 501 OFFCURVE",
"201 501 CURVE SMOOTH",
"106 501 OFFCURVE",
"44 430 OFFCURVE",
"44 352 CURVE SMOOTH",
"44 234 OFFCURVE",
"146 153 OFFCURVE",
"244 153 CURVE SMOOTH",
"343 153 OFFCURVE",
"426 243 OFFCURVE",
"426 301 CURVE SMOOTH",
"426 317 OFFCURVE",
"415 334 OFFCURVE"
);
}
);
width = 353;
}
);
},
{
glyphname = dvBH;
layers = (
{
layerId = "7E8129F4-1E15-4123-8D26-95A3779BF9A9";
name = Light;
paths = (
{
closed = 1;
nodes = (
"437 339 CURVE",
"370 343 OFFCURVE",
"281 350 OFFCURVE",
"172 350 CURVE SMOOTH",
"128 350 OFFCURVE",
"80 345 OFFCURVE",
"80 299 CURVE SMOOTH",
"80 261 OFFCURVE",
"125 209 OFFCURVE",
"168 209 CURVE SMOOTH",
"218 209 OFFCURVE",
"220 303 OFFCURVE",
"220 340 CURVE SMOOTH",
"220 521 OFFCURVE",
"166 648 OFFCURVE",
"74 648 CURVE SMOOTH",
"27 648 OFFCURVE",
"0 611 OFFCURVE",
"0 566 CURVE SMOOTH",
"0 516 OFFCURVE",
"27 465 OFFCURVE",
"61 465 CURVE SMOOTH",
"67 465 OFFCURVE",
"72 467 OFFCURVE",
"75 469 CURVE",
"56 491 OFFCURVE",
"49 518 OFFCURVE",
"49 545 CURVE SMOOTH",
"49 574 OFFCURVE",
"65 602 OFFCURVE",
"96 602 CURVE SMOOTH",
"156 602 OFFCURVE",
"167 495 OFFCURVE",
"167 417 CURVE SMOOTH",
"167 376 OFFCURVE",
"163 336 OFFCURVE",
"160 299 CURVE",
"398 299 LINE SMOOTH",
"433 299 OFFCURVE",
"439 316 OFFCURVE",
"439 329 CURVE SMOOTH",
"439 333 OFFCURVE",
"438 337 OFFCURVE"
);
}
);
width = 355;
}
);
},
{
glyphname = dvM;
layers = (
{
layerId = "7E8129F4-1E15-4123-8D26-95A3779BF9A9";
name = Light;
paths = (
{
closed = 1;
nodes = (
"-37 646 LINE",
"-38 644 OFFCURVE",
"-39 638 OFFCURVE",
"-39 633 CURVE SMOOTH",
"-39 617 OFFCURVE",
"-31 595 OFFCURVE",
"15 595 CURVE SMOOTH",
"375 595 LINE",
"376 597 OFFCURVE",
"377 603 OFFCURVE",
"377 608 CURVE SMOOTH",
"377 624 OFFCURVE",
"369 646 OFFCURVE",
"323 646 CURVE SMOOTH"
);
},
{
closed = 1;
nodes = (
"153 350 CURVE SMOOTH",
"109 350 OFFCURVE",
"61 345 OFFCURVE",
"61 299 CURVE SMOOTH",
"61 261 OFFCURVE",
"106 209 OFFCURVE",
"149 209 CURVE SMOOTH",
"199 209 OFFCURVE",
"202 311 OFFCURVE",
"202 414 CURVE SMOOTH",
"202 561 OFFCURVE",
"196 600 OFFCURVE",
"159 600 CURVE SMOOTH",
"148 600 OFFCURVE",
"142 598 OFFCURVE",
"137 595 CURVE",
"148 583 OFFCURVE",
"150 537 OFFCURVE",
"150 421 CURVE SMOOTH",
"150 382 OFFCURVE",
"147 333 OFFCURVE",
"144 299 CURVE",
"380 299 LINE SMOOTH",
"415 299 OFFCURVE",
"421 316 OFFCURVE",
"421 329 CURVE SMOOTH",
"421 332 OFFCURVE",
"420 336 OFFCURVE",
"419 338 CURVE",
"345 346 OFFCURVE",
"225 350 OFFCURVE"
);
}
);
width = 337;
}
);
},
{
glyphname = dvY;
layers = (
{
layerId = "7E8129F4-1E15-4123-8D26-95A3779BF9A9";
name = Light;
paths = (
{
closed = 1;
nodes = (
"-28 646 LINE",
"-29 644 OFFCURVE",
"-30 638 OFFCURVE",
"-30 633 CURVE SMOOTH",
"-30 617 OFFCURVE",
"-22 595 OFFCURVE",
"24 595 CURVE SMOOTH",
"417 595 LINE",
"418 597 OFFCURVE",
"419 603 OFFCURVE",
"419 608 CURVE SMOOTH",
"419 624 OFFCURVE",
"411 646 OFFCURVE",
"365 646 CURVE SMOOTH"
);
},
{
closed = 1;
nodes = (
"440 321 CURVE",
"400 236 OFFCURVE",
"313 208 OFFCURVE",
"251 208 CURVE SMOOTH",
"157 208 OFFCURVE",
"90 265 OFFCURVE",
"90 304 CURVE SMOOTH",
"90 348 OFFCURVE",
"242 392 OFFCURVE",
"242 490 CURVE SMOOTH",
"242 534 OFFCURVE",
"222 573 OFFCURVE",
"200 600 CURVE",
"150 606 LINE",
"177 582 OFFCURVE",
"192 550 OFFCURVE",
"192 516 CURVE SMOOTH",
"192 426 OFFCURVE",
"39 388 OFFCURVE",
"39 335 CURVE SMOOTH",
"39 268 OFFCURVE",
"142 160 OFFCURVE",
"272 160 CURVE SMOOTH",
"384 160 OFFCURVE",
"465 231 OFFCURVE",
"465 281 CURVE SMOOTH",
"465 297 OFFCURVE",
"457 311 OFFCURVE"
);
}
);
width = 384;
}
);
},
{
glyphname = dvL;
layers = (
{
layerId = "7E8129F4-1E15-4123-8D26-95A3779BF9A9";
name = Light;
paths = (
{
closed = 1;
nodes = (
"482 646 CURVE",
"-37 646 LINE",
"-38 644 OFFCURVE",
"-39 638 OFFCURVE",
"-39 633 CURVE SMOOTH",
"-39 617 OFFCURVE",
"-31 595 OFFCURVE",
"15 595 CURVE SMOOTH",
"534 595 LINE",
"535 597 OFFCURVE",
"536 603 OFFCURVE",
"536 608 CURVE SMOOTH",
"536 624 OFFCURVE",
"528 646 OFFCURVE"
);
},
{
closed = 1;
nodes = (
"218 385 CURVE SMOOTH",
"261 385 OFFCURVE",
"294 361 OFFCURVE",
"316 334 CURVE",
"299 307 OFFCURVE",
"289 277 OFFCURVE",
"289 248 CURVE SMOOTH",
"289 211 OFFCURVE",
"310 183 OFFCURVE",
"341 183 CURVE SMOOTH",
"379 183 OFFCURVE",
"390 222 OFFCURVE",
"390 248 CURVE SMOOTH",
"390 352 OFFCURVE",
"283 436 OFFCURVE",
"200 436 CURVE SMOOTH",
"124 436 OFFCURVE",
"55 388 OFFCURVE",
"55 281 CURVE SMOOTH",
"55 148 OFFCURVE",
"185 13 OFFCURVE",
"231 13 CURVE SMOOTH",
"241 13 OFFCURVE",
"246 19 OFFCURVE",
"248 25 CURVE",
"167 88 OFFCURVE",
"110 172 OFFCURVE",
"110 259 CURVE SMOOTH",
"110 323 OFFCURVE",
"143 385 OFFCURVE"
);
},
{
closed = 1;
nodes = (
"566 337 CURVE",
"576 341 OFFCURVE",
"580 347 OFFCURVE",
"580 356 CURVE SMOOTH",
"580 384 OFFCURVE",
"532 430 OFFCURVE",
"460 430 CURVE SMOOTH",
"401 430 OFFCURVE",
"352 391 OFFCURVE",
"324 344 CURVE",
"363 290 LINE",
"385 346 OFFCURVE",
"424 380 OFFCURVE",
"479 380 CURVE SMOOTH",
"515 380 OFFCURVE",
"547 363 OFFCURVE"
);
}
);
width = 484;
}
);
},
{
glyphname = dvLL;
layers = (
{
layerId = "7E8129F4-1E15-4123-8D26-95A3779BF9A9";
name = Light;
paths = (
{
closed = 1;
nodes = (
"-33 646 LINE",
"-34 644 OFFCURVE",
"-35 638 OFFCURVE",
"-35 633 CURVE SMOOTH",
"-35 617 OFFCURVE",
"-27 595 OFFCURVE",
"19 595 CURVE SMOOTH",
"742 595 LINE",
"743 597 OFFCURVE",
"744 603 OFFCURVE",
"744 608 CURVE SMOOTH",
"744 624 OFFCURVE",
"736 646 OFFCURVE",
"690 646 CURVE SMOOTH"
);
},
{
closed = 1;
nodes = (
"510 416 CURVE SMOOTH",
"574 416 OFFCURVE",
"614 368 OFFCURVE",
"614 310 CURVE SMOOTH",
"614 226 OFFCURVE",
"546 170 OFFCURVE",
"471 170 CURVE SMOOTH",
"425 170 OFFCURVE",
"378 188 OFFCURVE",
"343 217 CURVE",
"323 217 LINE",
"350 161 OFFCURVE",
"417 122 OFFCURVE",
"492 122 CURVE SMOOTH",
"590 122 OFFCURVE",
"665 195 OFFCURVE",
"665 283 CURVE SMOOTH",
"665 376 OFFCURVE",
"577 463 OFFCURVE",
"489 463 CURVE SMOOTH",
"316 463 OFFCURVE",
"343 169 OFFCURVE",
"199 169 CURVE SMOOTH",
"135 169 OFFCURVE",
"95 217 OFFCURVE",
"95 275 CURVE SMOOTH",
"95 359 OFFCURVE",
"163 415 OFFCURVE",
"238 415 CURVE SMOOTH",
"284 415 OFFCURVE",
"331 397 OFFCURVE",
"366 368 CURVE",
"386 368 LINE",
"359 424 OFFCURVE",
"292 463 OFFCURVE",
"217 463 CURVE SMOOTH",
"119 463 OFFCURVE",
"44 390 OFFCURVE",
"44 302 CURVE SMOOTH",
"44 209 OFFCURVE",
"132 122 OFFCURVE",
"220 122 CURVE SMOOTH",
"393 122 OFFCURVE",
"365 416 OFFCURVE"
);
}
);
width = 714;
}
);
},
{
glyphname = dvV;
layers = (
{
layerId = "7E8129F4-1E15-4123-8D26-95A3779BF9A9";
name = Light;
paths = (
{
closed = 1;
nodes = (
"-33 646 LINE",
"-34 644 OFFCURVE",
"-35 638 OFFCURVE",
"-35 633 CURVE SMOOTH",
"-35 617 OFFCURVE",
"-27 595 OFFCURVE",
"19 595 CURVE SMOOTH",
"391 595 LINE",
"392 597 OFFCURVE",
"393 603 OFFCURVE",
"393 608 CURVE SMOOTH",
"393 624 OFFCURVE",
"385 646 OFFCURVE",
"339 646 CURVE SMOOTH"
);
},
{
closed = 1;
nodes = (
"100 318 CURVE SMOOTH",
"100 377 OFFCURVE",
"143 440 OFFCURVE",
"228 440 CURVE SMOOTH",
"247 440 OFFCURVE",
"268 436 OFFCURVE",
"287 429 CURVE",
"289 433 OFFCURVE",
"290 438 OFFCURVE",
"290 443 CURVE SMOOTH",
"290 473 OFFCURVE",
"258 492 OFFCURVE",
"203 492 CURVE SMOOTH",
"138 492 OFFCURVE",
"53 443 OFFCURVE",
"53 347 CURVE SMOOTH",
"53 232 OFFCURVE",
"151 153 OFFCURVE",
"246 153 CURVE SMOOTH",
"342 153 OFFCURVE",
"417 229 OFFCURVE",
"417 281 CURVE SMOOTH",
"417 298 OFFCURVE",
"409 313 OFFCURVE",
"390 321 CURVE",
"354 241 OFFCURVE",
"293 200 OFFCURVE",
"220 200 CURVE SMOOTH",
"157 200 OFFCURVE",
"100 243 OFFCURVE"
);
}
);
width = 339;
}
);
},
{
glyphname = dvSH;
layers = (
{
layerId = "7E8129F4-1E15-4123-8D26-95A3779BF9A9";
name = Light;
paths = (
{
closed = 1;
nodes = (
"126 255 LINE",
"154 161 OFFCURVE",
"217 -4 OFFCURVE",
"335 -4 CURVE SMOOTH",
"367 -4 OFFCURVE",
"386 16 OFFCURVE",
"386 40 CURVE SMOOTH",
"386 48 OFFCURVE",
"384 57 OFFCURVE",
"379 66 CURVE",
"365 61 OFFCURVE",
"350 58 OFFCURVE",
"333 58 CURVE SMOOTH",
"254 58 OFFCURVE",
"196 134 OFFCURVE",
"157 268 CURVE"
);
},
{
closed = 1;
nodes = (
"238 601 CURVE SMOOTH",
"301 601 OFFCURVE",
"338 532 OFFCURVE",
"338 457 CURVE SMOOTH",
"338 345 OFFCURVE",
"262 286 OFFCURVE",
"154 283 CURVE",
"143 329 OFFCURVE",
"116 379 OFFCURVE",
"78 379 CURVE SMOOTH",
"51 379 OFFCURVE",
"34 358 OFFCURVE",
"34 333 CURVE SMOOTH",
"34 276 OFFCURVE",
"105 231 OFFCURVE",
"177 231 CURVE SMOOTH",
"297 231 OFFCURVE",
"390 318 OFFCURVE",
"390 436 CURVE SMOOTH",
"390 536 OFFCURVE",
"308 649 OFFCURVE",
"217 649 CURVE SMOOTH",
"154 649 OFFCURVE",
"115 596 OFFCURVE",
"115 543 CURVE SMOOTH",
"115 463 OFFCURVE",
"187 400 OFFCURVE",
"234 400 CURVE SMOOTH",
"243 400 OFFCURVE",
"252 405 OFFCURVE",
"256 415 CURVE",
"208 435 OFFCURVE",
"169 478 OFFCURVE",
"169 524 CURVE SMOOTH",
"169 567 OFFCURVE",
"195 601 OFFCURVE"
);
}
);
width = 450;
}
);
},
{
glyphname = dvSS;
layers = (
{
layerId = "7E8129F4-1E15-4123-8D26-95A3779BF9A9";
name = Light;
paths = (
{
closed = 1;
nodes = (
"-37 646 LINE",
"-38 644 OFFCURVE",
"-39 638 OFFCURVE",
"-39 633 CURVE SMOOTH",
"-39 617 OFFCURVE",
"-31 595 OFFCURVE",
"15 595 CURVE SMOOTH",
"414 595 LINE",
"415 597 OFFCURVE",
"416 603 OFFCURVE",
"416 608 CURVE SMOOTH",
"416 624 OFFCURVE",
"408 646 OFFCURVE",
"362 646 CURVE SMOOTH"
);
},
{
closed = 1;
nodes = (
"394 276 CURVE",
"388 304 LINE",
"344 253 OFFCURVE",
"290 227 OFFCURVE",
"227 227 CURVE SMOOTH",
"167 227 OFFCURVE",
"132 270 OFFCURVE",
"132 322 CURVE SMOOTH",
"132 475 OFFCURVE",
"133 376 OFFCURVE",
"133 509 CURVE SMOOTH",
"133 524 OFFCURVE",
"131 544 OFFCURVE",
"116 564 CURVE",
"98 567 LINE",
"177 509 OFFCURVE",
"339 335 OFFCURVE"
);
},
{
closed = 1;
nodes = (
"438 281 CURVE",
"177 549 OFFCURVE",
"127 601 OFFCURVE",
"94 601 CURVE SMOOTH",
"85 601 OFFCURVE",
"77 599 OFFCURVE",
"70 595 CURVE",
"78 583 OFFCURVE",
"80 547 OFFCURVE",
"80 513 CURVE SMOOTH",
"80 380 OFFCURVE",
"79 462 OFFCURVE",
"79 346 CURVE SMOOTH",
"79 274 OFFCURVE",
"153 176 OFFCURVE",
"251 176 CURVE SMOOTH",
"349 176 OFFCURVE",
"415 239 OFFCURVE"
);
}
);
width = 359;
}
);
},
{
glyphname = dvS;
layers = (
{
layerId = "7E8129F4-1E15-4123-8D26-95A3779BF9A9";
name = Light;
paths = (
{
closed = 1;
nodes = (
"-37 646 LINE",
"-38 644 OFFCURVE",
"-39 638 OFFCURVE",
"-39 633 CURVE SMOOTH",
"-39 617 OFFCURVE",
"-31 595 OFFCURVE",
"15 595 CURVE SMOOTH",
"479 595 LINE",
"480 597 OFFCURVE",
"481 603 OFFCURVE",
"481 608 CURVE SMOOTH",
"481 624 OFFCURVE",
"473 646 OFFCURVE",
"427 646 CURVE SMOOTH"
);
},
{
closed = 1;
nodes = (
"150 279 LINE",
"141 335 OFFCURVE",
"128 413 OFFCURVE",
"71 413 CURVE SMOOTH",
"45 413 OFFCURVE",
"25 390 OFFCURVE",
"25 363 CURVE SMOOTH",
"25 293 OFFCURVE",
"100 253 OFFCURVE",
"169 253 CURVE SMOOTH",
"248 253 OFFCURVE",
"332 312 OFFCURVE",
"332 413 CURVE SMOOTH",
"332 498 OFFCURVE",
"285 580 OFFCURVE",
"217 631 CURVE",
"192 607 LINE",
"246 575 OFFCURVE",
"281 508 OFFCURVE",
"281 431 CURVE SMOOTH",
"281 366 OFFCURVE",
"235 309 OFFCURVE",
"152 307 CURVE SMOOTH",
"143 307 OFFCURVE",
"135 307 OFFCURVE",
"130 309 CURVE"
);
},
{
closed = 1;
nodes = (
"514 349 CURVE",
"486 335 OFFCURVE",
"444 321 OFFCURVE",
"386 321 CURVE SMOOTH",
"361 321 OFFCURVE",
"323 329 OFFCURVE",
"303 338 CURVE",
"286 307 LINE",
"335 281 OFFCURVE",
"383 272 OFFCURVE",
"422 272 CURVE SMOOTH",
"452 272 OFFCURVE",
"523 277 OFFCURVE",
"523 322 CURVE SMOOTH",
"523 330 OFFCURVE",
"520 340 OFFCURVE"
);
},
{
closed = 1;
nodes = (
"114 273 LINE",
"134 171 OFFCURVE",
"190 -4 OFFCURVE",
"290 -4 CURVE SMOOTH",
"322 -4 OFFCURVE",
"341 16 OFFCURVE",
"341 40 CURVE SMOOTH",
"341 48 OFFCURVE",
"339 57 OFFCURVE",
"334 66 CURVE",
"324 61 OFFCURVE",
"312 59 OFFCURVE",
"300 59 CURVE SMOOTH",
"203 59 OFFCURVE",
"171 164 OFFCURVE",
"151 261 CURVE"
);
}
);
width = 436;
}
);
},
{
glyphname = dvJ_NY;
layers = (
{
layerId = "7E8129F4-1E15-4123-8D26-95A3779BF9A9";
name = Light;
paths = (
{
closed = 1;
nodes = (
"-55 646 LINE",
"-56 644 OFFCURVE",
"-57 638 OFFCURVE",
"-57 633 CURVE SMOOTH",
"-57 617 OFFCURVE",
"-49 595 OFFCURVE",
"-3 595 CURVE SMOOTH",
"474 595 LINE",
"475 597 OFFCURVE",
"476 603 OFFCURVE",
"476 608 CURVE SMOOTH",
"476 624 OFFCURVE",
"468 646 OFFCURVE",
"422 646 CURVE SMOOTH"
);
},
{
closed = 1;
nodes = (
"125 129 LINE",
"117 174 OFFCURVE",
"105 238 OFFCURVE",
"56 238 CURVE SMOOTH",
"32 238 OFFCURVE",
"15 219 OFFCURVE",
"15 195 CURVE SMOOTH",
"15 139 OFFCURVE",
"81 105 OFFCURVE",
"151 105 CURVE SMOOTH",
"227 105 OFFCURVE",
"307 151 OFFCURVE",
"307 247 CURVE SMOOTH",
"307 313 OFFCURVE",
"267 385 OFFCURVE",
"190 427 CURVE",
"168 407 LINE",
"222 376 OFFCURVE",
"256 323 OFFCURVE",
"256 266 CURVE SMOOTH",
"256 209 OFFCURVE",
"215 157 OFFCURVE",
"135 157 CURVE SMOOTH",
"121 157 OFFCURVE",
"113 159 OFFCURVE",
"106 162 CURVE"
);
},
{
closed = 1;
nodes = (
"92 123 LINE",
"112 48 OFFCURVE",
"171 -82 OFFCURVE",
"275 -82 CURVE SMOOTH",
"307 -82 OFFCURVE",
"326 -62 OFFCURVE",
"326 -38 CURVE SMOOTH",
"326 -30 OFFCURVE",
"324 -20 OFFCURVE",
"319 -12 CURVE",
"305 -18 OFFCURVE",
"287 -21 OFFCURVE",
"272 -21 CURVE SMOOTH",
"199 -21 OFFCURVE",
"148 45 OFFCURVE",
"129 111 CURVE"
);
},
{
closed = 1;
nodes = (
"457 397 LINE",
"503 397 OFFCURVE",
"511 419 OFFCURVE",
"511 435 CURVE SMOOTH",
"511 440 OFFCURVE",
"510 446 OFFCURVE",
"509 448 CURVE",
"86 448 LINE",
"85 446 OFFCURVE",
"84 440 OFFCURVE",
"84 435 CURVE SMOOTH",
"84 419 OFFCURVE",
"92 397 OFFCURVE",
"138 397 CURVE SMOOTH"
);
}
);
width = 405;
}
);
},
{
glyphname = dvK_RA;
layers = (
{
anchors = (
{
name = abvm.bindu;
position = "{328, 646}";
},
{
name = abvm.e;
position = "{391, 646}";
},
{
name = blwm.r;
position = "{397, -1}";
},
{
name = blwm.u;
position = "{397, -1}";
},
{
name = blwm.uu;
position = "{397, -4}";
},
{
name = blwm.virama;
position = "{397, -15}";
}
);
layerId = "7E8129F4-1E15-4123-8D26-95A3779BF9A9";
name = Light;
paths = (
{
closed = 1;
nodes = (
"761 608 CURVE SMOOTH",
"761 624 OFFCURVE",
"753 646 OFFCURVE",
"707 646 CURVE SMOOTH",
"-33 646 LINE",
"-34 644 OFFCURVE",
"-35 638 OFFCURVE",
"-35 633 CURVE SMOOTH",
"-35 617 OFFCURVE",
"-27 595 OFFCURVE",
"19 595 CURVE SMOOTH",
"759 595 LINE",
"760 597 OFFCURVE",
"761 603 OFFCURVE"
);
},
{
closed = 1;
nodes = (
"231 171 LINE",
"190 141 OFFCURVE",
"126 102 OFFCURVE",
"71 82 CURVE",
"75 56 OFFCURVE",
"94 48 OFFCURVE",
"113 48 CURVE SMOOTH",
"177 48 OFFCURVE",
"326 186 OFFCURVE",
"351 241 CURVE",
"343 237 LINE",
"337 183 OFFCURVE",
"334 130 OFFCURVE",
"334 78 CURVE SMOOTH",
"334 38 OFFCURVE",
"339 -5 OFFCURVE",
"380 -5 CURVE SMOOTH",
"384 -5 OFFCURVE",
"391 -4 OFFCURVE",
"397 -1 CURVE",
"389 11 OFFCURVE",
"387 46 OFFCURVE",
"387 80 CURVE SMOOTH",
"387 170 OFFCURVE",
"388 261 OFFCURVE",
"389 342 CURVE",
"374 262 LINE SMOOTH",
"395 367 OFFCURVE",
"461 414 OFFCURVE",
"522 414 CURVE SMOOTH",
"581 414 OFFCURVE",
"634 373 OFFCURVE",
"634 307 CURVE SMOOTH",
"634 254 OFFCURVE",
"595 197 OFFCURVE",
"515 197 CURVE SMOOTH",
"503 197 OFFCURVE",
"491 199 OFFCURVE",
"477 202 CURVE",
"475 197 OFFCURVE",
"474 193 OFFCURVE",
"474 188 CURVE SMOOTH",
"474 163 OFFCURVE",
"503 145 OFFCURVE",
"537 145 CURVE SMOOTH",
"625 145 OFFCURVE",
"681 208 OFFCURVE",
"681 278 CURVE SMOOTH",
"681 374 OFFCURVE",
"595 463 OFFCURVE",
"506 463 CURVE SMOOTH",
"441 463 OFFCURVE",
"394 422 OFFCURVE",
"372 372 CURVE",
"382 360 LINE",
"391 416 OFFCURVE",
"391 465 OFFCURVE",
"391 515 CURVE SMOOTH",
"391 554 OFFCURVE",
"387 600 OFFCURVE",
"350 600 CURVE SMOOTH",
"339 600 OFFCURVE",
"333 598 OFFCURVE",
"328 595 CURVE",
"336 583 OFFCURVE",
"338 547 OFFCURVE",
"338 513 CURVE SMOOTH",
"338 432 OFFCURVE",
"337 356 OFFCURVE",
"336 283 CURVE",
"344 326 LINE",
"318 241 OFFCURVE",
"258 202 OFFCURVE",
"203 202 CURVE SMOOTH",
"144 202 OFFCURVE",
"91 243 OFFCURVE",
"91 309 CURVE SMOOTH",
"91 362 OFFCURVE",
"130 419 OFFCURVE",
"210 419 CURVE SMOOTH",
"222 419 OFFCURVE",
"234 417 OFFCURVE",
"248 414 CURVE",
"250 419 OFFCURVE",
"251 423 OFFCURVE",
"251 428 CURVE SMOOTH",
"251 453 OFFCURVE",
"222 471 OFFCURVE",
"188 471 CURVE SMOOTH",
"100 471 OFFCURVE",
"44 408 OFFCURVE",
"44 338 CURVE SMOOTH",
"44 241 OFFCURVE",
"125 162 OFFCURVE",
"208 162 CURVE SMOOTH",
"224 162 OFFCURVE",
"240 165 OFFCURVE",
"255 171 CURVE"
);
}
);
width = 731;
}
);
},
{
glyphname = dvKH_RA;
layers = (
{
layerId = "7E8129F4-1E15-4123-8D26-95A3779BF9A9";
name = Light;
paths = (
{
closed = 1;
nodes = (
"-37 646 LINE",
"-38 644 OFFCURVE",
"-39 638 OFFCURVE",
"-39 633 CURVE SMOOTH",
"-39 617 OFFCURVE",
"-31 595 OFFCURVE",
"15 595 CURVE SMOOTH",
"796 595 LINE",
"797 597 OFFCURVE",
"798 603 OFFCURVE",
"798 608 CURVE SMOOTH",
"798 624 OFFCURVE",
"790 646 OFFCURVE",
"744 646 CURVE SMOOTH"
);
},
{
closed = 1;
nodes = (
"426 90 LINE",
"339 61 OFFCURVE",
"186 37 OFFCURVE",
"97 37 CURVE",
"94 -3 OFFCURVE",
"122 -14 OFFCURVE",
"155 -14 CURVE SMOOTH",
"216 -14 OFFCURVE",
"543 44 OFFCURVE",
"620 186 CURVE",
"617 193 LINE",
"608 146 OFFCURVE",
"607 116 OFFCURVE",
"607 78 CURVE SMOOTH",
"607 38 OFFCURVE",
"612 -5 OFFCURVE",
"653 -5 CURVE SMOOTH",
"657 -5 OFFCURVE",
"664 -4 OFFCURVE",
"670 -1 CURVE",
"662 11 OFFCURVE",
"660 46 OFFCURVE",
"660 80 CURVE SMOOTH",
"660 238 OFFCURVE",
"664 378 OFFCURVE",
"664 515 CURVE SMOOTH",
"664 554 OFFCURVE",
"660 600 OFFCURVE",
"623 600 CURVE SMOOTH",
"612 600 OFFCURVE",
"606 598 OFFCURVE",
"601 595 CURVE",
"609 583 OFFCURVE",
"611 547 OFFCURVE",
"611 513 CURVE SMOOTH",
"611 479 OFFCURVE",
"611 428 OFFCURVE",
"610 391 CURVE",
"625 403 LINE",
"599 456 OFFCURVE",
"547 490 OFFCURVE",
"492 490 CURVE SMOOTH",
"413 490 OFFCURVE",
"362 430 OFFCURVE",
"362 363 CURVE SMOOTH",
"362 277 OFFCURVE",
"433 213 OFFCURVE",
"476 213 CURVE SMOOTH",
"487 213 OFFCURVE",
"493 220 OFFCURVE",
"494 226 CURVE",
"448 250 OFFCURVE",
"416 294 OFFCURVE",
"416 345 CURVE SMOOTH",
"416 392 OFFCURVE",
"444 445 OFFCURVE",
"508 445 CURVE SMOOTH",
"576 445 OFFCURVE",
"611 381 OFFCURVE",
"611 322 CURVE SMOOTH",
"611 206 OFFCURVE",
"511 115 OFFCURVE",
"370 115 CURVE SMOOTH",
"254 115 OFFCURVE",
"159 182 OFFCURVE",
"130 281 CURVE",
"90 283 LINE",
"142 142 OFFCURVE",
"249 73 OFFCURVE",
"379 73 CURVE"
);
},
{
closed = 1;
nodes = (
"128 295 LINE",
"124 332 OFFCURVE",
"116 405 OFFCURVE",
"65 405 CURVE SMOOTH",
"42 405 OFFCURVE",
"25 388 OFFCURVE",
"25 360 CURVE SMOOTH",
"25 308 OFFCURVE",
"82 271 OFFCURVE",
"133 271 CURVE SMOOTH",
"222 271 OFFCURVE",
"282 341 OFFCURVE",
"282 426 CURVE SMOOTH",
"282 489 OFFCURVE",
"257 553 OFFCURVE",
"222 599 CURVE",
"183 599 LINE",
"216 560 OFFCURVE",
"234 508 OFFCURVE",
"234 456 CURVE SMOOTH",
"234 379 OFFCURVE",
"195 328 OFFCURVE",
"120 325 CURVE SMOOTH",
"109 325 OFFCURVE",
"98 325 OFFCURVE",
"86 329 CURVE"
);
}
);
width = 771;
}
);
},
{
glyphname = dvG_RA;
layers = (
{
layerId = "7E8129F4-1E15-4123-8D26-95A3779BF9A9";
name = Light;
paths = (
{
closed = 1;
nodes = (
"401 236 LINE",
"394 203 OFFCURVE",
"391 113 OFFCURVE",
"391 78 CURVE SMOOTH",
"391 38 OFFCURVE",
"396 -5 OFFCURVE",
"437 -5 CURVE SMOOTH",
"441 -5 OFFCURVE",
"448 -4 OFFCURVE",
"454 -1 CURVE",
"446 11 OFFCURVE",
"444 46 OFFCURVE",
"444 80 CURVE SMOOTH",
"444 238 OFFCURVE",
"448 378 OFFCURVE",
"448 515 CURVE SMOOTH",
"448 554 OFFCURVE",
"444 600 OFFCURVE",
"407 600 CURVE SMOOTH",
"396 600 OFFCURVE",
"390 598 OFFCURVE",
"385 595 CURVE",
"393 583 OFFCURVE",
"395 547 OFFCURVE",
"395 513 CURVE SMOOTH",
"395 423 OFFCURVE",
"394 338 OFFCURVE",
"393 257 CURVE",
"410 302 LINE",
"346 246 OFFCURVE",
"200 133 OFFCURVE",
"85 105 CURVE",
"89 77 OFFCURVE",
"109 65 OFFCURVE",
"130 65 CURVE SMOOTH",
"202 65 OFFCURVE",
"365 192 OFFCURVE",
"426 252 CURVE"
);
},
{
closed = 1;
nodes = (
"-37 646 LINE",
"-38 644 OFFCURVE",
"-39 638 OFFCURVE",
"-39 633 CURVE SMOOTH",
"-39 617 OFFCURVE",
"-31 595 OFFCURVE",
"15 595 CURVE SMOOTH",
"580 595 LINE",
"581 597 OFFCURVE",
"582 603 OFFCURVE",
"582 608 CURVE SMOOTH",
"582 624 OFFCURVE",
"574 646 OFFCURVE",
"528 646 CURVE SMOOTH"
);
},
{
closed = 1;
nodes = (
"124 609 CURVE",
"87 598 LINE",
"135 561 OFFCURVE",
"177 486 OFFCURVE",
"177 421 CURVE SMOOTH",
"177 394 OFFCURVE",
"172 369 OFFCURVE",
"159 349 CURVE",
"150 380 OFFCURVE",
"122 399 OFFCURVE",
"99 399 CURVE SMOOTH",
"73 399 OFFCURVE",
"56 381 OFFCURVE",
"56 356 CURVE SMOOTH",
"56 312 OFFCURVE",
"102 277 OFFCURVE",
"142 277 CURVE SMOOTH",
"205 277 OFFCURVE",
"229 328 OFFCURVE",
"229 391 CURVE SMOOTH",
"229 466 OFFCURVE",
"188 555 OFFCURVE"
);
}
);
width = 555;
}
);
},
{
glyphname = dvGH_RA;
layers = (
{
layerId = "7E8129F4-1E15-4123-8D26-95A3779BF9A9";
name = Light;
paths = (
{
closed = 1;
nodes = (
"-37 646 LINE",
"-38 644 OFFCURVE",
"-39 638 OFFCURVE",
"-39 633 CURVE SMOOTH",
"-39 617 OFFCURVE",
"-31 595 OFFCURVE",
"15 595 CURVE SMOOTH",
"62 595 OFFCURVE",
"88 598 OFFCURVE",
"111 601 CURVE",
"100 607 LINE",
"77 576 OFFCURVE",
"68 542 OFFCURVE",
"68 511 CURVE SMOOTH",
"68 421 OFFCURVE",
"149 346 OFFCURVE",
"235 346 CURVE SMOOTH",
"260 346 OFFCURVE",
"293 358 OFFCURVE",
"293 391 CURVE SMOOTH",
"293 423 OFFCURVE",
"257 438 OFFCURVE",
"227 438 CURVE SMOOTH",
"160 438 OFFCURVE",
"86 391 OFFCURVE",
"86 300 CURVE SMOOTH",
"86 217 OFFCURVE",
"180 130 OFFCURVE",
"285 130 CURVE SMOOTH",
"298 130 OFFCURVE",
"311 131 OFFCURVE",
"324 134 CURVE",
"335 149 LINE",
"260 106 OFFCURVE",
"165 63 OFFCURVE",
"88 48 CURVE",
"91 19 OFFCURVE",
"114 7 OFFCURVE",
"135 7 CURVE SMOOTH",
"202 7 OFFCURVE",
"455 150 OFFCURVE",
"490 264 CURVE",
"452 214 LINE",
"443 168 OFFCURVE",
"443 91 OFFCURVE",
"443 78 CURVE SMOOTH",
"443 38 OFFCURVE",
"448 -5 OFFCURVE",
"489 -5 CURVE SMOOTH",
"493 -5 OFFCURVE",
"500 -4 OFFCURVE",
"506 -1 CURVE",
"498 11 OFFCURVE",
"496 46 OFFCURVE",
"496 80 CURVE SMOOTH",
"496 238 OFFCURVE",
"500 378 OFFCURVE",
"500 515 CURVE SMOOTH",
"500 554 OFFCURVE",
"496 600 OFFCURVE",
"459 600 CURVE SMOOTH",
"448 600 OFFCURVE",
"442 598 OFFCURVE",
"437 595 CURVE",
"445 583 OFFCURVE",
"447 547 OFFCURVE",
"447 513 CURVE SMOOTH",
"447 418 OFFCURVE",
"445 329 OFFCURVE",
"444 244 CURVE",
"454 296 LINE",
"421 220 OFFCURVE",
"346 171 OFFCURVE",
"266 171 CURVE SMOOTH",
"195 171 OFFCURVE",
"135 213 OFFCURVE",
"135 283 CURVE SMOOTH",
"135 341 OFFCURVE",
"178 371 OFFCURVE",
"211 377 CURVE",
"142 396 OFFCURVE",
"115 447 OFFCURVE",
"115 497 CURVE SMOOTH",
"115 546 OFFCURVE",
"136 586 OFFCURVE",
"169 608 CURVE",
"134 595 LINE",
"632 595 LINE",
"633 597 OFFCURVE",
"634 603 OFFCURVE",
"634 608 CURVE SMOOTH",
"634 624 OFFCURVE",
"626 646 OFFCURVE",
"580 646 CURVE SMOOTH"
);
}
);
width = 607;
}
);
},
{
glyphname = dvNG_RA;
layers = (
{
anchors = (
{
name = abvm.bindu;
position = "{236, 646}";
},
{
name = abvm.e;
position = "{336, 646}";
},
{
name = blwm.r;
position = "{344, -130}";
},
{
name = blwm.u;
position = "{306, -111}";
},
{
name = blwm.uu;
position = "{290, -130}";
},
{
name = blwm.virama;
position = "{306, -86}";
}
);
layerId = "7E8129F4-1E15-4123-8D26-95A3779BF9A9";
name = Light;
paths = (
{
closed = 1;
nodes = (
"105 -161 CURVE",
"175 -86 OFFCURVE",
"239 -43 OFFCURVE",
"265 -43 CURVE SMOOTH",
"312 -43 OFFCURVE",
"413 -141 OFFCURVE",
"435 -164 CURVE",
"442 -161 OFFCURVE",
"447 -156 OFFCURVE",
"447 -149 CURVE SMOOTH",
"447 -120 OFFCURVE",
"309 6 OFFCURVE",
"250 6 CURVE SMOOTH",
"201 6 OFFCURVE",
"78 -93 OFFCURVE",
"78 -126 CURVE SMOOTH",
"78 -142 OFFCURVE",
"87 -154 OFFCURVE"
);
},
{
closed = 1;
nodes = (
"-37 646 LINE",
"-38 644 OFFCURVE",
"-39 638 OFFCURVE",
"-39 633 CURVE SMOOTH",
"-39 617 OFFCURVE",
"-31 595 OFFCURVE",
"15 595 CURVE SMOOTH",
"540 595 LINE",
"541 597 OFFCURVE",
"542 603 OFFCURVE",
"542 608 CURVE SMOOTH",
"542 624 OFFCURVE",
"534 646 OFFCURVE",
"488 646 CURVE SMOOTH"
);
},
{
closed = 1;
nodes = (
"282 597 LINE",
"302 583 OFFCURVE",
"318 558 OFFCURVE",
"318 537 CURVE SMOOTH",
"318 515 OFFCURVE",
"304 496 OFFCURVE",
"267 496 CURVE SMOOTH",
"236 496 OFFCURVE",
"211 497 OFFCURVE",
"188 497 CURVE SMOOTH",
"113 497 OFFCURVE",
"64 461 OFFCURVE",
"64 396 CURVE SMOOTH",
"64 314 OFFCURVE",
"159 258 OFFCURVE",
"226 258 CURVE SMOOTH",
"250 258 OFFCURVE",
"281 263 OFFCURVE",
"309 263 CURVE SMOOTH",
"356 263 OFFCURVE",
"382 234 OFFCURVE",
"382 195 CURVE SMOOTH",
"382 130 OFFCURVE",
"311 103 OFFCURVE",
"249 103 CURVE SMOOTH",
"154 103 OFFCURVE",
"77 144 OFFCURVE",
"27 211 CURVE",
"21 209 OFFCURVE",
"13 205 OFFCURVE",
"13 192 CURVE SMOOTH",
"13 151 OFFCURVE",
"128 51 OFFCURVE",
"274 51 CURVE SMOOTH",
"366 51 OFFCURVE",
"431 104 OFFCURVE",
"431 169 CURVE SMOOTH",
"431 236 OFFCURVE",
"368 315 OFFCURVE",
"276 315 CURVE SMOOTH",
"247 315 OFFCURVE",
"221 311 OFFCURVE",
"196 311 CURVE SMOOTH",
"145 311 OFFCURVE",
"112 335 OFFCURVE",
"112 377 CURVE SMOOTH",
"112 431 OFFCURVE",
"165 447 OFFCURVE",
"206 447 CURVE SMOOTH",
"231 447 OFFCURVE",
"249 446 OFFCURVE",
"266 446 CURVE SMOOTH",
"352 446 OFFCURVE",
"369 490 OFFCURVE",
"369 516 CURVE SMOOTH",
"369 549 OFFCURVE",
"351 577 OFFCURVE",
"324 600 CURVE"
);
},
{
closed = 1;
nodes = (
"462 336 CURVE SMOOTH",
"487 336 OFFCURVE",
"504 354 OFFCURVE",
"504 378 CURVE SMOOTH",
"504 408 OFFCURVE",
"475 436 OFFCURVE",
"446 436 CURVE SMOOTH",
"421 436 OFFCURVE",
"404 418 OFFCURVE",
"404 394 CURVE SMOOTH",
"404 364 OFFCURVE",
"432 336 OFFCURVE"
);
}
);
width = 521;
}
);
},
{
glyphname = dvC_RA;
layers = (
{
layerId = "7E8129F4-1E15-4123-8D26-95A3779BF9A9";
name = Light;
paths = (
{
closed = 1;
nodes = (
"-58 646 LINE",
"-59 644 OFFCURVE",
"-60 638 OFFCURVE",
"-60 633 CURVE SMOOTH",
"-60 617 OFFCURVE",
"-52 595 OFFCURVE",
"-6 595 CURVE SMOOTH",
"615 595 LINE",
"616 597 OFFCURVE",
"617 603 OFFCURVE",
"617 608 CURVE SMOOTH",
"617 624 OFFCURVE",
"609 646 OFFCURVE",
"563 646 CURVE SMOOTH"
);
},
{
closed = 1;
nodes = (
"92 61 CURVE",
"96 33 OFFCURVE",
"114 21 OFFCURVE",
"134 21 CURVE SMOOTH",
"215 21 OFFCURVE",
"459 203 OFFCURVE",
"466 268 CURVE",
"435 228 LINE",
"428 177 OFFCURVE",
"426 127 OFFCURVE",
"426 78 CURVE SMOOTH",
"426 38 OFFCURVE",
"431 -5 OFFCURVE",
"472 -5 CURVE",
"472 -5 OFFCURVE",
"489 -4 OFFCURVE",
"489 -1 CURVE",
"481 11 OFFCURVE",
"479 46 OFFCURVE",
"479 80 CURVE SMOOTH",
"479 238 OFFCURVE",
"483 378 OFFCURVE",
"483 515 CURVE SMOOTH",
"483 554 OFFCURVE",
"479 600 OFFCURVE",
"442 600 CURVE SMOOTH",
"431 600 OFFCURVE",
"425 598 OFFCURVE",
"420 595 CURVE",
"427 583 OFFCURVE",
"430 547 OFFCURVE",
"430 513 CURVE SMOOTH",
"430 421 OFFCURVE",
"428 335 OFFCURVE",
"427 252 CURVE",
"443 356 LINE",
"423 241 OFFCURVE",
"345 194 OFFCURVE",
"276 194 CURVE SMOOTH",
"212 194 OFFCURVE",
"154 235 OFFCURVE",
"154 300 CURVE SMOOTH",
"154 355 OFFCURVE",
"198 412 OFFCURVE",
"281 412 CURVE SMOOTH",
"322 412 LINE",
"323 414 OFFCURVE",
"325 420 OFFCURVE",
"325 424 CURVE SMOOTH",
"325 463 OFFCURVE",
"287 463 OFFCURVE",
"271 463 CURVE SMOOTH",
"-1 463 LINE",
"-2 461 OFFCURVE",
"-3 455 OFFCURVE",
"-3 452 CURVE SMOOTH",
"-3 413 OFFCURVE",
"40 412 OFFCURVE",
"67 412 CURVE SMOOTH",
"99 412 OFFCURVE",
"148 416 OFFCURVE",
"185 422 CURVE",
"202 437 LINE",
"140 419 OFFCURVE",
"109 372 OFFCURVE",
"109 325 CURVE SMOOTH",
"109 224 OFFCURVE",
"201 153 OFFCURVE",
"288 153 CURVE SMOOTH",
"297 153 OFFCURVE",
"306 153 OFFCURVE",
"315 155 CURVE",
"330 175 LINE",
"262 127 OFFCURVE",
"163 78 OFFCURVE"
);
}
);
width = 590;
}
);
},
{
glyphname = dvCH_RA;
layers = (
{
anchors = (
{
name = abvm.bindu;
position = "{317, 646}";
},
{
name = abvm.e;
position = "{494, 646}";
},
{
name = blwm.r;
position = "{414, -109}";
},
{
name = blwm.u;
position = "{374, -97}";
},
{
name = blwm.uu;
position = "{358, -105}";
},
{
name = blwm.virama;
position = "{374, -65}";
}
);
layerId = "7E8129F4-1E15-4123-8D26-95A3779BF9A9";
name = Light;
paths = (
{
closed = 1;
nodes = (
"173 -140 CURVE",
"243 -65 OFFCURVE",
"307 -22 OFFCURVE",
"333 -22 CURVE SMOOTH",
"380 -22 OFFCURVE",
"481 -120 OFFCURVE",
"503 -143 CURVE",
"510 -140 OFFCURVE",
"515 -135 OFFCURVE",
"515 -128 CURVE SMOOTH",
"515 -99 OFFCURVE",
"377 27 OFFCURVE",
"318 27 CURVE SMOOTH",
"269 27 OFFCURVE",
"146 -72 OFFCURVE",
"146 -105 CURVE SMOOTH",
"146 -121 OFFCURVE",
"155 -133 OFFCURVE"
);
},
{
closed = 1;
nodes = (
"494 515 LINE",
"494 554 OFFCURVE",
"490 600 OFFCURVE",
"453 600 CURVE SMOOTH",
"442 600 OFFCURVE",
"436 598 OFFCURVE",
"431 595 CURVE",
"439 583 OFFCURVE",
"441 547 OFFCURVE",
"441 513 CURVE"
);
},
{
closed = 1;
nodes = (
"178 595 LINE",
"672 595 LINE",
"673 597 OFFCURVE",
"674 603 OFFCURVE",
"674 608 CURVE SMOOTH",
"674 624 OFFCURVE",
"666 646 OFFCURVE",
"620 646 CURVE SMOOTH",
"-35 646 LINE",
"-36 644 OFFCURVE",
"-37 638 OFFCURVE",
"-37 633 CURVE SMOOTH",
"-37 617 OFFCURVE",
"-29 595 OFFCURVE",
"17 595 CURVE SMOOTH",
"42 595 OFFCURVE",
"69 595 OFFCURVE",
"135 600 CURVE",
"119 604 LINE",
"83 574 OFFCURVE",
"70 530 OFFCURVE",
"70 493 CURVE SMOOTH",
"70 397 OFFCURVE",
"148 321 OFFCURVE",
"231 321 CURVE SMOOTH",
"255 321 OFFCURVE",
"286 333 OFFCURVE",
"286 365 CURVE SMOOTH",
"286 398 OFFCURVE",
"248 413 OFFCURVE",
"216 413 CURVE SMOOTH",
"150 413 OFFCURVE",
"72 365 OFFCURVE",
"72 271 CURVE SMOOTH",
"72 156 OFFCURVE",
"204 72 OFFCURVE",
"322 72 CURVE SMOOTH",
"480 72 OFFCURVE",
"598 188 OFFCURVE",
"598 349 CURVE SMOOTH",
"598 433 OFFCURVE",
"544 524 OFFCURVE",
"451 524 CURVE SMOOTH",
"389 524 OFFCURVE",
"352 467 OFFCURVE",
"352 413 CURVE SMOOTH",
"352 330 OFFCURVE",
"411 260 OFFCURVE",
"444 260 CURVE SMOOTH",
"452 260 OFFCURVE",
"457 264 OFFCURVE",
"460 269 CURVE",
"435 295 OFFCURVE",
"404 335 OFFCURVE",
"404 389 CURVE SMOOTH",
"404 439 OFFCURVE",
"430 480 OFFCURVE",
"475 480 CURVE SMOOTH",
"523 480 OFFCURVE",
"550 431 OFFCURVE",
"550 369 CURVE SMOOTH",
"550 264 OFFCURVE",
"472 121 OFFCURVE",
"289 121 CURVE SMOOTH",
"202 121 OFFCURVE",
"121 171 OFFCURVE",
"121 255 CURVE SMOOTH",
"121 314 OFFCURVE",
"169 351 OFFCURVE",
"208 351 CURVE",
"143 370 OFFCURVE",
"119 423 OFFCURVE",
"119 475 CURVE SMOOTH",
"119 532 OFFCURVE",
"149 575 OFFCURVE",
"199 600 CURVE"
);
}
);
width = 647;
}
);
},
{
glyphname = dvJ_RA;
layers = (
{
layerId = "7E8129F4-1E15-4123-8D26-95A3779BF9A9";
name = Light;
paths = (
{
closed = 1;
nodes = (
"-37 646 LINE",
"-38 644 OFFCURVE",
"-39 638 OFFCURVE",
"-39 633 CURVE SMOOTH",
"-39 617 OFFCURVE",
"-31 595 OFFCURVE",
"15 595 CURVE SMOOTH",
"690 595 LINE",
"691 597 OFFCURVE",
"692 603 OFFCURVE",
"692 608 CURVE SMOOTH",
"692 624 OFFCURVE",
"684 646 OFFCURVE",
"638 646 CURVE SMOOTH"
);
},
{
closed = 1;
nodes = (
"535 467 LINE",
"174 467 LINE",
"173 465 OFFCURVE",
"172 459 OFFCURVE",
"172 454 CURVE SMOOTH",
"172 438 OFFCURVE",
"180 416 OFFCURVE",
"226 416 CURVE SMOOTH",
"535 416 LINE"
);
},
{
closed = 1;
nodes = (
"239 432 LINE",
"269 406 OFFCURVE",
"294 367 OFFCURVE",
"294 326 CURVE SMOOTH",
"294 280 OFFCURVE",
"261 247 OFFCURVE",
"215 247 CURVE SMOOTH",
"113 247 OFFCURVE",
"58 383 OFFCURVE",
"35 457 CURVE",
"27 457 OFFCURVE",
"15 453 OFFCURVE",
"15 436 CURVE SMOOTH",
"15 393 OFFCURVE",
"87 195 OFFCURVE",
"228 195 CURVE SMOOTH",
"291 195 OFFCURVE",
"345 235 OFFCURVE",
"345 310 CURVE SMOOTH",
"345 373 OFFCURVE",
"296 422 OFFCURVE",
"283 432 CURVE"
);
},
{
closed = 1;
nodes = (
"511 214 LINE",
"504 185 OFFCURVE",
"501 109 OFFCURVE",
"501 78 CURVE SMOOTH",
"501 38 OFFCURVE",
"506 -5 OFFCURVE",
"547 -5 CURVE SMOOTH",
"551 -5 OFFCURVE",
"558 -4 OFFCURVE",
"564 -1 CURVE",
"556 11 OFFCURVE",
"554 46 OFFCURVE",
"554 80 CURVE SMOOTH",
"554 238 OFFCURVE",
"558 378 OFFCURVE",
"558 515 CURVE SMOOTH",
"558 554 OFFCURVE",
"554 600 OFFCURVE",
"517 600 CURVE SMOOTH",
"506 600 OFFCURVE",
"500 598 OFFCURVE",
"495 595 CURVE",
"503 583 OFFCURVE",
"505 547 OFFCURVE",
"505 513 CURVE SMOOTH",
"505 416 OFFCURVE",
"504 322 OFFCURVE",
"503 235 CURVE",
"520 280 LINE",
"456 225 OFFCURVE",
"309 113 OFFCURVE",
"194 85 CURVE",
"198 57 OFFCURVE",
"218 45 OFFCURVE",
"238 45 CURVE SMOOTH",
"310 45 OFFCURVE",
"473 172 OFFCURVE",
"534 232 CURVE"
);
}
);
width = 665;
}
);
},
{
glyphname = dvJH_RA;
layers = (
{
layerId = "7E8129F4-1E15-4123-8D26-95A3779BF9A9";
name = Light;
paths = (
{
closed = 1;
nodes = (
"-37 646 LINE",
"-38 644 OFFCURVE",
"-39 638 OFFCURVE",
"-39 633 CURVE SMOOTH",
"-39 617 OFFCURVE",
"-31 595 OFFCURVE",
"15 595 CURVE SMOOTH",
"840 595 LINE",
"841 597 OFFCURVE",
"842 603 OFFCURVE",
"842 608 CURVE SMOOTH",
"842 624 OFFCURVE",
"834 646 OFFCURVE",
"788 646 CURVE SMOOTH"
);
},
{
closed = 1;
nodes = (
"123 125 LINE",
"166 -64 OFFCURVE",
"256 -120 OFFCURVE",
"317 -120 CURVE SMOOTH",
"359 -120 OFFCURVE",
"379 -98 OFFCURVE",
"379 -76 CURVE SMOOTH",
"379 -62 OFFCURVE",
"371 -48 OFFCURVE",
"355 -41 CURVE",
"340 -57 OFFCURVE",
"320 -62 OFFCURVE",
"303 -62 CURVE SMOOTH",
"241 -62 OFFCURVE",
"187 11 OFFCURVE",
"161 94 CURVE"
);
},
{
closed = 1;
nodes = (
"660 193 LINE",
"654 155 OFFCURVE",
"651 115 OFFCURVE",
"651 78 CURVE SMOOTH",
"651 38 OFFCURVE",
"656 -5 OFFCURVE",
"697 -5 CURVE SMOOTH",
"701 -5 OFFCURVE",
"708 -4 OFFCURVE",
"714 -1 CURVE",
"706 11 OFFCURVE",
"704 46 OFFCURVE",
"704 80 CURVE SMOOTH",
"704 238 OFFCURVE",
"708 378 OFFCURVE",
"708 515 CURVE SMOOTH",
"708 554 OFFCURVE",
"704 600 OFFCURVE",
"667 600 CURVE SMOOTH",
"656 600 OFFCURVE",
"650 598 OFFCURVE",
"645 595 CURVE",
"653 583 OFFCURVE",
"655 547 OFFCURVE",
"655 513 CURVE SMOOTH",
"655 444 OFFCURVE",
"654 380 OFFCURVE",
"653 317 CURVE",
"662 363 LINE",
"616 311 OFFCURVE",
"525 297 OFFCURVE",
"468 297 CURVE SMOOTH",
"387 297 OFFCURVE",
"328 314 OFFCURVE",
"272 314 CURVE SMOOTH",
"248 314 OFFCURVE",
"228 312 OFFCURVE",
"207 312 CURVE SMOOTH",
"151 312 OFFCURVE",
"126 344 OFFCURVE",
"126 373 CURVE SMOOTH",
"126 422 OFFCURVE",
"173 439 OFFCURVE",
"207 439 CURVE SMOOTH",
"225 439 OFFCURVE",
"273 438 OFFCURVE",
"293 438 CURVE SMOOTH",
"366 438 OFFCURVE",
"396 473 OFFCURVE",
"396 511 CURVE SMOOTH",
"396 543 OFFCURVE",
"375 580 OFFCURVE",
"336 605 CURVE",
"290 605 LINE",
"319 590 OFFCURVE",
"345 556 OFFCURVE",
"345 531 CURVE SMOOTH",
"345 498 OFFCURVE",
"315 491 OFFCURVE",
"290 491 CURVE SMOOTH",
"265 491 OFFCURVE",
"225 492 OFFCURVE",
"206 492 CURVE SMOOTH",
"126 492 OFFCURVE",
"74 460 OFFCURVE",
"74 395 CURVE SMOOTH",
"74 328 OFFCURVE",
"164 261 OFFCURVE",
"233 261 CURVE SMOOTH",
"254 261 OFFCURVE",
"278 263 OFFCURVE",
"299 263 CURVE SMOOTH",
"354 263 OFFCURVE",
"384 231 OFFCURVE",
"384 185 CURVE SMOOTH",
"384 115 OFFCURVE",
"307 84 OFFCURVE",
"246 84 CURVE SMOOTH",
"217 84 OFFCURVE",
"178 91 OFFCURVE",
"161 103 CURVE",
"151 154 OFFCURVE",
"127 197 OFFCURVE",
"90 197 CURVE SMOOTH",
"67 197 OFFCURVE",
"51 179 OFFCURVE",
"51 156 CURVE SMOOTH",
"51 74 OFFCURVE",
"176 33 OFFCURVE",
"262 33 CURVE SMOOTH",
"353 33 OFFCURVE",
"434 86 OFFCURVE",
"434 168 CURVE SMOOTH",
"434 212 OFFCURVE",
"413 248 OFFCURVE",
"382 274 CURVE",
"329 274 LINE",
"377 263 OFFCURVE",
"433 252 OFFCURVE",
"493 252 CURVE SMOOTH",
"554 252 OFFCURVE",
"620 264 OFFCURVE",
"665 295 CURVE",
"659 307 LINE",
"656 279 OFFCURVE",
"655 252 OFFCURVE",
"654 224 CURVE",
"673 264 LINE",
"619 195 OFFCURVE",
"532 98 OFFCURVE",
"454 60 CURVE",
"462 39 OFFCURVE",
"477 31 OFFCURVE",
"494 31 CURVE SMOOTH",
"545 31 OFFCURVE",
"627 130 OFFCURVE",
"680 207 CURVE"
);
}
);
width = 815;
}
);
},
{
glyphname = dvNY_RA;
layers = (
{
layerId = "7E8129F4-1E15-4123-8D26-95A3779BF9A9";
name = Light;
paths = (
{
closed = 1;
nodes = (
"-37 646 LINE",
"-38 644 OFFCURVE",
"-39 638 OFFCURVE",
"-39 633 CURVE SMOOTH",
"-39 617 OFFCURVE",
"-31 595 OFFCURVE",
"15 595 CURVE SMOOTH",
"699 595 LINE",
"700 597 OFFCURVE",
"701 603 OFFCURVE",
"701 608 CURVE SMOOTH",
"701 624 OFFCURVE",
"693 646 OFFCURVE",
"647 646 CURVE SMOOTH"
);
},
{
closed = 1;
nodes = (
"400 324 LINE",
"418 313 OFFCURVE",
"447 308 OFFCURVE",
"473 308 CURVE SMOOTH",
"491 308 OFFCURVE",
"508 310 OFFCURVE",
"519 314 CURVE",
"519 373 LINE",
"502 362 OFFCURVE",
"471 355 OFFCURVE",
"443 355 CURVE SMOOTH",
"430 355 OFFCURVE",
"417 356 OFFCURVE",
"404 358 CURVE"
);
},
{
closed = 1;
nodes = (
"32 472 CURVE",
"24 472 OFFCURVE",
"13 468 OFFCURVE",
"13 452 CURVE SMOOTH",
"13 414 OFFCURVE",
"107 216 OFFCURVE",
"263 216 CURVE SMOOTH",
"343 216 OFFCURVE",
"411 264 OFFCURVE",
"411 343 CURVE SMOOTH",
"411 438 OFFCURVE",
"341 509 OFFCURVE",
"251 509 CURVE SMOOTH",
"212 509 OFFCURVE",
"172 486 OFFCURVE",
"172 452 CURVE SMOOTH",
"172 420 OFFCURVE",
"202 413 OFFCURVE",
"202 413 CURVE",
"221 447 OFFCURVE",
"247 463 OFFCURVE",
"280 463 CURVE SMOOTH",
"335 463 OFFCURVE",
"366 420 OFFCURVE",
"366 373 CURVE SMOOTH",
"366 323 OFFCURVE",
"327 269 OFFCURVE",
"246 269 CURVE SMOOTH",
"134 269 OFFCURVE",
"68 381 OFFCURVE"
);
},
{
closed = 1;
nodes = (
"520 214 LINE",
"513 185 OFFCURVE",
"510 109 OFFCURVE",
"510 78 CURVE SMOOTH",
"510 38 OFFCURVE",
"515 -5 OFFCURVE",
"556 -5 CURVE SMOOTH",
"560 -5 OFFCURVE",
"567 -4 OFFCURVE",
"573 -1 CURVE",
"565 11 OFFCURVE",
"563 46 OFFCURVE",
"563 80 CURVE SMOOTH",
"563 238 OFFCURVE",
"567 378 OFFCURVE",
"567 515 CURVE SMOOTH",
"567 554 OFFCURVE",
"563 600 OFFCURVE",
"526 600 CURVE SMOOTH",
"515 600 OFFCURVE",
"509 598 OFFCURVE",
"504 595 CURVE",
"512 583 OFFCURVE",
"514 547 OFFCURVE",
"514 513 CURVE SMOOTH",
"514 416 OFFCURVE",
"513 322 OFFCURVE",
"512 235 CURVE",
"529 278 LINE",
"465 223 OFFCURVE",
"318 114 OFFCURVE",
"203 86 CURVE",
"207 59 OFFCURVE",
"227 46 OFFCURVE",
"247 46 CURVE SMOOTH",
"319 46 OFFCURVE",
"481 172 OFFCURVE",
"542 232 CURVE"
);
}
);
width = 674;
}
);
},
{
glyphname = dvTT_RA;
layers = (
{
anchors = (
{
name = abvm.bindu;
position = "{222, 646}";
},
{
name = abvm.e;
position = "{296, 646}";
},
{
name = blwm.r;
position = "{302, -104}";
},
{
name = blwm.u;
position = "{262, -82}";
},
{
name = blwm.uu;
position = "{250, -100}";
},
{
name = blwm.virama;
position = "{262, -55}";
}
);
layerId = "7E8129F4-1E15-4123-8D26-95A3779BF9A9";
name = Light;
paths = (
{
closed = 1;
nodes = (
"63 -131 CURVE",
"133 -56 OFFCURVE",
"197 -13 OFFCURVE",
"223 -13 CURVE SMOOTH",
"270 -13 OFFCURVE",
"371 -111 OFFCURVE",
"393 -134 CURVE",
"400 -131 OFFCURVE",
"405 -126 OFFCURVE",
"405 -119 CURVE SMOOTH",
"405 -90 OFFCURVE",
"267 36 OFFCURVE",
"208 36 CURVE SMOOTH",
"159 36 OFFCURVE",
"36 -63 OFFCURVE",
"36 -96 CURVE SMOOTH",
"36 -112 OFFCURVE",
"45 -124 OFFCURVE"
);
},
{
closed = 1;
nodes = (
"242 596 LINE",
"259 586 OFFCURVE",
"275 565 OFFCURVE",
"275 542 CURVE SMOOTH",
"275 445 OFFCURVE",
"25 442 OFFCURVE",
"25 266 CURVE SMOOTH",
"25 160 OFFCURVE",
"145 81 OFFCURVE",
"244 81 CURVE SMOOTH",
"337 81 OFFCURVE",
"413 140 OFFCURVE",
"413 200 CURVE SMOOTH",
"413 227 OFFCURVE",
"393 242 OFFCURVE",
"372 242 CURVE",
"359 166 OFFCURVE",
"289 125 OFFCURVE",
"218 125 CURVE SMOOTH",
"145 125 OFFCURVE",
"76 176 OFFCURVE",
"76 249 CURVE SMOOTH",
"76 401 OFFCURVE",
"321 393 OFFCURVE",
"321 521 CURVE SMOOTH",
"321 564 OFFCURVE",
"298 596 OFFCURVE",
"264 616 CURVE"
);
},
{
closed = 1;
nodes = (
"-37 646 LINE",
"-38 644 OFFCURVE",
"-39 638 OFFCURVE",
"-39 633 CURVE SMOOTH",
"-39 617 OFFCURVE",
"-31 595 OFFCURVE",
"15 595 CURVE SMOOTH",
"459 595 LINE",
"460 597 OFFCURVE",
"461 603 OFFCURVE",
"461 608 CURVE SMOOTH",
"461 624 OFFCURVE",
"453 646 OFFCURVE",
"407 646 CURVE SMOOTH"
);
}
);
width = 434;
}
);
},
{
glyphname = dvTTH_RA;
layers = (
{
anchors = (
{
name = abvm.bindu;
position = "{214, 646}";
},
{
name = abvm.e;
position = "{289, 646}";
},
{
name = blwm.r;
position = "{318, -123}";
},
{
name = blwm.u;
position = "{276, -96}";
},
{
name = blwm.uu;
position = "{259, -113}";
},
{
name = blwm.virama;
position = "{274, -76}";
}
);
layerId = "7E8129F4-1E15-4123-8D26-95A3779BF9A9";
name = Light;
paths = (
{
closed = 1;
nodes = (
"77 -149 CURVE",
"147 -74 OFFCURVE",
"211 -31 OFFCURVE",
"237 -31 CURVE SMOOTH",
"284 -31 OFFCURVE",
"385 -129 OFFCURVE",
"407 -152 CURVE",
"414 -149 OFFCURVE",
"419 -144 OFFCURVE",
"419 -137 CURVE SMOOTH",
"419 -108 OFFCURVE",
"281 18 OFFCURVE",
"222 18 CURVE SMOOTH",
"173 18 OFFCURVE",
"50 -81 OFFCURVE",
"50 -114 CURVE SMOOTH",
"50 -130 OFFCURVE",
"59 -142 OFFCURVE"
);
},
{
closed = 1;
nodes = (
"-37 646 LINE",
"-38 644 OFFCURVE",
"-39 638 OFFCURVE",
"-39 633 CURVE SMOOTH",
"-39 617 OFFCURVE",
"-31 595 OFFCURVE",
"15 595 CURVE SMOOTH",
"502 595 LINE",
"503 597 OFFCURVE",
"504 603 OFFCURVE",
"504 608 CURVE SMOOTH",
"504 624 OFFCURVE",
"496 646 OFFCURVE",
"450 646 CURVE SMOOTH"
);
},
{
closed = 1;
nodes = (
"195 410 LINE",
"315 401 OFFCURVE",
"384 333 OFFCURVE",
"384 251 CURVE SMOOTH",
"384 165 OFFCURVE",
"306 108 OFFCURVE",
"225 108 CURVE SMOOTH",
"150 108 OFFCURVE",
"76 158 OFFCURVE",
"76 241 CURVE SMOOTH",
"76 404 OFFCURVE",
"310 393 OFFCURVE",
"310 521 CURVE SMOOTH",
"310 564 OFFCURVE",
"285 595 OFFCURVE",
"252 616 CURVE",
"231 596 LINE",
"248 586 OFFCURVE",
"264 565 OFFCURVE",
"264 542 CURVE SMOOTH",
"264 448 OFFCURVE",
"25 437 OFFCURVE",
"25 266 CURVE SMOOTH",
"25 147 OFFCURVE",
"143 63 OFFCURVE",
"246 63 CURVE SMOOTH",
"355 63 OFFCURVE",
"435 134 OFFCURVE",
"435 233 CURVE SMOOTH",
"435 321 OFFCURVE",
"364 415 OFFCURVE",
"235 437 CURVE"
);
}
);
width = 477;
}
);
},
{
glyphname = dvDD_RA;
layers = (
{
anchors = (
{
name = abvm.bindu;
position = "{236, 646}";
},
{
name = abvm.e;
position = "{336, 646}";
},
{
name = blwm.r;
position = "{319, -138}";
},
{
name = blwm.u;
position = "{283, -105}";
},
{
name = blwm.uu;
position = "{268, -125}";
},
{
name = blwm.virama;
position = "{283, -86}";
}
);
layerId = "7E8129F4-1E15-4123-8D26-95A3779BF9A9";
name = Light;
paths = (
{
closed = 1;
nodes = (
"82 -161 CURVE",
"152 -86 OFFCURVE",
"216 -43 OFFCURVE",
"242 -43 CURVE SMOOTH",
"289 -43 OFFCURVE",
"390 -141 OFFCURVE",
"412 -164 CURVE",
"419 -161 OFFCURVE",
"424 -156 OFFCURVE",
"424 -149 CURVE SMOOTH",
"424 -120 OFFCURVE",
"286 6 OFFCURVE",
"227 6 CURVE SMOOTH",
"178 6 OFFCURVE",
"55 -93 OFFCURVE",
"55 -126 CURVE SMOOTH",
"55 -142 OFFCURVE",
"64 -154 OFFCURVE"
);
},
{
closed = 1;
nodes = (
"282 597 LINE",
"302 583 OFFCURVE",
"318 558 OFFCURVE",
"318 537 CURVE SMOOTH",
"318 515 OFFCURVE",
"304 496 OFFCURVE",
"267 496 CURVE SMOOTH",
"236 496 OFFCURVE",
"211 497 OFFCURVE",
"188 497 CURVE SMOOTH",
"113 497 OFFCURVE",
"64 461 OFFCURVE",
"64 396 CURVE SMOOTH",
"64 314 OFFCURVE",
"159 258 OFFCURVE",
"226 258 CURVE SMOOTH",
"250 258 OFFCURVE",
"281 263 OFFCURVE",
"309 263 CURVE SMOOTH",
"356 263 OFFCURVE",
"382 234 OFFCURVE",
"382 195 CURVE SMOOTH",
"382 130 OFFCURVE",
"311 103 OFFCURVE",
"249 103 CURVE SMOOTH",
"154 103 OFFCURVE",
"77 144 OFFCURVE",
"27 211 CURVE",
"21 209 OFFCURVE",
"13 205 OFFCURVE",
"13 192 CURVE SMOOTH",
"13 151 OFFCURVE",
"128 51 OFFCURVE",
"274 51 CURVE SMOOTH",
"366 51 OFFCURVE",
"431 104 OFFCURVE",
"431 169 CURVE SMOOTH",
"431 236 OFFCURVE",
"368 315 OFFCURVE",
"276 315 CURVE SMOOTH",
"247 315 OFFCURVE",
"221 311 OFFCURVE",
"196 311 CURVE SMOOTH",
"145 311 OFFCURVE",
"112 335 OFFCURVE",
"112 377 CURVE SMOOTH",
"112 431 OFFCURVE",
"165 447 OFFCURVE",
"206 447 CURVE SMOOTH",
"231 447 OFFCURVE",
"249 446 OFFCURVE",
"266 446 CURVE SMOOTH",
"352 446 OFFCURVE",
"369 490 OFFCURVE",
"369 516 CURVE SMOOTH",
"369 549 OFFCURVE",
"351 577 OFFCURVE",
"324 600 CURVE"
);
},
{
closed = 1;
nodes = (
"-37 646 LINE",
"-38 644 OFFCURVE",
"-39 638 OFFCURVE",
"-39 633 CURVE SMOOTH",
"-39 617 OFFCURVE",
"-31 595 OFFCURVE",
"15 595 CURVE SMOOTH",
"502 595 LINE",
"503 597 OFFCURVE",
"504 603 OFFCURVE",
"504 608 CURVE SMOOTH",
"504 624 OFFCURVE",
"496 646 OFFCURVE",
"450 646 CURVE SMOOTH"
);
}
);
width = 452;
}
);
},
{
glyphname = dvDDH_RA;
layers = (
{
anchors = (
{
name = abvm.bindu;
position = "{235, 646}";
},
{
name = abvm.e;
position = "{328, 646}";
},
{
name = blwm.r;
position = "{334, -132}";
},
{
name = blwm.u;
position = "{293, -93}";
},
{
name = blwm.uu;
position = "{277, -115}";
},
{
name = blwm.virama;
position = "{295, -75}";
}
);
layerId = "7E8129F4-1E15-4123-8D26-95A3779BF9A9";
name = Light;
paths = (
{
closed = 1;
nodes = (
"276 596 LINE",
"293 585 OFFCURVE",
"310 566 OFFCURVE",
"310 544 CURVE SMOOTH",
"310 448 OFFCURVE",
"25 468 OFFCURVE",
"25 267 CURVE SMOOTH",
"25 145 OFFCURVE",
"162 56 OFFCURVE",
"271 56 CURVE SMOOTH",
"370 56 OFFCURVE",
"439 114 OFFCURVE",
"439 189 CURVE SMOOTH",
"439 265 OFFCURVE",
"371 318 OFFCURVE",
"304 318 CURVE SMOOTH",
"255 318 OFFCURVE",
"206 287 OFFCURVE",
"206 228 CURVE SMOOTH",
"206 191 OFFCURVE",
"229 170 OFFCURVE",
"253 170 CURVE SMOOTH",
"259 170 OFFCURVE",
"265 171 OFFCURVE",
"270 174 CURVE",
"266 183 OFFCURVE",
"262 196 OFFCURVE",
"262 210 CURVE SMOOTH",
"262 252 OFFCURVE",
"291 278 OFFCURVE",
"326 278 CURVE SMOOTH",
"357 278 OFFCURVE",
"388 256 OFFCURVE",
"388 213 CURVE SMOOTH",
"388 139 OFFCURVE",
"314 100 OFFCURVE",
"250 100 CURVE SMOOTH",
"159 100 OFFCURVE",
"76 161 OFFCURVE",
"76 250 CURVE SMOOTH",
"76 425 OFFCURVE",
"356 393 OFFCURVE",
"356 523 CURVE SMOOTH",
"356 565 OFFCURVE",
"331 595 OFFCURVE",
"301 616 CURVE"
);
},
{
closed = 1;
nodes = (
"-37 646 LINE",
"-38 644 OFFCURVE",
"-39 638 OFFCURVE",
"-39 633 CURVE SMOOTH",
"-39 617 OFFCURVE",
"-31 595 OFFCURVE",
"15 595 CURVE SMOOTH",
"495 595 LINE",
"496 597 OFFCURVE",
"497 603 OFFCURVE",
"497 608 CURVE SMOOTH",
"497 624 OFFCURVE",
"489 646 OFFCURVE",
"443 646 CURVE SMOOTH"
);
},
{
closed = 1;
nodes = (
"95 -156 CURVE",
"165 -81 OFFCURVE",
"229 -38 OFFCURVE",
"255 -38 CURVE SMOOTH",
"302 -38 OFFCURVE",
"403 -136 OFFCURVE",
"425 -159 CURVE",
"432 -156 OFFCURVE",
"437 -151 OFFCURVE",
"437 -144 CURVE SMOOTH",
"437 -115 OFFCURVE",
"299 11 OFFCURVE",
"240 11 CURVE SMOOTH",
"191 11 OFFCURVE",
"68 -88 OFFCURVE",
"68 -121 CURVE SMOOTH",
"68 -137 OFFCURVE",
"77 -149 OFFCURVE"
);
}
);
width = 470;
}
);
},
{
glyphname = dvNN_RA;
layers = (
{
layerId = "7E8129F4-1E15-4123-8D26-95A3779BF9A9";
name = Light;
paths = (
{
closed = 1;
nodes = (
"322 608 CURVE",
"298 596 LINE",
"321 545 OFFCURVE",
"321 465 OFFCURVE",
"321 438 CURVE SMOOTH",
"321 322 OFFCURVE",
"281 285 OFFCURVE",
"221 285 CURVE SMOOTH",
"150 285 OFFCURVE",
"123 337 OFFCURVE",
"123 399 CURVE SMOOTH",
"123 441 OFFCURVE",
"125 479 OFFCURVE",
"125 515 CURVE SMOOTH",
"125 554 OFFCURVE",
"121 600 OFFCURVE",
"84 600 CURVE SMOOTH",
"73 600 OFFCURVE",
"67 598 OFFCURVE",
"62 595 CURVE",
"70 583 OFFCURVE",
"72 547 OFFCURVE",
"72 513 CURVE SMOOTH",
"72 471 OFFCURVE",
"71 437 OFFCURVE",
"71 401 CURVE SMOOTH",
"71 315 OFFCURVE",
"159 241 OFFCURVE",
"244 241 CURVE SMOOTH",
"310 241 OFFCURVE",
"373 273 OFFCURVE",
"373 403 CURVE SMOOTH",
"373 462 OFFCURVE",
"362 558 OFFCURVE"
);
},
{
closed = 1;
nodes = (
"-37 646 LINE",
"-38 644 OFFCURVE",
"-39 638 OFFCURVE",
"-39 633 CURVE SMOOTH",
"-39 617 OFFCURVE",
"-31 595 OFFCURVE",
"15 595 CURVE SMOOTH",
"747 595 LINE",
"748 597 OFFCURVE",
"749 603 OFFCURVE",
"749 608 CURVE SMOOTH",
"749 624 OFFCURVE",
"741 646 OFFCURVE",
"695 646 CURVE SMOOTH"
);
},
{
closed = 1;
nodes = (
"568 235 LINE",
"561 202 OFFCURVE",
"558 113 OFFCURVE",
"558 78 CURVE SMOOTH",
"558 38 OFFCURVE",
"563 -5 OFFCURVE",
"604 -5 CURVE SMOOTH",
"608 -5 OFFCURVE",
"615 -4 OFFCURVE",
"621 -1 CURVE",
"613 11 OFFCURVE",
"611 46 OFFCURVE",
"611 80 CURVE SMOOTH",
"611 238 OFFCURVE",
"615 378 OFFCURVE",
"615 515 CURVE SMOOTH",
"615 554 OFFCURVE",
"611 600 OFFCURVE",
"574 600 CURVE SMOOTH",
"563 600 OFFCURVE",
"557 598 OFFCURVE",
"552 595 CURVE",
"560 583 OFFCURVE",
"562 547 OFFCURVE",
"562 513 CURVE SMOOTH",
"562 423 OFFCURVE",
"561 337 OFFCURVE",
"560 256 CURVE",
"577 301 LINE",
"513 246 OFFCURVE",
"366 134 OFFCURVE",
"251 106 CURVE",
"255 78 OFFCURVE",
"275 65 OFFCURVE",
"295 65 CURVE SMOOTH",
"367 65 OFFCURVE",
"530 192 OFFCURVE",
"591 252 CURVE"
);
}
);
width = 722;
}
);
},
{
glyphname = dvT_RA;
layers = (
{
layerId = "7E8129F4-1E15-4123-8D26-95A3779BF9A9";
name = Light;
paths = (
{
closed = 1;
nodes = (
"332 296 CURVE",
"362 280 LINE",
"304 364 OFFCURVE",
"182 464 OFFCURVE",
"93 464 CURVE SMOOTH",
"58 464 OFFCURVE",
"28 445 OFFCURVE",
"28 414 CURVE SMOOTH",
"28 391 OFFCURVE",
"43 377 OFFCURVE",
"60 371 CURVE",
"70 397 OFFCURVE",
"89 406 OFFCURVE",
"111 406 CURVE SMOOTH",
"176 406 OFFCURVE",
"260 350 OFFCURVE",
"309 295 CURVE",
"310 308 LINE",
"228 230 OFFCURVE",
"119 159 OFFCURVE",
"58 159 CURVE",
"58 127 OFFCURVE",
"80 115 OFFCURVE",
"104 115 CURVE SMOOTH",
"171 115 OFFCURVE",
"286 210 OFFCURVE",
"346 271 CURVE",
"340 277 LINE",
"332 209 OFFCURVE",
"330 143 OFFCURVE",
"330 78 CURVE SMOOTH",
"330 38 OFFCURVE",
"335 -5 OFFCURVE",
"376 -5 CURVE SMOOTH",
"380 -5 OFFCURVE",
"387 -4 OFFCURVE",
"393 -1 CURVE",
"385 11 OFFCURVE",
"383 46 OFFCURVE",
"383 80 CURVE SMOOTH",
"383 238 OFFCURVE",
"387 378 OFFCURVE",
"387 515 CURVE SMOOTH",
"387 554 OFFCURVE",
"383 600 OFFCURVE",
"346 600 CURVE SMOOTH",
"335 600 OFFCURVE",
"329 598 OFFCURVE",
"324 595 CURVE",
"332 583 OFFCURVE",
"334 547 OFFCURVE",
"334 513 CURVE SMOOTH",
"334 437 OFFCURVE",
"333 365 OFFCURVE"
);
},
{
closed = 1;
nodes = (
"-37 646 LINE",
"-38 644 OFFCURVE",
"-39 638 OFFCURVE",
"-39 633 CURVE SMOOTH",
"-39 617 OFFCURVE",
"-31 595 OFFCURVE",
"15 595 CURVE SMOOTH",
"519 595 LINE",
"520 597 OFFCURVE",
"521 603 OFFCURVE",
"521 608 CURVE SMOOTH",
"521 624 OFFCURVE",
"513 646 OFFCURVE",
"467 646 CURVE SMOOTH"
);
}
);
width = 494;
}
);
},
{
glyphname = dvTH_RA;
layers = (
{
layerId = "7E8129F4-1E15-4123-8D26-95A3779BF9A9";
name = Light;
paths = (
{
closed = 1;
nodes = (
"395 633 CURVE SMOOTH",
"395 611 OFFCURVE",
"409 603 OFFCURVE",
"423 596 CURVE SMOOTH",
"445 585 OFFCURVE",
"454 571 OFFCURVE",
"454 513 CURVE SMOOTH",
"454 427 OFFCURVE",
"452 346 OFFCURVE",
"451 269 CURVE",
"461 298 LINE",
"407 222 OFFCURVE",
"323 196 OFFCURVE",
"255 196 CURVE SMOOTH",
"174 196 OFFCURVE",
"102 247 OFFCURVE",
"102 288 CURVE SMOOTH",
"102 343 OFFCURVE",
"329 367 OFFCURVE",
"329 497 CURVE SMOOTH",
"329 571 OFFCURVE",
"259 646 OFFCURVE",
"181 646 CURVE SMOOTH",
"128 646 OFFCURVE",
"76 608 OFFCURVE",
"76 542 CURVE SMOOTH",
"76 494 OFFCURVE",
"109 448 OFFCURVE",
"146 448 CURVE SMOOTH",
"151 448 OFFCURVE",
"156 450 OFFCURVE",
"158 452 CURVE",
"140 468 OFFCURVE",
"128 492 OFFCURVE",
"128 522 CURVE SMOOTH",
"128 566 OFFCURVE",
"162 599 OFFCURVE",
"207 599 CURVE SMOOTH",
"250 599 OFFCURVE",
"279 566 OFFCURVE",
"279 526 CURVE SMOOTH",
"279 401 OFFCURVE",
"49 394 OFFCURVE",
"49 316 CURVE SMOOTH",
"49 249 OFFCURVE",
"153 153 OFFCURVE",
"276 153 CURVE SMOOTH",
"299 153 OFFCURVE",
"323 157 OFFCURVE",
"346 165 CURVE",
"320 166 LINE",
"244 121 OFFCURVE",
"153 85 OFFCURVE",
"75 74 CURVE",
"76 45 OFFCURVE",
"97 30 OFFCURVE",
"123 30 CURVE SMOOTH",
"217 30 OFFCURVE",
"469 198 OFFCURVE",
"491 253 CURVE",
"459 228 LINE",
"451 172 OFFCURVE",
"450 110 OFFCURVE",
"450 78 CURVE SMOOTH",
"450 38 OFFCURVE",
"455 -5 OFFCURVE",
"496 -5 CURVE SMOOTH",
"500 -5 OFFCURVE",
"507 -4 OFFCURVE",
"513 -1 CURVE",
"505 11 OFFCURVE",
"503 46 OFFCURVE",
"503 80 CURVE SMOOTH",
"503 238 OFFCURVE",
"507 378 OFFCURVE",
"507 515 CURVE SMOOTH",
"507 554 OFFCURVE",
"504 594 OFFCURVE",
"466 600 CURVE",
"472 595 LINE",
"639 595 LINE",
"640 597 OFFCURVE",
"641 603 OFFCURVE",
"641 608 CURVE SMOOTH",
"641 624 OFFCURVE",
"633 646 OFFCURVE",
"587 646 CURVE SMOOTH",
"397 646 LINE",
"396 644 OFFCURVE",
"395 638 OFFCURVE"
);
}
);
width = 614;
}
);
},
{
glyphname = dvD_RA;
layers = (
{
anchors = (
{
name = abvm.bindu;
position = "{265, 646}";
},
{
name = abvm.e;
position = "{353, 646}";
},
{
name = blwm.r;
position = "{375, -86}";
},
{
name = blwm.u;
position = "{412, 3}";
},
{
name = blwm.uu;
position = "{412, 7}";
},
{
name = blwm.virama;
position = "{375, -6}";
}
);
layerId = "7E8129F4-1E15-4123-8D26-95A3779BF9A9";
name = Light;
paths = (
{
closed = 1;
nodes = (
"356 198 LINE",
"328 178 OFFCURVE",
"289 168 OFFCURVE",
"251 168 CURVE SMOOTH",
"172 168 OFFCURVE",
"92 207 OFFCURVE",
"92 286 CURVE SMOOTH",
"92 451 OFFCURVE",
"375 411 OFFCURVE",
"375 535 CURVE SMOOTH",
"375 585 OFFCURVE",
"336 616 OFFCURVE",
"318 620 CURVE",
"306 597 LINE",
"323 586 OFFCURVE",
"331 571 OFFCURVE",
"331 555 CURVE SMOOTH",
"331 473 OFFCURVE",
"40 494 OFFCURVE",
"40 304 CURVE SMOOTH",
"40 208 OFFCURVE",
"151 126 OFFCURVE",
"263 126 CURVE SMOOTH",
"294 126 OFFCURVE",
"326 136 OFFCURVE",
"354 150 CURVE",
"324 143 LINE",
"243 92 OFFCURVE",
"146 55 OFFCURVE",
"78 40 CURVE",
"80 14 OFFCURVE",
"100 2 OFFCURVE",
"120 2 CURVE SMOOTH",
"182 2 OFFCURVE",
"418 115 OFFCURVE",
"418 229 CURVE SMOOTH",
"418 259 OFFCURVE",
"400 292 OFFCURVE",
"368 292 CURVE SMOOTH",
"340 292 OFFCURVE",
"323 268 OFFCURVE",
"323 245 CURVE SMOOTH",
"323 215 OFFCURVE",
"338 194 OFFCURVE",
"356 172 CURVE"
);
},
{
closed = 1;
nodes = (
"370 149 LINE",
"393 124 OFFCURVE",
"414 92 OFFCURVE",
"414 59 CURVE SMOOTH",
"414 38 OFFCURVE",
"401 18 OFFCURVE",
"375 12 CURVE",
"382 -8 OFFCURVE",
"399 -16 OFFCURVE",
"416 -16 CURVE SMOOTH",
"448 -16 OFFCURVE",
"468 11 OFFCURVE",
"468 41 CURVE SMOOTH",
"468 93 OFFCURVE",
"423 143 OFFCURVE",
"396 171 CURVE"
);
},
{
closed = 1;
nodes = (
"-37 646 LINE",
"-38 644 OFFCURVE",
"-39 638 OFFCURVE",
"-39 633 CURVE SMOOTH",
"-39 617 OFFCURVE",
"-31 595 OFFCURVE",
"15 595 CURVE SMOOTH",
"490 595 LINE",
"491 597 OFFCURVE",
"492 603 OFFCURVE",
"492 608 CURVE SMOOTH",
"492 624 OFFCURVE",
"484 646 OFFCURVE",
"438 646 CURVE SMOOTH"
);
}
);
width = 470;
}
);
},
{
glyphname = dvDH_RA;
layers = (
{
layerId = "7E8129F4-1E15-4123-8D26-95A3779BF9A9";
name = Light;
paths = (
{
closed = 1;
nodes = (
"-54 633 CURVE SMOOTH",
"-54 617 OFFCURVE",
"-46 595 OFFCURVE",
"0 595 CURVE SMOOTH",
"25 595 OFFCURVE",
"64 596 OFFCURVE",
"130 601 CURVE",
"107 606 LINE",
"67 579 OFFCURVE",
"53 535 OFFCURVE",
"53 502 CURVE SMOOTH",
"53 412 OFFCURVE",
"133 340 OFFCURVE",
"218 340 CURVE SMOOTH",
"243 340 OFFCURVE",
"276 352 OFFCURVE",
"276 385 CURVE SMOOTH",
"276 417 OFFCURVE",
"240 432 OFFCURVE",
"210 432 CURVE SMOOTH",
"144 432 OFFCURVE",
"71 385 OFFCURVE",
"71 293 CURVE SMOOTH",
"71 211 OFFCURVE",
"163 129 OFFCURVE",
"263 129 CURVE SMOOTH",
"290 129 OFFCURVE",
"318 136 OFFCURVE",
"344 151 CURVE",
"336 153 LINE",
"261 110 OFFCURVE",
"151 63 OFFCURVE",
"74 48 CURVE",
"77 18 OFFCURVE",
"98 5 OFFCURVE",
"118 5 CURVE SMOOTH",
"184 5 OFFCURVE",
"422 135 OFFCURVE",
"469 264 CURVE",
"437 214 LINE",
"428 168 OFFCURVE",
"428 91 OFFCURVE",
"428 78 CURVE SMOOTH",
"428 38 OFFCURVE",
"433 -5 OFFCURVE",
"474 -5 CURVE SMOOTH",
"478 -5 OFFCURVE",
"485 -4 OFFCURVE",
"491 -1 CURVE",
"483 11 OFFCURVE",
"481 46 OFFCURVE",
"481 80 CURVE SMOOTH",
"481 238 OFFCURVE",
"485 378 OFFCURVE",
"485 515 CURVE SMOOTH",
"485 554 OFFCURVE",
"482 594 OFFCURVE",
"444 600 CURVE",
"450 595 LINE",
"617 595 LINE",
"618 597 OFFCURVE",
"619 603 OFFCURVE",
"619 608 CURVE SMOOTH",
"619 624 OFFCURVE",
"611 646 OFFCURVE",
"565 646 CURVE SMOOTH",
"375 646 LINE",
"374 644 OFFCURVE",
"373 638 OFFCURVE",
"373 633 CURVE SMOOTH",
"373 611 OFFCURVE",
"387 603 OFFCURVE",
"401 596 CURVE SMOOTH",
"423 585 OFFCURVE",
"432 571 OFFCURVE",
"432 513 CURVE SMOOTH",
"432 418 OFFCURVE",
"430 329 OFFCURVE",
"429 244 CURVE",
"439 296 LINE",
"404 219 OFFCURVE",
"325 171 OFFCURVE",
"247 171 CURVE SMOOTH",
"178 171 OFFCURVE",
"120 211 OFFCURVE",
"120 276 CURVE SMOOTH",
"120 330 OFFCURVE",
"157 360 OFFCURVE",
"187 373 CURVE",
"124 392 OFFCURVE",
"100 441 OFFCURVE",
"100 488 CURVE SMOOTH",
"100 535 OFFCURVE",
"134 595 OFFCURVE",
"202 595 CURVE SMOOTH",
"223 595 LINE",
"224 597 OFFCURVE",
"225 603 OFFCURVE",
"225 608 CURVE SMOOTH",
"225 624 OFFCURVE",
"217 646 OFFCURVE",
"171 646 CURVE SMOOTH",
"-52 646 LINE",
"-53 644 OFFCURVE",
"-54 638 OFFCURVE"
);
}
);
width = 592;
}
);
},
{
glyphname = dvN_RA;
layers = (
{
layerId = "7E8129F4-1E15-4123-8D26-95A3779BF9A9";
name = Light;
paths = (
{
closed = 1;
nodes = (
"-37 646 LINE",
"-38 644 OFFCURVE",
"-39 638 OFFCURVE",
"-39 633 CURVE SMOOTH",
"-39 617 OFFCURVE",
"-31 595 OFFCURVE",
"15 595 CURVE SMOOTH",
"567 595 LINE",
"568 597 OFFCURVE",
"569 603 OFFCURVE",
"569 608 CURVE SMOOTH",
"569 624 OFFCURVE",
"561 646 OFFCURVE",
"515 646 CURVE SMOOTH"
);
},
{
closed = 1;
nodes = (
"84 347 CURVE SMOOTH",
"84 400 OFFCURVE",
"132 419 OFFCURVE",
"174 419 CURVE SMOOTH",
"271 419 OFFCURVE",
"325 394 OFFCURVE",
"384 365 CURVE",
"391 400 LINE",
"324 438 OFFCURVE",
"230 470 OFFCURVE",
"156 470 CURVE SMOOTH",
"82 470 OFFCURVE",
"32 432 OFFCURVE",
"32 372 CURVE SMOOTH",
"32 293 OFFCURVE",
"125 220 OFFCURVE",
"195 220 CURVE SMOOTH",
"253 220 OFFCURVE",
"285 260 OFFCURVE",
"285 297 CURVE SMOOTH",
"285 329 OFFCURVE",
"264 352 OFFCURVE",
"235 352 CURVE",
"237 346 OFFCURVE",
"238 337 OFFCURVE",
"238 331 CURVE SMOOTH",
"238 294 OFFCURVE",
"210 268 OFFCURVE",
"168 268 CURVE SMOOTH",
"127 268 OFFCURVE",
"84 299 OFFCURVE"
);
},
{
closed = 1;
nodes = (
"397 259 LINE",
"333 203 OFFCURVE",
"186 92 OFFCURVE",
"71 64 CURVE",
"75 36 OFFCURVE",
"95 23 OFFCURVE",
"116 23 CURVE SMOOTH",
"185 23 OFFCURVE",
"352 153 OFFCURVE",
"413 213 CURVE",
"388 197 LINE",
"381 173 OFFCURVE",
"378 104 OFFCURVE",
"378 78 CURVE SMOOTH",
"378 38 OFFCURVE",
"383 -5 OFFCURVE",
"424 -5 CURVE SMOOTH",
"428 -5 OFFCURVE",
"435 -4 OFFCURVE",
"441 -1 CURVE",
"433 11 OFFCURVE",
"431 46 OFFCURVE",
"431 80 CURVE SMOOTH",
"431 238 OFFCURVE",
"435 378 OFFCURVE",
"435 515 CURVE SMOOTH",
"435 554 OFFCURVE",
"431 600 OFFCURVE",
"394 600 CURVE SMOOTH",
"383 600 OFFCURVE",
"377 598 OFFCURVE",
"372 595 CURVE",
"380 583 OFFCURVE",
"382 547 OFFCURVE",
"382 513 CURVE SMOOTH",
"382 408 OFFCURVE",
"381 308 OFFCURVE",
"380 214 CURVE"
);
}
);
width = 542;
}
);
},
{
glyphname = dvP_RA;
layers = (
{
layerId = "7E8129F4-1E15-4123-8D26-95A3779BF9A9";
name = Light;
paths = (
{
closed = 1;
nodes = (
"-37 646 LINE",
"-38 644 OFFCURVE",
"-39 638 OFFCURVE",
"-39 633 CURVE SMOOTH",
"-39 617 OFFCURVE",
"-31 595 OFFCURVE",
"15 595 CURVE SMOOTH",
"569 595 LINE",
"570 597 OFFCURVE",
"571 603 OFFCURVE",
"571 608 CURVE SMOOTH",
"571 624 OFFCURVE",
"563 646 OFFCURVE",
"517 646 CURVE SMOOTH"
);
},
{
closed = 1;
nodes = (
"33 79 CURVE",
"37 50 OFFCURVE",
"57 37 OFFCURVE",
"77 37 CURVE SMOOTH",
"153 37 OFFCURVE",
"374 204 OFFCURVE",
"409 264 CURVE",
"390 272 LINE",
"381 207 OFFCURVE",
"380 141 OFFCURVE",
"380 78 CURVE SMOOTH",
"380 38 OFFCURVE",
"385 -5 OFFCURVE",
"426 -5 CURVE SMOOTH",
"430 -5 OFFCURVE",
"437 -4 OFFCURVE",
"443 -1 CURVE",
"435 11 OFFCURVE",
"433 46 OFFCURVE",
"433 80 CURVE SMOOTH",
"433 238 OFFCURVE",
"437 378 OFFCURVE",
"437 515 CURVE SMOOTH",
"437 554 OFFCURVE",
"433 600 OFFCURVE",
"396 600 CURVE SMOOTH",
"385 600 OFFCURVE",
"379 598 OFFCURVE",
"374 595 CURVE",
"382 583 OFFCURVE",
"384 547 OFFCURVE",
"384 513 CURVE SMOOTH",
"384 432 OFFCURVE",
"383 356 OFFCURVE",
"382 283 CURVE",
"390 320 LINE",
"348 260 OFFCURVE",
"286 227 OFFCURVE",
"227 227 CURVE SMOOTH",
"167 227 OFFCURVE",
"132 270 OFFCURVE",
"132 322 CURVE SMOOTH",
"132 480 OFFCURVE",
"133 378 OFFCURVE",
"133 515 CURVE SMOOTH",
"133 554 OFFCURVE",
"129 600 OFFCURVE",
"92 600 CURVE SMOOTH",
"81 600 OFFCURVE",
"75 598 OFFCURVE",
"70 595 CURVE",
"78 583 OFFCURVE",
"80 547 OFFCURVE",
"80 513 CURVE SMOOTH",
"80 380 OFFCURVE",
"79 462 OFFCURVE",
"79 346 CURVE SMOOTH",
"79 272 OFFCURVE",
"150 181 OFFCURVE",
"252 181 CURVE SMOOTH",
"262 181 OFFCURVE",
"277 182 OFFCURVE",
"286 183 CURVE",
"288 202 LINE",
"217 151 OFFCURVE",
"109 97 OFFCURVE"
);
}
);
width = 544;
}
);
},
{
glyphname = dvPH_RA;
layers = (
{
anchors = (
{
name = abvm.bindu;
position = "{350, 646}";
},
{
name = abvm.e;
position = "{413, 646}";
},
{
name = blwm.r;
position = "{419, -1}";
},
{
name = blwm.u;
position = "{419, -1}";
},
{
name = blwm.uu;
position = "{419, -4}";
},
{
name = blwm.virama;
position = "{419, -15}";
}
);
layerId = "7E8129F4-1E15-4123-8D26-95A3779BF9A9";
name = Light;
paths = (
{
closed = 1;
nodes = (
"275 187 CURVE",
"297 216 LINE",
"238 166 OFFCURVE",
"134 112 OFFCURVE",
"71 94 CURVE",
"74 66 OFFCURVE",
"95 55 OFFCURVE",
"116 55 CURVE SMOOTH",
"173 55 OFFCURVE",
"337 162 OFFCURVE",
"389 278 CURVE",
"366 272 LINE",
"357 207 OFFCURVE",
"356 141 OFFCURVE",
"356 78 CURVE SMOOTH",
"356 38 OFFCURVE",
"360 -5 OFFCURVE",
"402 -5 CURVE SMOOTH",
"406 -5 OFFCURVE",
"413 -4 OFFCURVE",
"419 -1 CURVE",
"411 11 OFFCURVE",
"409 46 OFFCURVE",
"409 80 CURVE SMOOTH",
"409 170 OFFCURVE",
"409 253 OFFCURVE",
"412 333 CURVE",
"406 292 LINE",
"436 371 OFFCURVE",
"500 408 OFFCURVE",
"560 408 CURVE SMOOTH",
"621 408 OFFCURVE",
"676 365 OFFCURVE",
"676 295 CURVE SMOOTH",
"676 240 OFFCURVE",
"637 181 OFFCURVE",
"557 181 CURVE SMOOTH",
"542 181 OFFCURVE",
"524 184 OFFCURVE",
"504 190 CURVE",
"502 184 OFFCURVE",
"501 179 OFFCURVE",
"501 174 CURVE SMOOTH",
"501 143 OFFCURVE",
"540 127 OFFCURVE",
"570 127 CURVE SMOOTH",
"664 127 OFFCURVE",
"723 192 OFFCURVE",
"723 266 CURVE SMOOTH",
"723 365 OFFCURVE",
"635 457 OFFCURVE",
"544 457 CURVE SMOOTH",
"472 457 OFFCURVE",
"419 416 OFFCURVE",
"395 367 CURVE",
"401 354 LINE",
"410 404 OFFCURVE",
"413 439 OFFCURVE",
"413 515 CURVE SMOOTH",
"413 554 OFFCURVE",
"408 600 OFFCURVE",
"372 600 CURVE SMOOTH",
"361 600 OFFCURVE",
"354 598 OFFCURVE",
"350 595 CURVE",
"358 583 OFFCURVE",
"360 547 OFFCURVE",
"360 513 CURVE SMOOTH",
"360 432 OFFCURVE",
"359 356 OFFCURVE",
"358 283 CURVE",
"366 334 LINE",
"340 263 OFFCURVE",
"277 227 OFFCURVE",
"227 227 CURVE SMOOTH",
"167 227 OFFCURVE",
"132 270 OFFCURVE",
"132 322 CURVE SMOOTH",
"132 480 OFFCURVE",
"133 378 OFFCURVE",
"133 515 CURVE SMOOTH",
"133 554 OFFCURVE",
"129 600 OFFCURVE",
"92 600 CURVE SMOOTH",
"81 600 OFFCURVE",
"75 598 OFFCURVE",
"70 595 CURVE",
"78 583 OFFCURVE",
"80 547 OFFCURVE",
"80 513 CURVE SMOOTH",
"80 380 OFFCURVE",
"79 462 OFFCURVE",
"79 346 CURVE SMOOTH",
"79 281 OFFCURVE",
"141 183 OFFCURVE",
"244 183 CURVE SMOOTH",
"254 183 OFFCURVE",
"265 185 OFFCURVE"
);
},
{
closed = 1;
nodes = (
"-37 646 LINE",
"-38 644 OFFCURVE",
"-39 638 OFFCURVE",
"-39 633 CURVE SMOOTH",
"-39 617 OFFCURVE",
"-31 595 OFFCURVE",
"15 595 CURVE SMOOTH",
"801 595 LINE",
"802 597 OFFCURVE",
"803 603 OFFCURVE",
"803 608 CURVE SMOOTH",
"803 624 OFFCURVE",
"795 646 OFFCURVE",
"749 646 CURVE SMOOTH"
);
}
);
width = 762;
}
);
},
{
glyphname = dvB_RA;
layers = (
{
layerId = "7E8129F4-1E15-4123-8D26-95A3779BF9A9";
name = Light;
paths = (
{
closed = 1;
nodes = (
"-33 646 LINE",
"-34 644 OFFCURVE",
"-35 638 OFFCURVE",
"-35 633 CURVE SMOOTH",
"-35 617 OFFCURVE",
"-27 595 OFFCURVE",
"19 595 CURVE SMOOTH",
"553 595 LINE",
"554 597 OFFCURVE",
"555 603 OFFCURVE",
"555 608 CURVE SMOOTH",
"555 624 OFFCURVE",
"547 646 OFFCURVE",
"501 646 CURVE SMOOTH"
);
},
{
closed = 1;
nodes = (
"373 228 LINE",
"366 177 OFFCURVE",
"364 127 OFFCURVE",
"364 78 CURVE SMOOTH",
"364 38 OFFCURVE",
"369 -5 OFFCURVE",
"410 -5 CURVE SMOOTH",
"410 -5 OFFCURVE",
"427 -4 OFFCURVE",
"427 -1 CURVE",
"419 11 OFFCURVE",
"417 46 OFFCURVE",
"417 80 CURVE SMOOTH",
"417 238 OFFCURVE",
"421 378 OFFCURVE",
"421 515 CURVE SMOOTH",
"421 554 OFFCURVE",
"417 600 OFFCURVE",
"380 600 CURVE SMOOTH",
"369 600 OFFCURVE",
"363 598 OFFCURVE",
"358 595 CURVE",
"365 583 OFFCURVE",
"368 547 OFFCURVE",
"368 513 CURVE SMOOTH",
"368 421 OFFCURVE",
"366 335 OFFCURVE",
"365 252 CURVE",
"383 355 LINE",
"362 251 OFFCURVE",
"287 200 OFFCURVE",
"218 200 CURVE SMOOTH",
"151 200 OFFCURVE",
"91 245 OFFCURVE",
"91 323 CURVE SMOOTH",
"91 384 OFFCURVE",
"135 449 OFFCURVE",
"223 449 CURVE SMOOTH",
"243 449 OFFCURVE",
"270 442 OFFCURVE",
"285 435 CURVE",
"287 439 OFFCURVE",
"288 444 OFFCURVE",
"288 449 CURVE SMOOTH",
"288 477 OFFCURVE",
"257 501 OFFCURVE",
"201 501 CURVE SMOOTH",
"106 501 OFFCURVE",
"44 430 OFFCURVE",
"44 352 CURVE SMOOTH",
"44 238 OFFCURVE",
"138 161 OFFCURVE",
"227 161 CURVE SMOOTH",
"233 161 OFFCURVE",
"240 162 OFFCURVE",
"246 163 CURVE",
"261 179 LINE",
"197 136 OFFCURVE",
"117 103 OFFCURVE",
"53 87 CURVE",
"57 58 OFFCURVE",
"78 45 OFFCURVE",
"99 45 CURVE SMOOTH",
"173 45 OFFCURVE",
"365 190 OFFCURVE",
"385 238 CURVE"
);
},
{
closed = 1;
nodes = (
"132 458 LINE",
"108 437 LINE",
"331 195 LINE",
"355 215 LINE"
);
}
);
width = 528;
}
);
},
{
glyphname = dvBH_RA;
layers = (
{
layerId = "7E8129F4-1E15-4123-8D26-95A3779BF9A9";
name = Light;
paths = (
{
closed = 1;
nodes = (
"293 646 LINE",
"292 644 OFFCURVE",
"291 638 OFFCURVE",
"291 633 CURVE SMOOTH",
"291 617 OFFCURVE",
"299 595 OFFCURVE",
"345 595 CURVE SMOOTH",
"624 595 LINE",
"625 597 OFFCURVE",
"626 603 OFFCURVE",
"626 608 CURVE SMOOTH",
"626 624 OFFCURVE",
"618 646 OFFCURVE",
"572 646 CURVE SMOOTH"
);
},
{
closed = 1;
nodes = (
"167 417 CURVE SMOOTH",
"167 381 OFFCURVE",
"163 345 OFFCURVE",
"160 312 CURVE",
"461 312 LINE",
"470 351 LINE",
"384 363 OFFCURVE",
"252 363 OFFCURVE",
"172 363 CURVE SMOOTH",
"128 363 OFFCURVE",
"80 358 OFFCURVE",
"80 312 CURVE SMOOTH",
"80 274 OFFCURVE",
"125 222 OFFCURVE",
"168 222 CURVE SMOOTH",
"218 222 OFFCURVE",
"220 316 OFFCURVE",
"220 353 CURVE SMOOTH",
"220 519 OFFCURVE",
"166 648 OFFCURVE",
"74 648 CURVE SMOOTH",
"27 648 OFFCURVE",
"0 611 OFFCURVE",
"0 566 CURVE SMOOTH",
"0 516 OFFCURVE",
"27 465 OFFCURVE",
"61 465 CURVE SMOOTH",
"67 465 OFFCURVE",
"72 467 OFFCURVE",
"75 469 CURVE",
"56 491 OFFCURVE",
"49 518 OFFCURVE",
"49 545 CURVE SMOOTH",
"49 574 OFFCURVE",
"65 602 OFFCURVE",
"96 602 CURVE SMOOTH",
"156 602 OFFCURVE",
"167 495 OFFCURVE"
);
},
{
closed = 1;
nodes = (
"445 197 LINE",
"438 172 OFFCURVE",
"435 105 OFFCURVE",
"435 78 CURVE SMOOTH",
"435 38 OFFCURVE",
"440 -5 OFFCURVE",
"481 -5 CURVE SMOOTH",
"485 -5 OFFCURVE",
"492 -4 OFFCURVE",
"498 -1 CURVE",
"490 11 OFFCURVE",
"488 46 OFFCURVE",
"488 80 CURVE SMOOTH",
"488 238 OFFCURVE",
"492 378 OFFCURVE",
"492 515 CURVE SMOOTH",
"492 554 OFFCURVE",
"488 600 OFFCURVE",
"451 600 CURVE SMOOTH",
"440 600 OFFCURVE",
"434 598 OFFCURVE",
"429 595 CURVE",
"437 583 OFFCURVE",
"439 547 OFFCURVE",
"439 513 CURVE SMOOTH",
"439 408 OFFCURVE",
"438 308 OFFCURVE",
"437 214 CURVE",
"454 259 LINE",
"390 203 OFFCURVE",
"244 90 OFFCURVE",
"130 62 CURVE",
"134 35 OFFCURVE",
"154 22 OFFCURVE",
"174 22 CURVE SMOOTH",
"246 22 OFFCURVE",
"409 152 OFFCURVE",
"470 213 CURVE"
);
}
);
width = 599;
}
);
},
{
glyphname = dvM_RA;
layers = (
{
layerId = "7E8129F4-1E15-4123-8D26-95A3779BF9A9";
name = Light;
paths = (
{
closed = 1;
nodes = (
"-37 646 LINE",
"-38 644 OFFCURVE",
"-39 638 OFFCURVE",
"-39 633 CURVE SMOOTH",
"-39 617 OFFCURVE",
"-31 595 OFFCURVE",
"15 595 CURVE SMOOTH",
"605 595 LINE",
"606 597 OFFCURVE",
"607 603 OFFCURVE",
"607 608 CURVE SMOOTH",
"607 624 OFFCURVE",
"599 646 OFFCURVE",
"553 646 CURVE SMOOTH"
);
},
{
closed = 1;
nodes = (
"426 195 LINE",
"419 171 OFFCURVE",
"416 104 OFFCURVE",
"416 78 CURVE SMOOTH",
"416 38 OFFCURVE",
"421 -5 OFFCURVE",
"462 -5 CURVE SMOOTH",
"466 -5 OFFCURVE",
"473 -4 OFFCURVE",
"479 -1 CURVE",
"471 11 OFFCURVE",
"469 46 OFFCURVE",
"469 80 CURVE SMOOTH",
"469 238 OFFCURVE",
"473 378 OFFCURVE",
"473 515 CURVE SMOOTH",
"473 554 OFFCURVE",
"469 600 OFFCURVE",
"432 600 CURVE SMOOTH",
"421 600 OFFCURVE",
"415 598 OFFCURVE",
"410 595 CURVE",
"418 583 OFFCURVE",
"420 547 OFFCURVE",
"420 513 CURVE SMOOTH",
"420 408 OFFCURVE",
"419 308 OFFCURVE",
"418 214 CURVE",
"435 259 LINE",
"371 202 OFFCURVE",
"225 90 OFFCURVE",
"110 62 CURVE",
"114 34 OFFCURVE",
"134 22 OFFCURVE",
"155 22 CURVE SMOOTH",
"227 22 OFFCURVE",
"390 150 OFFCURVE",
"451 211 CURVE"
);
},
{
closed = 1;
nodes = (
"451 356 LINE",
"365 366 OFFCURVE",
"233 368 OFFCURVE",
"153 368 CURVE SMOOTH",
"109 368 OFFCURVE",
"61 363 OFFCURVE",
"61 317 CURVE SMOOTH",
"61 279 OFFCURVE",
"106 227 OFFCURVE",
"149 227 CURVE SMOOTH",
"199 227 OFFCURVE",
"202 320 OFFCURVE",
"202 414 CURVE SMOOTH",
"202 561 OFFCURVE",
"196 600 OFFCURVE",
"159 600 CURVE SMOOTH",
"148 600 OFFCURVE",
"142 598 OFFCURVE",
"137 595 CURVE",
"148 583 OFFCURVE",
"150 537 OFFCURVE",
"150 421 CURVE SMOOTH",
"150 388 OFFCURVE",
"147 346 OFFCURVE",
"144 317 CURVE",
"442 317 LINE"
);
}
);
width = 580;
}
);
},
{
glyphname = dvY_RA;
layers = (
{
layerId = "7E8129F4-1E15-4123-8D26-95A3779BF9A9";
name = Light;
paths = (
{
closed = 1;
nodes = (
"-28 646 LINE",
"-29 644 OFFCURVE",
"-30 638 OFFCURVE",
"-30 633 CURVE SMOOTH",
"-30 617 OFFCURVE",
"-22 595 OFFCURVE",
"24 595 CURVE SMOOTH",
"602 595 LINE",
"603 597 OFFCURVE",
"604 603 OFFCURVE",
"604 608 CURVE SMOOTH",
"604 624 OFFCURVE",
"596 646 OFFCURVE",
"550 646 CURVE SMOOTH"
);
},
{
closed = 1;
nodes = (
"330 182 LINE",
"262 133 OFFCURVE",
"153 82 OFFCURVE",
"82 65 CURVE",
"86 37 OFFCURVE",
"106 25 OFFCURVE",
"127 25 CURVE SMOOTH",
"194 25 OFFCURVE",
"360 142 OFFCURVE",
"436 227 CURVE",
"422 228 LINE",
"414 172 OFFCURVE",
"413 110 OFFCURVE",
"413 78 CURVE SMOOTH",
"413 38 OFFCURVE",
"418 -5 OFFCURVE",
"459 -5 CURVE SMOOTH",
"463 -5 OFFCURVE",
"470 -4 OFFCURVE",
"476 -1 CURVE",
"468 11 OFFCURVE",
"466 46 OFFCURVE",
"466 80 CURVE SMOOTH",
"466 238 OFFCURVE",
"470 378 OFFCURVE",
"470 515 CURVE SMOOTH",
"470 554 OFFCURVE",
"466 600 OFFCURVE",
"429 600 CURVE SMOOTH",
"418 600 OFFCURVE",
"412 598 OFFCURVE",
"407 595 CURVE",
"415 583 OFFCURVE",
"417 547 OFFCURVE",
"417 513 CURVE SMOOTH",
"417 427 OFFCURVE",
"416 346 OFFCURVE",
"414 269 CURVE",
"432 309 LINE",
"394 233 OFFCURVE",
"310 208 OFFCURVE",
"251 208 CURVE SMOOTH",
"157 208 OFFCURVE",
"90 265 OFFCURVE",
"90 304 CURVE SMOOTH",
"90 348 OFFCURVE",
"242 392 OFFCURVE",
"242 490 CURVE SMOOTH",
"242 534 OFFCURVE",
"222 573 OFFCURVE",
"200 600 CURVE",
"150 606 LINE",
"177 582 OFFCURVE",
"192 550 OFFCURVE",
"192 516 CURVE SMOOTH",
"192 426 OFFCURVE",
"39 388 OFFCURVE",
"39 335 CURVE SMOOTH",
"39 266 OFFCURVE",
"142 164 OFFCURVE",
"266 164 CURVE SMOOTH",
"290 164 OFFCURVE",
"307 167 OFFCURVE",
"328 173 CURVE"
);
}
);
width = 577;
}
);
},
